<?xml version="1.0" encoding="utf-8" standalone="no"?>
<!DOCTYPE svg PUBLIC "-//W3C//DTD SVG 1.1//EN"
  "http://www.w3.org/Graphics/SVG/1.1/DTD/svg11.dtd">
<svg xmlns:xlink="http://www.w3.org/1999/xlink" width="497.632812pt" height="252.595313pt" viewBox="0 0 497.632812 252.595313" xmlns="http://www.w3.org/2000/svg" version="1.1">
 <metadata>
  <rdf:RDF xmlns:dc="http://purl.org/dc/elements/1.1/" xmlns:cc="http://creativecommons.org/ns#" xmlns:rdf="http://www.w3.org/1999/02/22-rdf-syntax-ns#">
   <cc:Work>
    <dc:type rdf:resource="http://purl.org/dc/dcmitype/StillImage"/>
    <dc:date>2023-11-22T16:08:14.048320</dc:date>
    <dc:format>image/svg+xml</dc:format>
    <dc:creator>
     <cc:Agent>
      <dc:title>Matplotlib v3.5.1, https://matplotlib.org/</dc:title>
     </cc:Agent>
    </dc:creator>
   </cc:Work>
  </rdf:RDF>
 </metadata>
 <defs>
  <style type="text/css">*{stroke-linejoin: round; stroke-linecap: butt}</style>
 </defs>
 <g id="figure_1">
  <g id="patch_1">
   <path d="M 0 252.595313 
L 497.632812 252.595313 
L 497.632812 0 
L 0 0 
z
" style="fill: #ffffff"/>
  </g>
  <g id="axes_1">
   <g id="patch_2">
    <path d="M 44.032812 185.015625 
L 490.432812 185.015625 
L 490.432812 21.935625 
L 44.032812 21.935625 
z
" style="fill: #ffffff"/>
   </g>
   <g id="matplotlib.axis_1">
    <g id="xtick_1">
     <g id="line2d_1">
      <path d="M 53.73716 185.015625 
L 53.73716 21.935625 
" clip-path="url(#pd60924cfee)" style="fill: none; stroke: #cccccc; stroke-width: 0.8; stroke-linecap: round"/>
     </g>
     <g id="text_1">
      <!-- 中国 -->
      <g style="fill: #262626" transform="translate(56.319973 212.015625)rotate(-90)scale(0.1 -0.1)">
       <defs>
        <path id="ArialUnicodeMS-4e2d" d="M 5503 1306 
L 4997 1306 
L 4997 1741 
L 3431 1741 
L 3431 -416 
L 2925 -416 
L 2925 1741 
L 1356 1741 
L 1344 1281 
L 838 1281 
L 838 4116 
L 2925 4116 
L 2925 5288 
L 3438 5288 
L 3425 4116 
L 5503 4116 
L 5503 1306 
z
M 4997 2209 
L 4997 3647 
L 3431 3647 
L 3431 2209 
L 4997 2209 
z
M 2925 2209 
L 2925 3647 
L 1344 3647 
L 1344 2209 
L 2925 2209 
z
" transform="scale(0.015625)"/>
        <path id="ArialUnicodeMS-56fd" d="M 5619 -378 
L 5166 -378 
L 5166 72 
L 1269 72 
L 1269 -378 
L 781 -378 
L 781 5050 
L 5619 5050 
L 5619 -378 
z
M 5166 513 
L 5166 4581 
L 1269 4581 
L 1269 513 
L 5166 513 
z
M 5006 972 
L 1394 972 
L 1394 1416 
L 2944 1416 
L 2944 2503 
L 1672 2503 
L 1672 2944 
L 2944 2944 
L 2944 3756 
L 1453 3756 
L 1453 4197 
L 4941 4197 
L 4941 3756 
L 3397 3756 
L 3397 2944 
L 4738 2944 
L 4738 2503 
L 3397 2503 
L 3397 1416 
L 5006 1416 
L 5006 972 
z
M 4750 1703 
L 4409 1459 
Q 4038 1956 3616 2194 
L 3928 2444 
Q 4509 2094 4750 1703 
z
" transform="scale(0.015625)"/>
       </defs>
       <use xlink:href="#ArialUnicodeMS-4e2d"/>
       <use xlink:href="#ArialUnicodeMS-56fd" x="100"/>
      </g>
     </g>
    </g>
    <g id="xtick_2">
     <g id="line2d_2">
      <path d="M 73.145856 185.015625 
L 73.145856 21.935625 
" clip-path="url(#pd60924cfee)" style="fill: none; stroke: #cccccc; stroke-width: 0.8; stroke-linecap: round"/>
     </g>
     <g id="text_2">
      <!-- 美国 -->
      <g style="fill: #262626" transform="translate(75.728668 212.015625)rotate(-90)scale(0.1 -0.1)">
       <defs>
        <path id="ArialUnicodeMS-7f8e" d="M 5972 2209 
L 475 2209 
L 475 2675 
L 2950 2675 
L 2950 3219 
L 1281 3219 
L 1281 3688 
L 2950 3688 
L 2950 4153 
L 844 4153 
L 844 4622 
L 2188 4622 
Q 1956 4941 1619 5141 
L 2053 5381 
Q 2441 5166 2784 4622 
L 3616 4622 
Q 4103 5041 4347 5409 
L 4769 5094 
Q 4534 4769 4306 4634 
L 4306 4622 
L 5581 4622 
L 5581 4153 
L 3475 4153 
L 3475 3688 
L 5159 3688 
L 5159 3219 
L 3475 3219 
L 3475 2675 
L 5972 2675 
L 5972 2209 
z
M 6113 56 
L 5813 -391 
Q 3891 -44 3244 1222 
L 3219 1222 
Q 3034 638 2270 191 
Q 1506 -256 550 -372 
L 288 84 
Q 1106 166 1786 481 
Q 2466 797 2688 1234 
L 769 1234 
L 769 1703 
L 2853 1703 
Q 2906 1909 2906 2175 
L 3406 2088 
Q 3394 1859 3353 1703 
L 5650 1703 
L 5650 1234 
L 3763 1234 
Q 4378 356 6113 56 
z
" transform="scale(0.015625)"/>
       </defs>
       <use xlink:href="#ArialUnicodeMS-7f8e"/>
       <use xlink:href="#ArialUnicodeMS-56fd" x="100"/>
      </g>
     </g>
    </g>
    <g id="xtick_3">
     <g id="line2d_3">
      <path d="M 92.554552 185.015625 
L 92.554552 21.935625 
" clip-path="url(#pd60924cfee)" style="fill: none; stroke: #cccccc; stroke-width: 0.8; stroke-linecap: round"/>
     </g>
     <g id="text_3">
      <!-- 英国 -->
      <g style="fill: #262626" transform="translate(95.137364 212.015625)rotate(-90)scale(0.1 -0.1)">
       <defs>
        <path id="ArialUnicodeMS-82f1" d="M 5838 4091 
L 4513 4091 
L 4513 3513 
L 4025 3513 
L 4025 4091 
L 2253 4091 
L 2253 3513 
L 1766 3513 
L 1766 4091 
L 434 4091 
L 434 4556 
L 1766 4556 
L 1766 5269 
L 2253 5269 
L 2253 4556 
L 4025 4556 
L 4025 5269 
L 4513 5269 
L 4513 4556 
L 5838 4556 
L 5838 4091 
z
M 5984 97 
L 5631 -397 
Q 3869 34 3213 1288 
L 3144 1288 
Q 2459 -3 647 -453 
L 319 13 
Q 1938 328 2541 1288 
L 525 1288 
L 525 1753 
L 1203 1753 
L 1203 3263 
L 2938 3263 
L 2938 3816 
L 3425 3816 
L 3425 3263 
L 5056 3263 
L 5056 1753 
L 5716 1753 
L 5716 1288 
L 3788 1288 
Q 4022 847 4647 523 
Q 5272 200 5984 97 
z
M 4569 1753 
L 4569 2797 
L 3438 2797 
Q 3438 2225 3309 1753 
L 4569 1753 
z
M 2925 2797 
L 1691 2797 
L 1691 1753 
L 2759 1753 
Q 2925 2222 2925 2797 
z
" transform="scale(0.015625)"/>
       </defs>
       <use xlink:href="#ArialUnicodeMS-82f1"/>
       <use xlink:href="#ArialUnicodeMS-56fd" x="100"/>
      </g>
     </g>
    </g>
    <g id="xtick_4">
     <g id="line2d_4">
      <path d="M 111.963247 185.015625 
L 111.963247 21.935625 
" clip-path="url(#pd60924cfee)" style="fill: none; stroke: #cccccc; stroke-width: 0.8; stroke-linecap: round"/>
     </g>
     <g id="text_4">
      <!-- 日本 -->
      <g style="fill: #262626" transform="translate(114.54606 212.015625)rotate(-90)scale(0.1 -0.1)">
       <defs>
        <path id="ArialUnicodeMS-65e5" d="M 5044 -178 
L 4538 -178 
L 4538 441 
L 2022 441 
L 2022 -206 
L 1516 -206 
L 1516 4781 
L 5044 4781 
L 5044 -178 
z
M 4538 2881 
L 4538 4313 
L 2022 4313 
L 2022 2881 
L 4538 2881 
z
M 4538 909 
L 4538 2413 
L 2022 2413 
L 2022 909 
L 4538 909 
z
" transform="scale(0.015625)"/>
        <path id="ArialUnicodeMS-672c" d="M 6113 1184 
L 5766 775 
Q 5031 1316 4457 1961 
Q 3884 2606 3444 3922 
L 3444 1613 
L 4678 1613 
L 4678 1147 
L 3444 1147 
L 3444 -428 
L 2956 -428 
L 2956 1147 
L 1728 1147 
L 1728 1613 
L 2950 1613 
L 2950 3872 
Q 2413 2063 659 744 
L 263 1125 
Q 1884 2178 2419 3822 
L 641 3822 
L 641 4288 
L 2956 4288 
L 2956 5294 
L 3444 5294 
L 3444 4288 
L 5728 4288 
L 5728 3822 
L 4019 3822 
Q 4450 2203 6113 1184 
z
" transform="scale(0.015625)"/>
       </defs>
       <use xlink:href="#ArialUnicodeMS-65e5"/>
       <use xlink:href="#ArialUnicodeMS-672c" x="100"/>
      </g>
     </g>
    </g>
    <g id="xtick_5">
     <g id="line2d_5">
      <path d="M 131.371943 185.015625 
L 131.371943 21.935625 
" clip-path="url(#pd60924cfee)" style="fill: none; stroke: #cccccc; stroke-width: 0.8; stroke-linecap: round"/>
     </g>
     <g id="text_5">
      <!-- 意大利 -->
      <g style="fill: #262626" transform="translate(133.954755 222.015625)rotate(-90)scale(0.1 -0.1)">
       <defs>
        <path id="ArialUnicodeMS-610f" d="M 5875 3278 
L 531 3278 
L 531 3744 
L 2247 3744 
Q 1875 4191 1819 4225 
L 2003 4341 
L 959 4341 
L 959 4806 
L 2956 4806 
L 2956 5375 
L 3444 5375 
L 3444 4806 
L 5441 4806 
L 5441 4341 
L 4422 4341 
L 4531 4263 
Q 4403 3984 4172 3744 
L 5875 3744 
L 5875 3278 
z
M 4000 4341 
L 2356 4341 
Q 2619 4113 2778 3744 
L 3584 3744 
Q 3863 3994 4000 4341 
z
M 5006 1222 
L 3244 1222 
Q 3597 1084 3903 738 
L 3525 416 
Q 3291 769 2675 1025 
L 2888 1222 
L 1403 1222 
L 1403 3028 
L 5006 3028 
L 5006 1222 
z
M 4525 2363 
L 4525 2584 
L 1881 2584 
L 1881 2363 
L 4525 2363 
z
M 4525 1691 
L 4525 1966 
L 1881 1966 
L 1881 1691 
L 4525 1691 
z
M 6138 153 
L 5772 -191 
Q 5372 419 4709 678 
L 5094 1006 
Q 5622 822 6138 153 
z
M 1806 653 
Q 1369 122 550 -178 
L 275 256 
Q 1081 459 1478 978 
L 1806 653 
z
M 4647 494 
Q 4525 28 4365 -139 
Q 4206 -306 3853 -306 
L 2503 -306 
Q 2009 -250 2009 372 
L 2009 884 
L 2491 884 
L 2491 341 
Q 2491 159 2650 159 
L 3891 159 
Q 4031 159 4097 366 
L 4191 672 
L 4647 494 
z
" transform="scale(0.015625)"/>
        <path id="ArialUnicodeMS-5927" d="M 5972 109 
L 5625 -275 
Q 4584 341 4046 1159 
Q 3509 1978 3322 3250 
Q 3088 1959 2520 1142 
Q 1953 325 909 -244 
L 544 197 
Q 2403 1081 2809 3256 
L 856 3256 
L 856 3744 
L 2853 3744 
Q 2919 4313 2900 5356 
L 3419 5281 
Q 3434 4266 3384 3744 
L 5684 3744 
L 5684 3256 
L 3803 3256 
Q 4003 2125 4512 1389 
Q 5022 653 5972 109 
z
" transform="scale(0.015625)"/>
        <path id="ArialUnicodeMS-5229" d="M 5888 153 
Q 5888 3 5755 -178 
Q 5622 -359 5309 -359 
L 4513 -353 
L 4359 172 
L 5228 134 
Q 5381 172 5381 288 
L 5381 5288 
L 5888 5288 
L 5888 153 
z
M 3950 1259 
L 3525 909 
Q 3119 1706 2559 2169 
L 2559 -428 
L 2075 -428 
L 2075 2144 
Q 1766 1428 794 525 
L 366 831 
Q 1484 1806 2003 3097 
L 622 3097 
L 622 3566 
L 2053 3566 
L 2053 4397 
Q 1469 4281 813 4281 
L 563 4763 
Q 2453 4819 3641 5209 
L 3928 4800 
Q 3109 4544 2541 4453 
L 2541 3566 
L 3891 3566 
L 3891 3097 
L 2541 3097 
L 2541 2547 
L 2706 2669 
Q 3581 1938 3950 1259 
z
M 4647 794 
L 4159 794 
L 4159 4531 
L 4647 4531 
L 4647 794 
z
" transform="scale(0.015625)"/>
       </defs>
       <use xlink:href="#ArialUnicodeMS-610f"/>
       <use xlink:href="#ArialUnicodeMS-5927" x="100"/>
       <use xlink:href="#ArialUnicodeMS-5229" x="200"/>
      </g>
     </g>
    </g>
    <g id="xtick_6">
     <g id="line2d_6">
      <path d="M 150.780639 185.015625 
L 150.780639 21.935625 
" clip-path="url(#pd60924cfee)" style="fill: none; stroke: #cccccc; stroke-width: 0.8; stroke-linecap: round"/>
     </g>
     <g id="text_6">
      <!-- 法国 -->
      <g style="fill: #262626" transform="translate(153.363451 212.015625)rotate(-90)scale(0.1 -0.1)">
       <defs>
        <path id="ArialUnicodeMS-6cd5" d="M 6047 -103 
L 5600 -366 
Q 5428 69 5288 244 
L 2266 -31 
L 2041 475 
L 2772 506 
Q 3134 1244 3456 2188 
L 2041 2188 
L 2041 2656 
L 3719 2656 
L 3719 3738 
L 2394 3738 
L 2394 4206 
L 3719 4206 
L 3719 5253 
L 4206 5253 
L 4206 4206 
L 5538 4206 
L 5538 3738 
L 4206 3738 
L 4206 2656 
L 5894 2656 
L 5894 2188 
L 3975 2188 
Q 3681 1241 3291 531 
L 5013 653 
Q 4669 1025 4325 1228 
L 4738 1472 
Q 5541 953 6047 -103 
z
M 2284 4166 
L 1941 3822 
Q 1597 4384 838 4703 
L 1141 5031 
Q 1869 4756 2284 4166 
z
M 1888 2772 
L 1550 2425 
Q 1203 3003 409 3291 
L 738 3609 
Q 1547 3316 1888 2772 
z
M 2169 1753 
Q 1872 553 978 -378 
L 544 -84 
Q 1469 878 1753 1925 
L 2169 1753 
z
" transform="scale(0.015625)"/>
       </defs>
       <use xlink:href="#ArialUnicodeMS-6cd5"/>
       <use xlink:href="#ArialUnicodeMS-56fd" x="100"/>
      </g>
     </g>
    </g>
    <g id="xtick_7">
     <g id="line2d_7">
      <path d="M 170.189334 185.015625 
L 170.189334 21.935625 
" clip-path="url(#pd60924cfee)" style="fill: none; stroke: #cccccc; stroke-width: 0.8; stroke-linecap: round"/>
     </g>
     <g id="text_7">
      <!-- 德国 -->
      <g style="fill: #262626" transform="translate(172.772147 212.015625)rotate(-90)scale(0.1 -0.1)">
       <defs>
        <path id="ArialUnicodeMS-5fb7" d="M 2009 5147 
Q 1553 4159 794 3419 
L 378 3713 
Q 1097 4375 1588 5363 
L 2009 5147 
z
M 5850 4331 
L 4166 4331 
Q 4175 4222 4175 4131 
Q 4175 4041 4166 3981 
L 5656 3981 
L 5656 2369 
L 2169 2369 
L 2169 3981 
L 3653 3981 
L 3653 4331 
L 1991 4331 
L 1991 4800 
L 3653 4800 
L 3653 5319 
L 4166 5319 
Q 4156 5088 4166 4800 
L 5850 4800 
L 5850 4331 
z
M 5172 2834 
L 5172 3513 
L 4647 3513 
L 4647 2834 
L 5172 2834 
z
M 4159 2834 
L 4159 3513 
L 3647 3513 
L 3647 2834 
L 4159 2834 
z
M 3163 2834 
L 3163 3513 
L 2631 3513 
L 2631 2834 
L 3163 2834 
z
M 2094 3669 
Q 1872 3216 1619 2841 
L 1619 -447 
L 1131 -447 
L 1131 2284 
Q 850 1953 603 1759 
L 225 2075 
Q 1100 2803 1650 3916 
L 2094 3669 
z
M 5919 1613 
L 3794 1613 
Q 4250 1319 4531 863 
L 4159 622 
Q 3853 1081 3406 1375 
L 3713 1613 
L 1906 1613 
L 1906 2081 
L 5919 2081 
L 5919 1613 
z
M 2869 1050 
Q 2484 313 1978 6 
L 1644 347 
Q 2172 691 2497 1331 
L 2869 1050 
z
M 6144 244 
L 5716 19 
Q 5453 609 4838 1100 
L 5281 1325 
Q 5841 872 6144 244 
z
M 5113 641 
Q 5044 294 4876 70 
Q 4709 -153 4556 -153 
L 3463 -153 
Q 3238 -125 3103 8 
Q 2969 141 2969 269 
L 2969 1222 
L 3456 1222 
L 3456 453 
Q 3456 313 3566 313 
L 4409 313 
Q 4556 391 4691 806 
L 5113 641 
z
" transform="scale(0.015625)"/>
       </defs>
       <use xlink:href="#ArialUnicodeMS-5fb7"/>
       <use xlink:href="#ArialUnicodeMS-56fd" x="100"/>
      </g>
     </g>
    </g>
    <g id="xtick_8">
     <g id="line2d_8">
      <path d="M 189.59803 185.015625 
L 189.59803 21.935625 
" clip-path="url(#pd60924cfee)" style="fill: none; stroke: #cccccc; stroke-width: 0.8; stroke-linecap: round"/>
     </g>
     <g id="text_8">
      <!-- 俄罗斯 -->
      <g style="fill: #262626" transform="translate(192.180842 222.015625)rotate(-90)scale(0.1 -0.1)">
       <defs>
        <path id="ArialUnicodeMS-4fc4" d="M 2081 5166 
Q 1978 4838 1775 4272 
L 1569 3713 
L 1569 -409 
L 1081 -409 
L 1069 2950 
Q 1000 2769 653 2400 
L 263 2681 
Q 1275 3763 1678 5375 
L 2081 5166 
z
M 6144 928 
Q 6069 522 5944 184 
Q 5819 -153 5706 -259 
Q 5594 -366 5403 -366 
Q 5022 -366 4628 609 
Q 4222 156 3794 -122 
L 3397 191 
Q 3981 547 4447 1094 
Q 4203 1922 4116 2944 
L 3206 2944 
L 3206 2113 
Q 3491 2244 3963 2431 
L 3963 1953 
L 3206 1619 
L 3206 147 
Q 3206 -97 3087 -253 
Q 2969 -409 2759 -409 
L 2100 -409 
L 1931 84 
Q 2191 56 2350 56 
Q 2719 56 2719 213 
L 2719 1388 
L 2088 1131 
L 1728 1497 
Q 2538 1825 2719 1906 
L 2719 2944 
L 1797 2944 
L 1797 3413 
L 2719 3413 
L 2719 4231 
Q 2463 4153 2144 4091 
L 1919 4488 
Q 2903 4622 3688 5222 
L 3988 4897 
Q 3613 4597 3206 4403 
L 3206 3413 
L 4084 3413 
L 4038 5275 
L 4513 5300 
Q 4522 3766 4550 3413 
L 5953 3413 
L 5953 2944 
L 4588 2944 
Q 4656 2075 4800 1575 
Q 5094 1997 5331 2766 
L 5728 2553 
Q 5472 1700 4972 1025 
Q 5100 675 5247 428 
Q 5394 181 5450 181 
Q 5522 181 5615 640 
Q 5709 1100 5697 1159 
L 6144 928 
z
M 5850 3841 
L 5441 3591 
Q 5122 4419 4569 4750 
L 4959 4991 
Q 5525 4641 5850 3841 
z
" transform="scale(0.015625)"/>
        <path id="ArialUnicodeMS-7f57" d="M 5656 3278 
L 2816 3278 
L 2816 3256 
L 3091 3109 
Q 3031 2959 2919 2822 
L 5288 2822 
L 5288 2394 
Q 4716 1200 3417 503 
Q 2119 -194 716 -353 
L 441 103 
Q 2484 469 3163 934 
Q 2781 1378 2259 1656 
L 2613 2003 
Q 3141 1694 3547 1197 
Q 4428 1806 4653 2356 
L 2584 2356 
Q 1878 1538 831 1159 
L 513 1581 
Q 1197 1856 1484 2048 
Q 1772 2241 2084 2561 
Q 2397 2881 2606 3278 
L 947 3278 
L 947 5069 
L 5656 5069 
L 5656 3278 
z
M 5178 3744 
L 5178 4603 
L 4275 4603 
L 4275 3744 
L 5178 3744 
z
M 3794 3744 
L 3794 4603 
L 2834 4603 
L 2834 3744 
L 3794 3744 
z
M 2356 3744 
L 2356 4603 
L 1428 4603 
L 1428 3744 
L 2356 3744 
z
" transform="scale(0.015625)"/>
        <path id="ArialUnicodeMS-65af" d="M 6041 2963 
L 5344 2963 
L 5344 -409 
L 4856 -409 
L 4856 2963 
L 4231 2963 
L 4231 1300 
Q 4231 259 3694 -428 
L 3231 -172 
Q 3531 134 3637 550 
Q 3744 966 3744 1638 
L 3744 4653 
Q 4147 4653 4748 4843 
Q 5350 5034 5619 5306 
L 5972 4928 
Q 5216 4394 4231 4244 
L 4231 3431 
L 6041 3431 
L 6041 2963 
z
M 3647 1038 
L 434 1038 
L 434 1503 
L 1025 1503 
L 1025 4159 
L 550 4159 
L 550 4628 
L 1025 4628 
L 1025 5269 
L 1509 5269 
L 1509 4628 
L 2688 4628 
L 2688 5269 
L 3175 5269 
L 3175 4628 
L 3603 4628 
L 3603 4159 
L 3175 4159 
L 3175 1503 
L 3647 1503 
L 3647 1038 
z
M 2688 3603 
L 2688 4159 
L 1509 4159 
L 1509 3603 
L 2688 3603 
z
M 2688 2547 
L 2688 3138 
L 1509 3138 
L 1509 2547 
L 2688 2547 
z
M 2688 1503 
L 2688 2081 
L 1509 2081 
L 1509 1503 
L 2688 1503 
z
M 3425 213 
L 3041 -78 
Q 2763 384 2138 653 
L 2484 947 
Q 3025 753 3425 213 
z
M 1919 684 
Q 1597 -28 672 -481 
L 313 -109 
Q 1238 284 1522 934 
L 1919 684 
z
" transform="scale(0.015625)"/>
       </defs>
       <use xlink:href="#ArialUnicodeMS-4fc4"/>
       <use xlink:href="#ArialUnicodeMS-7f57" x="100"/>
       <use xlink:href="#ArialUnicodeMS-65af" x="200"/>
      </g>
     </g>
    </g>
    <g id="xtick_9">
     <g id="line2d_9">
      <path d="M 209.006726 185.015625 
L 209.006726 21.935625 
" clip-path="url(#pd60924cfee)" style="fill: none; stroke: #cccccc; stroke-width: 0.8; stroke-linecap: round"/>
     </g>
     <g id="text_9">
      <!-- 哥伦比亚 -->
      <g style="fill: #262626" transform="translate(211.589538 232.015625)rotate(-90)scale(0.1 -0.1)">
       <defs>
        <path id="ArialUnicodeMS-54e5" d="M 5766 4550 
L 4984 4550 
L 4984 3103 
Q 4984 2934 4792 2814 
Q 4600 2694 4269 2681 
L 4084 3128 
L 4403 3116 
Q 4500 3116 4500 3200 
L 4500 4550 
L 588 4550 
L 588 5019 
L 5766 5019 
L 5766 4550 
z
M 3822 2950 
L 1388 2950 
L 1388 4300 
L 3822 4300 
L 3822 2950 
z
M 3334 3391 
L 3334 3859 
L 1875 3859 
L 1875 3391 
L 3334 3391 
z
M 5959 2203 
L 5119 2203 
L 5119 78 
Q 5119 -97 4983 -226 
Q 4847 -356 4594 -366 
L 4013 -384 
L 3834 97 
L 4313 72 
Q 4634 56 4634 256 
L 4634 2203 
L 447 2203 
L 447 2669 
L 5959 2669 
L 5959 2203 
z
M 3841 147 
L 3353 147 
L 3353 441 
L 1894 441 
L 1894 128 
L 1409 128 
L 1409 1875 
L 3841 1875 
L 3841 147 
z
M 3353 909 
L 3353 1434 
L 1894 1434 
L 1894 909 
L 3353 909 
z
" transform="scale(0.015625)"/>
        <path id="ArialUnicodeMS-4f26" d="M 5984 2778 
L 5672 2419 
Q 4622 3169 3853 4441 
Q 3200 3159 2088 2444 
L 1778 2803 
Q 3072 3738 3647 5019 
L 3788 5331 
L 4178 5153 
L 4078 4909 
Q 4631 3941 5984 2778 
z
M 2163 5141 
Q 2050 4738 1856 4181 
L 1663 3641 
L 1663 -378 
L 1184 -378 
L 1184 2675 
L 1172 2675 
Q 888 2172 556 1863 
L 197 2188 
Q 1225 3281 1734 5319 
L 2163 5141 
z
M 5819 775 
Q 5756 225 5622 45 
Q 5488 -134 5197 -134 
L 3256 -134 
Q 3094 -134 2961 -35 
Q 2828 63 2767 180 
Q 2706 297 2706 550 
L 2706 2803 
L 3188 2803 
L 3188 1644 
Q 3984 2006 4653 2663 
L 5031 2338 
Q 4122 1513 3188 1178 
L 3188 475 
Q 3188 363 3217 347 
Q 3247 331 3353 331 
L 5178 331 
Q 5275 331 5311 442 
Q 5347 553 5381 997 
L 5819 775 
z
" transform="scale(0.015625)"/>
        <path id="ArialUnicodeMS-6bd4" d="M 6119 1100 
Q 5975 -197 5300 -197 
L 4103 -197 
Q 3828 -197 3658 -42 
Q 3488 113 3488 378 
L 3488 5191 
L 3994 5191 
L 3994 2906 
Q 4775 3172 5600 3916 
L 5984 3584 
Q 5013 2703 3994 2388 
L 3994 506 
Q 4022 269 4225 269 
L 5153 269 
Q 5375 269 5464 464 
Q 5553 659 5625 1325 
L 6119 1100 
z
M 3238 306 
L 653 -231 
L 378 250 
L 1131 391 
L 1131 5166 
L 1638 5166 
L 1638 3450 
L 3238 3450 
L 3238 2981 
L 1638 2981 
L 1638 500 
L 3238 819 
L 3238 306 
z
" transform="scale(0.015625)"/>
        <path id="ArialUnicodeMS-4e9a" d="M 5850 -44 
L 409 -44 
Q 403 16 403 422 
L 2266 422 
L 2266 4494 
L 531 4494 
L 531 4959 
L 5709 4959 
L 5709 4494 
L 3963 4494 
L 3963 422 
L 5850 422 
L 5850 -44 
z
M 3475 422 
L 3475 4494 
L 2753 4494 
L 2753 422 
L 3475 422 
z
M 5550 3547 
Q 5372 2113 4641 959 
L 4184 1172 
Q 4884 2197 5125 3731 
L 5550 3547 
z
M 1978 1113 
L 1478 872 
Q 1394 2203 538 3475 
Q 931 3666 972 3681 
Q 1841 2306 1978 1113 
z
" transform="scale(0.015625)"/>
       </defs>
       <use xlink:href="#ArialUnicodeMS-54e5"/>
       <use xlink:href="#ArialUnicodeMS-4f26" x="100"/>
       <use xlink:href="#ArialUnicodeMS-6bd4" x="200"/>
       <use xlink:href="#ArialUnicodeMS-4e9a" x="300"/>
      </g>
     </g>
    </g>
    <g id="xtick_10">
     <g id="line2d_10">
      <path d="M 228.415421 185.015625 
L 228.415421 21.935625 
" clip-path="url(#pd60924cfee)" style="fill: none; stroke: #cccccc; stroke-width: 0.8; stroke-linecap: round"/>
     </g>
     <g id="text_10">
      <!-- 奥 -->
      <g style="fill: #262626" transform="translate(230.998234 202.015625)rotate(-90)scale(0.1 -0.1)">
       <defs>
        <path id="ArialUnicodeMS-5965" d="M 5375 1678 
L 4872 1678 
L 4872 4331 
L 1497 4331 
L 1497 1678 
L 991 1678 
L 991 4800 
L 2597 4800 
Q 2813 5159 2859 5375 
L 3419 5241 
Q 3319 4969 3206 4800 
L 5375 4800 
L 5375 1678 
z
M 4763 2175 
L 4416 1844 
Q 3941 2444 3609 2694 
L 3822 2888 
L 3431 2888 
L 3431 1900 
L 2938 1900 
L 2938 2713 
Q 2675 2122 1881 1844 
L 1581 2272 
Q 2297 2466 2528 2888 
L 1697 2888 
L 1697 3353 
L 2253 3353 
Q 2013 3697 1825 3841 
L 2309 4044 
Q 2569 3766 2753 3353 
L 2944 3353 
L 2944 4213 
L 3431 4213 
L 3431 3353 
L 3584 3353 
Q 3747 3506 3969 4084 
L 4453 3903 
Q 4303 3563 4141 3353 
L 4659 3353 
L 4659 2888 
L 4063 2888 
Q 4313 2750 4763 2175 
z
M 6150 44 
L 5863 -434 
Q 4025 -128 3278 966 
L 3200 966 
Q 2738 -209 531 -469 
L 250 25 
Q 2125 216 2606 966 
L 441 966 
L 441 1434 
L 2841 1434 
Q 2900 1566 2919 1844 
L 3438 1728 
Q 3406 1588 3366 1434 
L 5900 1434 
L 5900 966 
L 3897 966 
Q 4578 238 6150 44 
z
" transform="scale(0.015625)"/>
       </defs>
       <use xlink:href="#ArialUnicodeMS-5965"/>
      </g>
     </g>
    </g>
    <g id="xtick_11">
     <g id="line2d_11">
      <path d="M 247.824117 185.015625 
L 247.824117 21.935625 
" clip-path="url(#pd60924cfee)" style="fill: none; stroke: #cccccc; stroke-width: 0.8; stroke-linecap: round"/>
     </g>
     <g id="text_11">
      <!-- 白俄 -->
      <g style="fill: #262626" transform="translate(250.406929 212.015625)rotate(-90)scale(0.1 -0.1)">
       <defs>
        <path id="ArialUnicodeMS-767d" d="M 5259 -409 
L 4738 -409 
L 4738 31 
L 1797 31 
L 1797 -409 
L 1275 -409 
L 1275 4300 
L 2613 4300 
Q 2959 4691 3156 5331 
L 3634 5153 
Q 3406 4547 3206 4300 
L 5259 4300 
L 5259 -409 
z
M 4738 2438 
L 4738 3834 
L 1797 3834 
L 1797 2438 
L 4738 2438 
z
M 4738 500 
L 4738 1972 
L 1797 1972 
L 1797 500 
L 4738 500 
z
" transform="scale(0.015625)"/>
       </defs>
       <use xlink:href="#ArialUnicodeMS-767d"/>
       <use xlink:href="#ArialUnicodeMS-4fc4" x="100"/>
      </g>
     </g>
    </g>
    <g id="xtick_12">
     <g id="line2d_12">
      <path d="M 267.232812 185.015625 
L 267.232812 21.935625 
" clip-path="url(#pd60924cfee)" style="fill: none; stroke: #cccccc; stroke-width: 0.8; stroke-linecap: round"/>
     </g>
     <g id="text_12">
      <!-- 古希腊 -->
      <g style="fill: #262626" transform="translate(269.820312 222.015625)rotate(-90)scale(0.1 -0.1)">
       <defs>
        <path id="ArialUnicodeMS-53e4" d="M 5831 3566 
L 3444 3566 
L 3444 2253 
L 5100 2253 
L 5100 -453 
L 4616 -453 
L 4616 -25 
L 1844 -25 
L 1844 -453 
L 1356 -453 
L 1356 2253 
L 2956 2253 
L 2956 3566 
L 531 3566 
L 531 4031 
L 2956 4031 
L 2956 5269 
L 3444 5269 
L 3444 4031 
L 5831 4031 
L 5831 3566 
z
M 4616 441 
L 4616 1784 
L 1844 1784 
L 1844 441 
L 4616 441 
z
" transform="scale(0.015625)"/>
        <path id="ArialUnicodeMS-5e0c" d="M 5631 3700 
L 5294 3328 
Q 4200 3972 3591 4122 
Q 2600 3506 1222 3316 
L 941 3775 
Q 2041 3850 2969 4306 
Q 1931 4534 1288 4544 
L 1594 4984 
Q 2522 4916 3553 4628 
Q 4100 4988 4494 5409 
L 4903 5125 
Q 4384 4656 4116 4453 
Q 4922 4181 5631 3700 
z
M 6022 2803 
L 3084 2803 
Q 2875 2534 2394 2113 
L 3347 2113 
L 3347 2663 
L 3834 2663 
L 3834 2113 
L 5388 2113 
L 5388 709 
Q 5388 466 5228 348 
Q 5069 231 4984 231 
L 4372 219 
L 4213 672 
Q 4547 653 4644 653 
Q 4928 653 4928 863 
L 4928 1644 
L 3834 1644 
L 3834 -416 
L 3347 -416 
L 3347 1644 
L 2291 1644 
L 2291 159 
L 1831 159 
L 1831 1716 
Q 1203 1347 703 1141 
L 409 1538 
Q 1816 2125 2438 2803 
L 653 2803 
L 653 3272 
L 2841 3272 
Q 3034 3522 3213 3859 
L 3647 3669 
Q 3588 3547 3425 3272 
L 6022 3272 
L 6022 2803 
z
" transform="scale(0.015625)"/>
        <path id="ArialUnicodeMS-814a" d="M 6119 2809 
L 2338 2809 
L 2344 3284 
L 3341 3284 
L 3341 4006 
L 2584 4006 
L 2578 4481 
L 3341 4481 
L 3341 5247 
L 3828 5247 
L 3822 4481 
L 4588 4481 
L 4588 5275 
L 5081 5275 
L 5081 4481 
L 5850 4481 
L 5850 4006 
L 5081 4006 
L 5081 3278 
L 6119 3278 
L 6119 2809 
z
M 4594 3278 
L 4588 4006 
L 3828 4006 
L 3828 3284 
L 4594 3278 
z
M 2316 225 
Q 2316 -13 2217 -138 
Q 2119 -263 2025 -280 
Q 1931 -297 1441 -341 
L 1269 147 
L 1753 128 
Q 1838 128 1838 275 
L 1838 1709 
L 1825 1709 
Q 1728 1569 1441 1281 
L 1234 1478 
Q 1222 309 709 -441 
L 331 -147 
Q 756 453 756 1838 
L 756 5013 
L 2316 5013 
L 2316 225 
z
M 1838 3541 
L 1838 4550 
L 1234 4550 
L 1247 3891 
L 1422 4019 
Q 1600 3866 1715 3709 
Q 1831 3553 1831 3525 
L 1838 3541 
z
M 1844 2406 
L 1844 2944 
Q 1750 2866 1613 2797 
Q 1419 3416 1247 3572 
L 1247 1778 
Q 1578 2084 1844 2406 
z
M 5538 -416 
L 5056 -409 
L 5056 -25 
L 3366 -25 
L 3366 -422 
L 2875 -422 
L 2875 2425 
L 5538 2425 
L 5538 -416 
z
M 5056 1441 
L 5056 1959 
L 3366 1959 
L 3366 1441 
L 5056 1441 
z
M 5056 434 
L 5056 991 
L 3366 991 
L 3366 434 
L 5056 434 
z
" transform="scale(0.015625)"/>
       </defs>
       <use xlink:href="#ArialUnicodeMS-53e4"/>
       <use xlink:href="#ArialUnicodeMS-5e0c" x="100"/>
       <use xlink:href="#ArialUnicodeMS-814a" x="200"/>
      </g>
     </g>
    </g>
    <g id="xtick_13">
     <g id="line2d_13">
      <path d="M 286.641508 185.015625 
L 286.641508 21.935625 
" clip-path="url(#pd60924cfee)" style="fill: none; stroke: #cccccc; stroke-width: 0.8; stroke-linecap: round"/>
     </g>
     <g id="text_13">
      <!-- 苏 -->
      <g style="fill: #262626" transform="translate(289.224321 202.015625)rotate(-90)scale(0.1 -0.1)">
       <defs>
        <path id="ArialUnicodeMS-82cf" d="M 5856 4197 
L 4213 4197 
L 4213 3669 
L 3725 3669 
L 3725 4197 
L 2503 4197 
L 2503 3669 
L 2016 3669 
L 2016 4197 
L 403 4197 
L 403 4666 
L 2016 4666 
L 2016 5259 
L 2503 5259 
L 2503 4666 
L 3725 4666 
L 3725 5259 
L 4213 5259 
L 4213 4666 
L 5856 4666 
L 5856 4197 
z
M 4628 3072 
Q 4628 2275 4545 1420 
Q 4463 566 4381 209 
Q 4300 -147 4136 -275 
Q 3972 -403 3750 -403 
Q 3531 -403 3084 -347 
L 2950 219 
Q 3591 38 3678 38 
Q 3769 38 3820 111 
Q 3872 184 3983 1003 
Q 4094 1822 4147 2606 
L 3003 2606 
Q 2822 1453 2265 734 
Q 1709 16 691 -434 
L 391 -13 
Q 1413 438 1867 991 
Q 2322 1544 2522 2606 
L 884 2606 
L 884 3072 
L 2559 3072 
L 2578 3597 
L 3047 3500 
L 3047 3072 
L 4628 3072 
z
M 1869 2150 
Q 1659 1356 1019 763 
L 603 1056 
Q 1206 1575 1459 2375 
L 1869 2150 
z
M 5991 1019 
Q 5938 981 5803 876 
Q 5669 772 5575 716 
Q 5294 1428 4697 2003 
L 5075 2272 
Q 5644 1756 5991 1019 
z
" transform="scale(0.015625)"/>
       </defs>
       <use xlink:href="#ArialUnicodeMS-82cf"/>
      </g>
     </g>
    </g>
    <g id="xtick_14">
     <g id="line2d_14">
      <path d="M 306.050204 185.015625 
L 306.050204 21.935625 
" clip-path="url(#pd60924cfee)" style="fill: none; stroke: #cccccc; stroke-width: 0.8; stroke-linecap: round"/>
     </g>
     <g id="text_14">
      <!-- 南非 -->
      <g style="fill: #262626" transform="translate(308.633016 212.015625)rotate(-90)scale(0.1 -0.1)">
       <defs>
        <path id="ArialUnicodeMS-5357" d="M 6028 4269 
L 3481 4269 
L 3481 3700 
L 5606 3700 
L 5606 134 
Q 5606 -106 5440 -215 
Q 5275 -325 5113 -325 
L 4359 -325 
L 4238 166 
L 4747 150 
Q 5119 150 5119 384 
L 5119 3231 
L 4116 3231 
L 4453 3028 
Q 4231 2441 3988 2209 
L 4756 2209 
L 4756 1741 
L 3481 1741 
L 3481 1344 
L 4872 1344 
L 4872 878 
L 3481 878 
L 3481 -213 
L 2994 -213 
L 2994 878 
L 1613 878 
L 1613 1344 
L 2994 1344 
L 2994 1741 
L 1722 1741 
L 1722 2209 
L 2516 2209 
Q 2366 2669 1850 2988 
L 2309 3213 
Q 2853 2797 2994 2350 
L 2650 2209 
L 3384 2209 
Q 3775 2591 4013 3231 
L 1344 3231 
L 1344 -459 
L 856 -459 
L 856 3700 
L 2994 3700 
L 2994 4269 
L 434 4269 
L 434 4738 
L 2994 4738 
L 2994 5313 
L 3481 5313 
L 3481 4738 
L 6028 4738 
L 6028 4269 
z
" transform="scale(0.015625)"/>
        <path id="ArialUnicodeMS-975e" d="M 6041 1069 
L 4206 1069 
L 4206 -416 
L 3700 -416 
L 3700 5288 
L 4206 5288 
L 4206 4250 
L 5900 4250 
L 5900 3788 
L 4206 3788 
L 4206 2881 
L 5672 2881 
L 5672 2413 
L 4206 2413 
L 4206 1538 
L 6041 1538 
L 6041 1069 
z
M 3272 1491 
L 2894 1416 
Q 2781 88 984 -397 
L 684 56 
Q 2103 306 2356 1300 
L 544 928 
L 313 1416 
L 2394 1784 
L 2394 2456 
L 856 2456 
L 856 2925 
L 2394 2925 
L 2394 3769 
L 678 3769 
L 678 4238 
L 2400 4238 
L 2400 5288 
L 2906 5288 
L 2906 1888 
L 3272 1966 
L 3272 1491 
z
" transform="scale(0.015625)"/>
       </defs>
       <use xlink:href="#ArialUnicodeMS-5357"/>
       <use xlink:href="#ArialUnicodeMS-975e" x="100"/>
      </g>
     </g>
    </g>
    <g id="xtick_15">
     <g id="line2d_15">
      <path d="M 325.458899 185.015625 
L 325.458899 21.935625 
" clip-path="url(#pd60924cfee)" style="fill: none; stroke: #cccccc; stroke-width: 0.8; stroke-linecap: round"/>
     </g>
     <g id="text_15">
      <!-- 加拿大 -->
      <g style="fill: #262626" transform="translate(328.157337 222.015625)rotate(-90)scale(0.1 -0.1)">
       <defs>
        <path id="ArialUnicodeMS-52a0" d="M 3463 3975 
L 3431 2456 
Q 3416 1684 3337 1089 
Q 3259 494 3153 256 
Q 3047 19 2889 -82 
Q 2731 -184 2509 -184 
Q 2338 -184 1722 -72 
L 1638 488 
Q 2313 281 2463 281 
Q 2559 281 2645 411 
Q 2731 541 2822 1244 
Q 2913 1947 2963 3506 
L 2181 3506 
Q 2109 1928 1761 1011 
Q 1413 94 763 -488 
L 372 -147 
Q 1016 544 1225 1008 
Q 1434 1472 1546 2256 
Q 1659 3041 1678 3506 
L 628 3506 
L 628 3975 
L 1678 3975 
Q 1713 4247 1741 5319 
L 2259 5281 
L 2203 3975 
L 3463 3975 
z
M 5844 -159 
L 5338 -159 
L 5338 325 
L 4325 325 
L 4325 -159 
L 3841 -159 
L 3841 4359 
L 5844 4359 
L 5844 -159 
z
M 5338 794 
L 5338 3891 
L 4325 3891 
L 4325 794 
L 5338 794 
z
" transform="scale(0.015625)"/>
        <path id="ArialUnicodeMS-62ff" d="M 6203 3731 
L 5953 3297 
Q 4903 3634 4147 4091 
L 4141 3866 
L 2322 3866 
L 2322 4097 
Q 1638 3644 531 3219 
L 244 3675 
Q 2275 4369 3169 5516 
L 3597 5288 
L 3519 5184 
Q 4309 4338 6203 3731 
z
M 3847 4300 
Q 3572 4488 3225 4813 
Q 2828 4425 2638 4300 
L 3847 4300 
z
M 4781 2478 
L 1625 2478 
L 1625 3681 
L 4781 3681 
L 4781 2478 
z
M 4294 2913 
L 4294 3244 
L 2113 3244 
L 2113 2913 
L 4294 2913 
z
M 5953 453 
L 3525 453 
L 3525 -84 
Q 3500 -159 3329 -303 
Q 3159 -447 2344 -434 
L 2194 31 
Q 2706 25 2854 47 
Q 3003 69 3003 213 
L 3003 453 
L 506 453 
L 506 891 
L 2994 891 
L 3003 1153 
L 1044 1153 
L 1044 1588 
L 3003 1588 
L 3003 1797 
Q 2406 1772 1094 1772 
L 884 2247 
Q 1553 2231 1981 2231 
Q 3747 2231 5178 2516 
L 5472 2150 
Q 4750 1969 3506 1844 
L 3500 1588 
L 5375 1588 
L 5375 1153 
L 3525 1153 
L 3525 891 
L 5953 891 
L 5953 453 
z
" transform="scale(0.015625)"/>
       </defs>
       <use xlink:href="#ArialUnicodeMS-52a0"/>
       <use xlink:href="#ArialUnicodeMS-62ff" x="100"/>
       <use xlink:href="#ArialUnicodeMS-5927" x="200"/>
      </g>
     </g>
    </g>
    <g id="xtick_16">
     <g id="line2d_16">
      <path d="M 344.867595 185.015625 
L 344.867595 21.935625 
" clip-path="url(#pd60924cfee)" style="fill: none; stroke: #cccccc; stroke-width: 0.8; stroke-linecap: round"/>
     </g>
     <g id="text_16">
      <!-- 马来西亚 -->
      <g style="fill: #262626" transform="translate(347.450408 232.015625)rotate(-90)scale(0.1 -0.1)">
       <defs>
        <path id="ArialUnicodeMS-9a6c" d="M 5709 2284 
Q 5709 1584 5542 804 
Q 5375 25 5219 -170 
Q 5063 -366 4688 -366 
Q 4419 -366 4103 -306 
L 3969 219 
Q 4581 103 4641 103 
Q 4797 103 4865 217 
Q 4934 331 5056 984 
Q 5178 1638 5203 2163 
L 1369 2163 
L 1369 2584 
Q 1616 3697 1678 4422 
L 2169 4313 
Q 2091 3638 1881 2631 
L 3853 2631 
Q 3944 3109 4084 4588 
L 897 4588 
L 897 5056 
L 4634 5056 
Q 4503 3431 4366 2631 
L 5709 2631 
L 5709 2284 
z
M 4513 959 
L 531 959 
L 531 1428 
L 4513 1428 
L 4513 959 
z
" transform="scale(0.015625)"/>
        <path id="ArialUnicodeMS-6765" d="M 6088 366 
L 5772 -19 
Q 4219 581 3419 2222 
L 3419 -366 
L 2931 -366 
L 2931 2234 
Q 2334 678 641 6 
L 313 372 
Q 1234 781 1693 1197 
Q 2153 1613 2438 2194 
L 481 2194 
L 481 2663 
L 2919 2663 
L 2919 4128 
L 722 4128 
L 722 4594 
L 2919 4594 
L 2919 5313 
L 3419 5313 
L 3419 4594 
L 5678 4594 
L 5678 4128 
L 3419 4128 
L 3419 2663 
L 5913 2663 
L 5913 2194 
L 3944 2194 
Q 4216 1644 4828 1125 
Q 5441 606 6088 366 
z
M 2534 3003 
L 2119 2725 
Q 1784 3472 1222 3822 
L 1606 4078 
Q 2294 3628 2534 3003 
z
M 5159 3816 
Q 4753 3069 4238 2725 
L 3834 3009 
Q 4353 3366 4769 4038 
L 5159 3816 
z
" transform="scale(0.015625)"/>
        <path id="ArialUnicodeMS-897f" d="M 5947 4475 
L 4019 4475 
L 4019 3519 
L 5509 3519 
L 5509 -341 
L 5025 -341 
L 5025 172 
L 1381 172 
L 1381 -341 
L 891 -341 
L 891 3519 
L 2322 3519 
L 2322 4475 
L 469 4475 
L 469 4941 
L 5947 4941 
L 5947 4475 
z
M 3531 3519 
L 3531 4475 
L 2803 4475 
L 2803 3519 
L 3531 3519 
z
M 5025 641 
L 5025 3053 
L 4019 3053 
L 4019 2041 
Q 4019 1888 4184 1888 
L 4359 1888 
Q 4469 1888 4563 2328 
L 4991 2088 
Q 4850 1422 4441 1422 
L 4006 1422 
Q 3541 1422 3541 1925 
L 3541 3053 
L 2809 3053 
Q 2809 1781 1709 1131 
L 1375 1453 
L 1375 641 
L 5025 641 
z
M 2303 3053 
L 1375 3053 
L 1375 1528 
Q 1903 1856 2103 2201 
Q 2303 2547 2303 3053 
z
" transform="scale(0.015625)"/>
       </defs>
       <use xlink:href="#ArialUnicodeMS-9a6c"/>
       <use xlink:href="#ArialUnicodeMS-6765" x="100"/>
       <use xlink:href="#ArialUnicodeMS-897f" x="200"/>
       <use xlink:href="#ArialUnicodeMS-4e9a" x="300"/>
      </g>
     </g>
    </g>
    <g id="xtick_17">
     <g id="line2d_17">
      <path d="M 364.276291 185.015625 
L 364.276291 21.935625 
" clip-path="url(#pd60924cfee)" style="fill: none; stroke: #cccccc; stroke-width: 0.8; stroke-linecap: round"/>
     </g>
     <g id="text_17">
      <!-- 葡 -->
      <g style="fill: #262626" transform="translate(366.859103 202.015625)rotate(-90)scale(0.1 -0.1)">
       <defs>
        <path id="ArialUnicodeMS-8461" d="M 6069 4378 
L 4653 4378 
L 4653 3922 
L 4166 3922 
L 4166 4378 
L 2522 4378 
L 2522 3922 
L 2034 3922 
L 2034 4378 
L 569 4378 
L 569 4844 
L 2034 4844 
L 2034 5288 
L 2522 5288 
L 2522 4844 
L 4166 4844 
L 4166 5313 
L 4653 5313 
L 4653 4844 
L 6069 4844 
L 6069 4378 
z
M 5784 3847 
Q 5806 2400 5750 1301 
Q 5694 203 5550 -94 
Q 5406 -391 5038 -391 
L 4588 -403 
L 4488 -147 
Q 4356 -256 4213 -256 
L 3731 -256 
L 3572 206 
Q 3756 197 3934 197 
Q 4231 197 4206 409 
L 3128 409 
L 3128 -191 
L 2644 -191 
L 2644 409 
L 1625 409 
L 1625 -409 
L 1141 -409 
L 1141 2291 
L 2644 2291 
L 2644 2509 
L 1013 2509 
L 1013 2597 
Q 928 2522 594 2363 
L 263 2741 
Q 1172 3228 1528 4281 
L 1959 4091 
Q 1944 4031 1863 3847 
L 5784 3847 
z
M 5288 3378 
L 1650 3378 
Q 1531 3169 1356 2975 
L 2644 2975 
L 2644 3297 
L 3128 3297 
L 3128 2975 
L 3769 2975 
Q 3719 3047 3547 3175 
L 3981 3353 
Q 4238 3172 4347 2975 
L 5025 2975 
L 5025 2509 
L 3128 2509 
L 3128 2291 
L 4691 2291 
L 4691 231 
Q 4691 125 4678 63 
Q 4797 44 4909 44 
Q 5109 44 5150 312 
Q 5191 581 5239 1118 
Q 5288 1656 5288 3378 
z
M 4206 1556 
L 4206 1850 
L 3128 1850 
L 3128 1556 
L 4206 1556 
z
M 2644 1556 
L 2644 1850 
L 1625 1850 
L 1625 1556 
L 2644 1556 
z
M 4206 850 
L 4206 1141 
L 3128 1141 
L 3128 850 
L 4206 850 
z
M 2644 850 
L 2644 1141 
L 1625 1141 
L 1625 850 
L 2644 850 
z
" transform="scale(0.015625)"/>
       </defs>
       <use xlink:href="#ArialUnicodeMS-8461"/>
      </g>
     </g>
    </g>
    <g id="xtick_18">
     <g id="line2d_18">
      <path d="M 383.684986 185.015625 
L 383.684986 21.935625 
" clip-path="url(#pd60924cfee)" style="fill: none; stroke: #cccccc; stroke-width: 0.8; stroke-linecap: round"/>
     </g>
     <g id="text_18">
      <!-- 挪 -->
      <g style="fill: #262626" transform="translate(386.267799 202.015625)rotate(-90)scale(0.1 -0.1)">
       <defs>
        <path id="ArialUnicodeMS-632a" d="M 4116 4941 
Q 4116 2881 4044 1403 
Q 4006 1159 3975 700 
Q 3944 241 3928 183 
Q 3913 125 3841 3 
Q 3769 -119 3641 -198 
Q 3513 -278 3284 -278 
Q 3100 -278 2803 -225 
L 2663 331 
Q 3072 191 3331 191 
Q 3506 191 3578 1747 
L 3041 1747 
Q 2944 569 2069 -469 
L 1672 -141 
Q 2416 731 2541 1650 
Q 2553 1725 2559 1747 
L 2106 1747 
L 2106 2216 
L 2591 2216 
Q 2613 2422 2631 3128 
L 2169 3128 
L 2169 3541 
L 1672 3541 
L 1672 2619 
Q 1966 2744 2303 2913 
L 2303 2406 
L 1672 2113 
L 1672 166 
Q 1672 -50 1586 -187 
Q 1500 -325 1395 -367 
Q 1291 -409 697 -453 
Q 628 -319 525 19 
Q 594 28 666 28 
Q 738 28 847 17 
Q 956 6 1000 6 
Q 1072 6 1125 25 
L 1184 103 
L 1184 1825 
Q 919 1703 672 1575 
L 300 1947 
Q 759 2150 1184 2369 
L 1184 3541 
L 434 3541 
L 434 4006 
L 1184 4006 
L 1184 5259 
L 1672 5259 
L 1672 4006 
L 2259 4006 
L 2259 3597 
L 2625 3597 
Q 2631 3847 2631 4475 
L 2009 4475 
L 2009 4941 
L 4116 4941 
z
M 3622 3597 
L 3616 4475 
L 3103 4475 
L 3103 3597 
L 3622 3597 
z
M 3591 2216 
L 3616 3128 
L 3109 3128 
Q 3109 2806 3072 2216 
L 3591 2216 
z
M 5472 2888 
Q 6078 2094 6078 1425 
Q 6078 963 5850 708 
Q 5622 453 5300 488 
L 4984 519 
Q 4941 697 4831 1056 
Q 5159 997 5319 997 
Q 5472 997 5537 1070 
Q 5603 1144 5603 1403 
Q 5603 1622 5537 1823 
Q 5472 2025 5320 2265 
Q 5169 2506 4959 2753 
Q 5119 3434 5428 4538 
L 4825 4538 
L 4825 -428 
L 4341 -428 
L 4341 5006 
L 5947 5006 
L 5947 4575 
L 5472 2888 
z
" transform="scale(0.015625)"/>
       </defs>
       <use xlink:href="#ArialUnicodeMS-632a"/>
      </g>
     </g>
    </g>
    <g id="xtick_19">
     <g id="line2d_19">
      <path d="M 403.093682 185.015625 
L 403.093682 21.935625 
" clip-path="url(#pd60924cfee)" style="fill: none; stroke: #cccccc; stroke-width: 0.8; stroke-linecap: round"/>
     </g>
     <g id="text_19">
      <!-- 阿根廷 -->
      <g style="fill: #262626" transform="translate(405.676495 222.015625)rotate(-90)scale(0.1 -0.1)">
       <defs>
        <path id="ArialUnicodeMS-963f" d="M 5931 4513 
L 5403 4513 
L 5403 122 
Q 5403 -434 4959 -434 
L 4159 -434 
L 3994 78 
L 4594 50 
Q 4775 44 4845 80 
Q 4916 116 4916 250 
L 4916 4513 
L 2413 4513 
L 2413 4978 
L 5931 4978 
L 5931 4513 
z
M 1856 3097 
Q 2438 2525 2438 1900 
Q 2438 1656 2353 1445 
Q 2269 1234 2101 1129 
Q 1934 1025 1522 1025 
Q 1338 1025 1259 1031 
L 1075 1466 
L 1075 -481 
L 594 -481 
L 594 4978 
L 2328 4978 
L 2328 4550 
L 1856 3097 
z
M 1081 1563 
L 1631 1500 
Q 1953 1500 1953 1888 
Q 1953 2475 1338 2975 
L 1838 4513 
L 1081 4513 
L 1081 1563 
z
M 4488 844 
L 4000 844 
L 4000 1209 
L 3169 1209 
L 3169 844 
L 2681 844 
L 2681 3725 
L 4488 3725 
L 4488 844 
z
M 4000 1678 
L 4000 3256 
L 3169 3256 
L 3169 1678 
L 4000 1678 
z
" transform="scale(0.015625)"/>
        <path id="ArialUnicodeMS-6839" d="M 2841 1931 
L 2419 1644 
Q 2331 2116 1984 2491 
L 1984 -453 
L 1497 -453 
L 1497 2175 
Q 1341 1766 697 1019 
L 325 1356 
Q 1206 2297 1478 3572 
L 588 3572 
L 588 4038 
L 1497 4038 
L 1497 5247 
L 1984 5247 
L 1984 4038 
L 2619 4038 
L 2619 3572 
L 1984 3572 
L 1984 2925 
L 2125 2988 
Q 2650 2578 2841 1931 
z
M 6125 -25 
L 5819 -428 
Q 4213 288 3981 2175 
L 3341 2175 
L 3341 288 
L 4434 634 
L 4434 147 
L 2566 -422 
L 2344 25 
L 2853 166 
L 2853 5006 
L 5453 5006 
L 5453 2175 
L 4481 2175 
Q 4566 1684 4684 1434 
Q 5075 1641 5600 2144 
L 5919 1778 
Q 5359 1219 4850 997 
Q 5147 478 6125 -25 
z
M 4966 3841 
L 4966 4538 
L 3341 4538 
L 3341 3841 
L 4966 3841 
z
M 4966 2644 
L 4966 3372 
L 3341 3372 
L 3341 2644 
L 4966 2644 
z
" transform="scale(0.015625)"/>
        <path id="ArialUnicodeMS-5ef7" d="M 5966 2719 
L 4434 2719 
L 4434 1441 
L 5856 1441 
L 5856 972 
L 2591 972 
L 2591 1441 
L 3928 1441 
L 3928 2719 
L 2491 2719 
L 2491 3188 
L 3928 3188 
L 3928 4391 
Q 3491 4325 2741 4281 
Q 2666 4484 2522 4750 
Q 4303 4769 5356 5281 
Q 5613 5006 5650 4928 
Q 5016 4606 4434 4494 
L 4434 3188 
L 5966 3188 
L 5966 2719 
z
M 6075 359 
L 5850 -166 
L 3309 -166 
Q 2181 -166 1600 347 
Q 1228 -56 538 -397 
L 213 0 
Q 781 225 1253 684 
Q 966 994 716 1606 
L 1100 1844 
Q 1231 1413 1522 1063 
Q 1828 1709 1900 2541 
L 1306 2541 
L 1159 2253 
L 738 2444 
L 1600 4275 
L 403 4275 
L 403 4756 
L 2144 4756 
L 2144 4313 
L 1503 3009 
L 2419 3009 
Q 2319 1475 1875 728 
Q 2397 300 3378 300 
L 5247 300 
L 6075 359 
z
" transform="scale(0.015625)"/>
       </defs>
       <use xlink:href="#ArialUnicodeMS-963f"/>
       <use xlink:href="#ArialUnicodeMS-6839" x="100"/>
       <use xlink:href="#ArialUnicodeMS-5ef7" x="200"/>
      </g>
     </g>
    </g>
    <g id="xtick_20">
     <g id="line2d_20">
      <path d="M 422.502378 185.015625 
L 422.502378 21.935625 
" clip-path="url(#pd60924cfee)" style="fill: none; stroke: #cccccc; stroke-width: 0.8; stroke-linecap: round"/>
     </g>
     <g id="text_20">
      <!-- 印 -->
      <g style="fill: #262626" transform="translate(425.08519 202.015625)rotate(-90)scale(0.1 -0.1)">
       <defs>
        <path id="ArialUnicodeMS-5370" d="M 3303 4959 
Q 2459 4369 1453 4159 
L 1453 3084 
L 2963 3084 
L 2963 2619 
L 1453 2619 
L 1453 1241 
L 2963 1241 
L 2963 775 
L 1453 775 
L 1453 325 
L 947 325 
L 947 4556 
Q 2134 4691 2969 5344 
L 3303 4959 
z
M 5650 1356 
Q 5650 884 5456 729 
Q 5263 575 4813 581 
L 4434 588 
L 4275 1075 
L 4788 1056 
Q 5147 1038 5147 1434 
L 5147 4422 
L 3872 4422 
L 3872 -409 
L 3384 -409 
L 3384 4909 
L 5650 4909 
L 5650 1356 
z
" transform="scale(0.015625)"/>
       </defs>
       <use xlink:href="#ArialUnicodeMS-5370"/>
      </g>
     </g>
    </g>
    <g id="xtick_21">
     <g id="line2d_21">
      <path d="M 441.911073 185.015625 
L 441.911073 21.935625 
" clip-path="url(#pd60924cfee)" style="fill: none; stroke: #cccccc; stroke-width: 0.8; stroke-linecap: round"/>
     </g>
     <g id="text_21">
      <!-- 瑞典 -->
      <g style="fill: #262626" transform="translate(444.493886 212.015625)rotate(-90)scale(0.1 -0.1)">
       <defs>
        <path id="ArialUnicodeMS-745e" d="M 5650 3525 
L 2584 3525 
L 2584 4897 
L 3072 4897 
L 3072 3994 
L 3847 3994 
L 3847 5331 
L 4331 5331 
L 4331 3994 
L 5166 3994 
L 5166 4916 
L 5650 4916 
L 5650 3525 
z
M 2463 1038 
Q 1897 850 634 544 
L 397 984 
Q 1000 1109 1228 1178 
L 1228 2669 
L 594 2669 
L 594 3138 
L 1228 3138 
L 1228 4306 
L 453 4306 
L 453 4775 
L 2291 4775 
L 2291 4306 
L 1716 4306 
L 1716 3138 
L 2272 3138 
L 2272 2669 
L 1716 2669 
L 1716 1313 
L 2463 1497 
L 2463 1038 
z
M 6009 2559 
L 4409 2559 
Q 4350 2172 4231 1997 
L 5747 1997 
L 5747 178 
Q 5747 -47 5611 -186 
Q 5475 -325 5259 -325 
L 4838 -325 
L 4697 128 
L 5147 116 
Q 5203 116 5231 166 
Q 5259 216 5259 238 
L 5259 1528 
L 4856 1528 
L 4856 147 
L 4372 147 
L 4372 1528 
L 3963 1528 
L 3963 -44 
L 3475 -44 
L 3475 1528 
L 3072 1528 
L 3072 -434 
L 2584 -434 
L 2584 1997 
L 3669 1997 
Q 3884 2203 3944 2559 
L 2375 2559 
L 2375 3028 
L 6009 3028 
L 6009 2559 
z
" transform="scale(0.015625)"/>
        <path id="ArialUnicodeMS-5178" d="M 5966 1306 
L 506 1306 
L 506 1772 
L 1056 1772 
L 1056 4525 
L 2344 4525 
L 2344 5319 
L 2828 5319 
L 2828 4525 
L 3609 4525 
L 3609 5331 
L 4097 5331 
L 4097 4525 
L 5409 4525 
L 5409 1772 
L 5966 1772 
L 5966 1306 
z
M 4922 3188 
L 4922 4056 
L 4097 4056 
L 4097 3188 
L 4922 3188 
z
M 3609 3188 
L 3609 4056 
L 2828 4056 
L 2828 3188 
L 3609 3188 
z
M 2344 3188 
L 2344 4056 
L 1544 4056 
L 1544 3188 
L 2344 3188 
z
M 4922 1772 
L 4922 2719 
L 4097 2719 
L 4097 1772 
L 4922 1772 
z
M 3609 1772 
L 3609 2719 
L 2828 2719 
L 2828 1772 
L 3609 1772 
z
M 2344 1772 
L 2344 2719 
L 1544 2719 
L 1544 1772 
L 2344 1772 
z
M 2772 844 
Q 2019 -34 709 -453 
L 331 -50 
Q 947 84 1548 428 
Q 2150 772 2438 1172 
L 2772 844 
z
M 6034 -72 
L 5703 -434 
Q 4772 466 3578 806 
L 3916 1153 
Q 4934 916 6034 -72 
z
" transform="scale(0.015625)"/>
       </defs>
       <use xlink:href="#ArialUnicodeMS-745e"/>
       <use xlink:href="#ArialUnicodeMS-5178" x="100"/>
      </g>
     </g>
    </g>
    <g id="xtick_22">
     <g id="line2d_22">
      <path d="M 461.319769 185.015625 
L 461.319769 21.935625 
" clip-path="url(#pd60924cfee)" style="fill: none; stroke: #cccccc; stroke-width: 0.8; stroke-linecap: round"/>
     </g>
     <g id="text_22">
      <!-- 以色列 -->
      <g style="fill: #262626" transform="translate(463.902582 222.015625)rotate(-90)scale(0.1 -0.1)">
       <defs>
        <path id="ArialUnicodeMS-4ee5" d="M 6047 147 
L 5631 -197 
Q 5091 731 4281 1319 
Q 3578 366 2375 -331 
L 2069 122 
Q 2797 494 3337 1031 
Q 3878 1569 4162 2219 
Q 4447 2869 4489 3445 
Q 4531 4022 4531 5131 
L 5056 5131 
L 5031 3744 
Q 5013 2603 4538 1753 
Q 5453 1138 6047 147 
z
M 3284 1797 
Q 2700 1441 738 397 
L 422 844 
L 1222 1253 
L 1222 4922 
L 1741 4922 
L 1741 1528 
L 3284 2363 
L 3284 1797 
z
M 3794 3456 
L 3450 3034 
Q 2956 3678 2100 4044 
L 2438 4397 
Q 3163 4144 3794 3456 
z
" transform="scale(0.015625)"/>
        <path id="ArialUnicodeMS-8272" d="M 6131 1247 
Q 5919 438 5742 164 
Q 5566 -109 5166 -109 
L 1778 -109 
Q 1159 -38 1159 544 
L 1159 3103 
L 691 2731 
L 294 3084 
Q 1650 3913 2322 5363 
L 2772 5166 
Q 2713 5028 2528 4716 
L 4563 4716 
L 4563 4275 
Q 4338 3806 4103 3572 
L 5441 3572 
L 5441 1472 
L 1684 1472 
L 1684 556 
Q 1684 359 1881 359 
L 5159 359 
Q 5394 316 5644 1459 
L 6131 1247 
z
M 4006 4250 
L 2253 4250 
Q 2006 3875 1703 3572 
L 3397 3572 
Q 3763 3838 4006 4250 
z
M 4934 1941 
L 4934 3103 
L 3559 3103 
L 3559 1941 
L 4934 1941 
z
M 3072 1941 
L 3072 3103 
L 1684 3103 
L 1684 1941 
L 3072 1941 
z
" transform="scale(0.015625)"/>
        <path id="ArialUnicodeMS-5217" d="M 5766 109 
Q 5766 -163 5578 -289 
Q 5391 -416 4803 -416 
Q 4669 -416 4513 -409 
L 4319 116 
Q 4822 94 4988 94 
Q 5259 94 5259 288 
L 5259 5325 
L 5766 5325 
L 5766 109 
z
M 4000 4513 
L 2228 4513 
Q 2209 4088 2059 3444 
L 3681 3444 
Q 3594 1809 2800 893 
Q 2006 -22 838 -488 
L 588 -19 
Q 1009 125 1643 520 
Q 2278 916 2278 1066 
Q 2278 1122 2076 1390 
Q 1875 1659 1484 1913 
L 1894 2278 
Q 2272 1969 2613 1516 
Q 2981 2028 3138 2975 
L 1919 2975 
Q 1684 2341 991 1600 
L 531 1863 
Q 1703 3134 1703 4513 
L 703 4513 
L 703 4978 
L 4000 4978 
L 4000 4513 
z
M 4609 916 
L 4103 916 
L 4103 4453 
L 4609 4453 
L 4609 916 
z
" transform="scale(0.015625)"/>
       </defs>
       <use xlink:href="#ArialUnicodeMS-4ee5"/>
       <use xlink:href="#ArialUnicodeMS-8272" x="100"/>
       <use xlink:href="#ArialUnicodeMS-5217" x="200"/>
      </g>
     </g>
    </g>
    <g id="xtick_23">
     <g id="line2d_23">
      <path d="M 480.728465 185.015625 
L 480.728465 21.935625 
" clip-path="url(#pd60924cfee)" style="fill: none; stroke: #cccccc; stroke-width: 0.8; stroke-linecap: round"/>
     </g>
     <g id="text_23">
      <!-- 澳 -->
      <g style="fill: #262626" transform="translate(483.330808 202.015625)rotate(-90)scale(0.1 -0.1)">
       <defs>
        <path id="ArialUnicodeMS-6fb3" d="M 5516 1569 
Q 5281 1556 5031 1569 
L 5031 4397 
L 2328 4397 
L 2328 1588 
L 1825 1588 
L 1825 4863 
L 3103 4863 
Q 3309 4997 3525 5447 
L 3988 5269 
Q 3953 5159 3725 4863 
L 5516 4863 
L 5516 1569 
z
M 1772 4281 
L 1394 3922 
Q 1116 4347 453 4769 
L 794 5113 
Q 1422 4756 1772 4281 
z
M 4978 2094 
L 4672 1766 
Q 4303 2147 3944 2284 
L 3944 1947 
L 3456 1947 
L 3456 2413 
Q 3278 2013 2663 1741 
L 2363 2119 
Q 2863 2275 3103 2681 
L 2431 2688 
L 2431 3091 
L 2906 3091 
Q 2741 3297 2572 3384 
L 2919 3628 
Q 3253 3450 3378 3091 
L 3456 3091 
L 3456 3688 
Q 3159 3650 2625 3634 
L 2375 4072 
Q 2566 4053 2772 4053 
Q 3806 4053 4616 4366 
L 4884 3981 
Q 4491 3825 3944 3750 
L 3944 3091 
L 4013 3091 
Q 4278 3388 4397 3763 
L 4844 3566 
Q 4659 3175 4556 3091 
L 4928 3091 
L 4928 2688 
L 3944 2688 
L 3944 2534 
L 4097 2663 
Q 4497 2538 4978 2094 
z
M 1497 3041 
L 1100 2675 
Q 725 3234 153 3578 
L 481 3916 
Q 1084 3597 1497 3041 
z
M 1528 2175 
Q 1347 588 728 -313 
L 219 -91 
Q 909 916 1056 2322 
L 1528 2175 
z
M 6163 31 
L 5850 -428 
Q 4166 -103 3750 903 
Q 3256 -156 1544 -434 
L 1234 56 
Q 2856 250 3231 978 
L 1491 978 
L 1491 1447 
L 3438 1447 
Q 3497 1597 3525 1906 
L 4019 1819 
Q 4009 1641 3950 1447 
L 5888 1447 
L 5888 978 
L 4244 978 
Q 4653 231 6163 31 
z
" transform="scale(0.015625)"/>
       </defs>
       <use xlink:href="#ArialUnicodeMS-6fb3"/>
      </g>
     </g>
    </g>
    <g id="text_24">
     <!-- Country -->
     <g style="fill: #262626" transform="translate(249.726562 243.295313)scale(0.1 -0.1)">
      <defs>
       <path id="ArialUnicodeMS-43" d="M 4372 1453 
Q 4172 681 3673 301 
Q 3175 -78 2478 -78 
Q 1353 -78 839 626 
Q 325 1331 325 2322 
Q 325 3419 929 4039 
Q 1534 4659 2484 4659 
Q 3153 4659 3628 4318 
Q 4103 3978 4294 3322 
L 3700 3181 
Q 3550 3659 3244 3900 
Q 2938 4141 2478 4141 
Q 1728 4141 1340 3648 
Q 953 3156 953 2328 
Q 953 1372 1361 906 
Q 1769 441 2425 441 
Q 2963 441 3298 731 
Q 3634 1022 3769 1606 
L 4372 1453 
z
" transform="scale(0.015625)"/>
       <path id="ArialUnicodeMS-6f" d="M 1778 3391 
Q 2450 3391 2892 2953 
Q 3334 2516 3334 1709 
Q 3334 731 2856 326 
Q 2378 -78 1778 -78 
Q 1150 -78 687 337 
Q 225 753 225 1656 
Q 225 2531 672 2961 
Q 1119 3391 1778 3391 
z
M 1778 384 
Q 2259 384 2509 740 
Q 2759 1097 2759 1678 
Q 2759 2300 2476 2615 
Q 2194 2931 1778 2931 
Q 1350 2931 1075 2611 
Q 800 2291 800 1656 
Q 800 1025 1079 704 
Q 1359 384 1778 384 
z
" transform="scale(0.015625)"/>
       <path id="ArialUnicodeMS-75" d="M 3116 0 
L 2613 0 
L 2613 488 
L 2597 488 
Q 2216 -78 1556 -78 
Q 1209 -78 914 83 
Q 619 244 520 526 
Q 422 809 422 1259 
L 422 3316 
L 984 3316 
L 984 1478 
Q 984 1038 1026 847 
Q 1069 656 1247 532 
Q 1425 409 1672 409 
Q 1991 409 2272 629 
Q 2553 850 2553 1544 
L 2553 3316 
L 3116 3316 
L 3116 0 
z
" transform="scale(0.015625)"/>
       <path id="ArialUnicodeMS-6e" d="M 3138 0 
L 2572 0 
L 2572 2016 
Q 2572 2525 2389 2715 
Q 2206 2906 1881 2906 
Q 1631 2906 1407 2784 
Q 1184 2663 1090 2441 
Q 997 2219 997 1813 
L 997 0 
L 434 0 
L 434 3316 
L 941 3316 
L 941 2847 
L 953 2847 
Q 1131 3119 1392 3255 
Q 1653 3391 1997 3391 
Q 2259 3391 2515 3297 
Q 2772 3203 2917 3015 
Q 3063 2828 3100 2615 
Q 3138 2403 3138 2041 
L 3138 0 
z
" transform="scale(0.015625)"/>
       <path id="ArialUnicodeMS-74" d="M 1722 6 
Q 1472 -44 1300 -44 
Q 931 -44 762 86 
Q 594 216 556 416 
Q 519 616 519 972 
L 519 2881 
L 109 2881 
L 109 3316 
L 519 3316 
L 519 4141 
L 1081 4481 
L 1081 3316 
L 1644 3316 
L 1644 2881 
L 1081 2881 
L 1081 941 
Q 1081 691 1132 586 
Q 1184 481 1394 481 
Q 1516 481 1644 506 
L 1722 6 
z
" transform="scale(0.015625)"/>
       <path id="ArialUnicodeMS-72" d="M 2216 3213 
L 2022 2694 
Q 1813 2816 1613 2816 
Q 1297 2816 1134 2533 
Q 972 2250 972 1741 
L 972 0 
L 409 0 
L 409 3316 
L 922 3316 
L 922 2816 
L 934 2816 
Q 1203 3391 1638 3391 
Q 1925 3391 2216 3213 
z
" transform="scale(0.015625)"/>
       <path id="ArialUnicodeMS-79" d="M 3150 3316 
L 1881 -56 
Q 1878 -63 1875 -78 
Q 1694 -641 1451 -992 
Q 1209 -1344 763 -1344 
Q 613 -1344 397 -1281 
L 341 -750 
Q 503 -800 659 -800 
Q 972 -800 1092 -628 
Q 1213 -456 1363 -6 
L 103 3316 
L 709 3316 
L 1491 1144 
Q 1559 944 1638 628 
L 1650 628 
Q 1728 991 1850 1319 
L 2578 3316 
L 3150 3316 
z
" transform="scale(0.015625)"/>
      </defs>
      <use xlink:href="#ArialUnicodeMS-43"/>
      <use xlink:href="#ArialUnicodeMS-6f" x="72.216797"/>
      <use xlink:href="#ArialUnicodeMS-75" x="127.832031"/>
      <use xlink:href="#ArialUnicodeMS-6e" x="183.447266"/>
      <use xlink:href="#ArialUnicodeMS-74" x="239.0625"/>
      <use xlink:href="#ArialUnicodeMS-72" x="266.845703"/>
      <use xlink:href="#ArialUnicodeMS-79" x="300.146484"/>
     </g>
    </g>
   </g>
   <g id="matplotlib.axis_2">
    <g id="ytick_1">
     <g id="line2d_24">
      <path d="M 44.032812 185.015625 
L 490.432812 185.015625 
" clip-path="url(#pd60924cfee)" style="fill: none; stroke: #cccccc; stroke-width: 0.8; stroke-linecap: round"/>
     </g>
     <g id="text_25">
      <!-- 0 -->
      <g style="fill: #262626" transform="translate(31.471875 188.594531)scale(0.1 -0.1)">
       <defs>
        <path id="ArialUnicodeMS-30" d="M 1778 4603 
Q 3272 4603 3272 2259 
Q 3272 1075 2886 498 
Q 2500 -78 1778 -78 
Q 288 -78 288 2259 
Q 288 3444 673 4023 
Q 1059 4603 1778 4603 
z
M 1778 384 
Q 2231 384 2462 823 
Q 2694 1263 2694 2259 
Q 2694 2953 2592 3351 
Q 2491 3750 2286 3945 
Q 2081 4141 1772 4141 
Q 1319 4141 1091 3694 
Q 863 3247 863 2259 
Q 863 1575 966 1175 
Q 1069 775 1272 579 
Q 1475 384 1778 384 
z
" transform="scale(0.015625)"/>
       </defs>
       <use xlink:href="#ArialUnicodeMS-30"/>
      </g>
     </g>
    </g>
    <g id="ytick_2">
     <g id="line2d_25">
      <path d="M 44.032812 160.935891 
L 490.432812 160.935891 
" clip-path="url(#pd60924cfee)" style="fill: none; stroke: #cccccc; stroke-width: 0.8; stroke-linecap: round"/>
     </g>
     <g id="text_26">
      <!-- 20 -->
      <g style="fill: #262626" transform="translate(25.910937 164.514797)scale(0.1 -0.1)">
       <defs>
        <path id="ArialUnicodeMS-32" d="M 3231 0 
L 197 0 
Q 197 388 467 784 
Q 738 1181 1478 1778 
Q 1931 2141 2287 2539 
Q 2644 2938 2644 3341 
Q 2644 3688 2398 3914 
Q 2153 4141 1778 4141 
Q 1400 4141 1144 3908 
Q 888 3675 884 3213 
L 306 3278 
Q 359 3922 764 4262 
Q 1169 4603 1791 4603 
Q 2466 4603 2842 4229 
Q 3219 3856 3219 3328 
Q 3219 2888 2901 2436 
Q 2584 1984 1638 1228 
Q 1141 831 978 544 
L 3231 544 
L 3231 0 
z
" transform="scale(0.015625)"/>
       </defs>
       <use xlink:href="#ArialUnicodeMS-32"/>
       <use xlink:href="#ArialUnicodeMS-30" x="55.615234"/>
      </g>
     </g>
    </g>
    <g id="ytick_3">
     <g id="line2d_26">
      <path d="M 44.032812 136.856157 
L 490.432812 136.856157 
" clip-path="url(#pd60924cfee)" style="fill: none; stroke: #cccccc; stroke-width: 0.8; stroke-linecap: round"/>
     </g>
     <g id="text_27">
      <!-- 40 -->
      <g style="fill: #262626" transform="translate(25.910937 140.435063)scale(0.1 -0.1)">
       <defs>
        <path id="ArialUnicodeMS-34" d="M 3263 1094 
L 2644 1094 
L 2644 0 
L 2081 0 
L 2081 1094 
L 97 1094 
L 97 1613 
L 2181 4581 
L 2644 4581 
L 2644 1613 
L 3263 1613 
L 3263 1094 
z
M 2081 1613 
L 2081 3681 
L 2069 3681 
L 647 1613 
L 2081 1613 
z
" transform="scale(0.015625)"/>
       </defs>
       <use xlink:href="#ArialUnicodeMS-34"/>
       <use xlink:href="#ArialUnicodeMS-30" x="55.615234"/>
      </g>
     </g>
    </g>
    <g id="ytick_4">
     <g id="line2d_27">
      <path d="M 44.032812 112.776422 
L 490.432812 112.776422 
" clip-path="url(#pd60924cfee)" style="fill: none; stroke: #cccccc; stroke-width: 0.8; stroke-linecap: round"/>
     </g>
     <g id="text_28">
      <!-- 60 -->
      <g style="fill: #262626" transform="translate(25.910937 116.355329)scale(0.1 -0.1)">
       <defs>
        <path id="ArialUnicodeMS-36" d="M 838 2363 
Q 1225 2969 1941 2969 
Q 2503 2969 2897 2553 
Q 3291 2138 3291 1491 
Q 3291 838 2898 380 
Q 2506 -78 1856 -78 
Q 1197 -78 733 409 
Q 269 897 269 2144 
Q 269 3369 689 3986 
Q 1109 4603 1906 4603 
Q 2422 4603 2778 4315 
Q 3134 4028 3213 3463 
L 2650 3413 
Q 2497 4141 1875 4141 
Q 1444 4141 1134 3712 
Q 825 3284 825 2363 
L 838 2363 
z
M 1844 384 
Q 2231 384 2472 696 
Q 2713 1009 2713 1453 
Q 2713 1897 2472 2187 
Q 2231 2478 1825 2478 
Q 1453 2478 1184 2204 
Q 916 1931 916 1484 
Q 916 1028 1180 706 
Q 1444 384 1844 384 
z
" transform="scale(0.015625)"/>
       </defs>
       <use xlink:href="#ArialUnicodeMS-36"/>
       <use xlink:href="#ArialUnicodeMS-30" x="55.615234"/>
      </g>
     </g>
    </g>
    <g id="ytick_5">
     <g id="line2d_28">
      <path d="M 44.032812 88.696688 
L 490.432812 88.696688 
" clip-path="url(#pd60924cfee)" style="fill: none; stroke: #cccccc; stroke-width: 0.8; stroke-linecap: round"/>
     </g>
     <g id="text_29">
      <!-- 80 -->
      <g style="fill: #262626" transform="translate(25.910937 92.275594)scale(0.1 -0.1)">
       <defs>
        <path id="ArialUnicodeMS-38" d="M 2425 2478 
Q 3284 2203 3284 1306 
Q 3284 716 2862 319 
Q 2441 -78 1778 -78 
Q 1109 -78 689 322 
Q 269 722 269 1325 
Q 269 1759 505 2084 
Q 741 2409 1141 2478 
L 1141 2491 
Q 453 2703 453 3419 
Q 453 3925 815 4264 
Q 1178 4603 1766 4603 
Q 2363 4603 2730 4253 
Q 3097 3903 3097 3406 
Q 3097 2731 2425 2491 
L 2425 2478 
z
M 1778 2700 
Q 2094 2700 2308 2901 
Q 2522 3103 2522 3406 
Q 2522 3716 2305 3928 
Q 2088 4141 1772 4141 
Q 1450 4141 1240 3931 
Q 1031 3722 1031 3438 
Q 1031 3097 1247 2898 
Q 1463 2700 1778 2700 
z
M 1778 384 
Q 2175 384 2440 640 
Q 2706 897 2706 1306 
Q 2706 1716 2432 1978 
Q 2159 2241 1766 2241 
Q 1356 2241 1100 1970 
Q 844 1700 844 1319 
Q 844 922 1108 653 
Q 1372 384 1778 384 
z
" transform="scale(0.015625)"/>
       </defs>
       <use xlink:href="#ArialUnicodeMS-38"/>
       <use xlink:href="#ArialUnicodeMS-30" x="55.615234"/>
      </g>
     </g>
    </g>
    <g id="ytick_6">
     <g id="line2d_29">
      <path d="M 44.032812 64.616954 
L 490.432812 64.616954 
" clip-path="url(#pd60924cfee)" style="fill: none; stroke: #cccccc; stroke-width: 0.8; stroke-linecap: round"/>
     </g>
     <g id="text_30">
      <!-- 100 -->
      <g style="fill: #262626" transform="translate(20.35 68.19586)scale(0.1 -0.1)">
       <defs>
        <path id="ArialUnicodeMS-31" d="M 2400 0 
L 1838 0 
L 1838 3584 
Q 1416 3184 709 2906 
L 709 3450 
Q 1681 3916 2034 4603 
L 2400 4603 
L 2400 0 
z
" transform="scale(0.015625)"/>
       </defs>
       <use xlink:href="#ArialUnicodeMS-31"/>
       <use xlink:href="#ArialUnicodeMS-30" x="55.615234"/>
       <use xlink:href="#ArialUnicodeMS-30" x="111.230469"/>
      </g>
     </g>
    </g>
    <g id="ytick_7">
     <g id="line2d_30">
      <path d="M 44.032812 40.53722 
L 490.432812 40.53722 
" clip-path="url(#pd60924cfee)" style="fill: none; stroke: #cccccc; stroke-width: 0.8; stroke-linecap: round"/>
     </g>
     <g id="text_31">
      <!-- 120 -->
      <g style="fill: #262626" transform="translate(20.35 44.116126)scale(0.1 -0.1)">
       <use xlink:href="#ArialUnicodeMS-31"/>
       <use xlink:href="#ArialUnicodeMS-32" x="55.615234"/>
       <use xlink:href="#ArialUnicodeMS-30" x="111.230469"/>
      </g>
     </g>
    </g>
    <g id="text_32">
     <!-- Count -->
     <g style="fill: #262626" transform="translate(14.357812 116.817031)rotate(-90)scale(0.1 -0.1)">
      <use xlink:href="#ArialUnicodeMS-43"/>
      <use xlink:href="#ArialUnicodeMS-6f" x="72.216797"/>
      <use xlink:href="#ArialUnicodeMS-75" x="127.832031"/>
      <use xlink:href="#ArialUnicodeMS-6e" x="183.447266"/>
      <use xlink:href="#ArialUnicodeMS-74" x="239.0625"/>
     </g>
    </g>
   </g>
   <g id="patch_3">
    <path d="M 48.884986 185.015625 
L 58.589334 185.015625 
L 58.589334 29.701339 
L 48.884986 29.701339 
z
" clip-path="url(#pd60924cfee)" style="fill: #1f77b4; stroke: #ffffff; stroke-linejoin: miter"/>
   </g>
   <g id="patch_4">
    <path d="M 68.293682 185.015625 
L 77.99803 185.015625 
L 77.99803 144.080077 
L 68.293682 144.080077 
z
" clip-path="url(#pd60924cfee)" style="fill: #1f77b4; stroke: #ffffff; stroke-linejoin: miter"/>
   </g>
   <g id="patch_5">
    <path d="M 87.702378 185.015625 
L 97.406726 185.015625 
L 97.406726 154.915957 
L 87.702378 154.915957 
z
" clip-path="url(#pd60924cfee)" style="fill: #1f77b4; stroke: #ffffff; stroke-linejoin: miter"/>
   </g>
   <g id="patch_6">
    <path d="M 107.111073 185.015625 
L 116.815421 185.015625 
L 116.815421 165.751838 
L 107.111073 165.751838 
z
" clip-path="url(#pd60924cfee)" style="fill: #1f77b4; stroke: #ffffff; stroke-linejoin: miter"/>
   </g>
   <g id="patch_7">
    <path d="M 126.519769 185.015625 
L 136.224117 185.015625 
L 136.224117 174.179745 
L 126.519769 174.179745 
z
" clip-path="url(#pd60924cfee)" style="fill: #1f77b4; stroke: #ffffff; stroke-linejoin: miter"/>
   </g>
   <g id="patch_8">
    <path d="M 145.928465 185.015625 
L 155.632812 185.015625 
L 155.632812 177.791705 
L 145.928465 177.791705 
z
" clip-path="url(#pd60924cfee)" style="fill: #1f77b4; stroke: #ffffff; stroke-linejoin: miter"/>
   </g>
   <g id="patch_9">
    <path d="M 165.33716 185.015625 
L 175.041508 185.015625 
L 175.041508 177.791705 
L 165.33716 177.791705 
z
" clip-path="url(#pd60924cfee)" style="fill: #1f77b4; stroke: #ffffff; stroke-linejoin: miter"/>
   </g>
   <g id="patch_10">
    <path d="M 184.745856 185.015625 
L 194.450204 185.015625 
L 194.450204 180.199678 
L 184.745856 180.199678 
z
" clip-path="url(#pd60924cfee)" style="fill: #1f77b4; stroke: #ffffff; stroke-linejoin: miter"/>
   </g>
   <g id="patch_11">
    <path d="M 204.154552 185.015625 
L 213.858899 185.015625 
L 213.858899 181.403665 
L 204.154552 181.403665 
z
" clip-path="url(#pd60924cfee)" style="fill: #1f77b4; stroke: #ffffff; stroke-linejoin: miter"/>
   </g>
   <g id="patch_12">
    <path d="M 223.563247 185.015625 
L 233.267595 185.015625 
L 233.267595 181.403665 
L 223.563247 181.403665 
z
" clip-path="url(#pd60924cfee)" style="fill: #1f77b4; stroke: #ffffff; stroke-linejoin: miter"/>
   </g>
   <g id="patch_13">
    <path d="M 242.971943 185.015625 
L 252.676291 185.015625 
L 252.676291 182.607652 
L 242.971943 182.607652 
z
" clip-path="url(#pd60924cfee)" style="fill: #1f77b4; stroke: #ffffff; stroke-linejoin: miter"/>
   </g>
   <g id="patch_14">
    <path d="M 262.380639 185.015625 
L 272.084986 185.015625 
L 272.084986 182.607652 
L 262.380639 182.607652 
z
" clip-path="url(#pd60924cfee)" style="fill: #1f77b4; stroke: #ffffff; stroke-linejoin: miter"/>
   </g>
   <g id="patch_15">
    <path d="M 281.789334 185.015625 
L 291.493682 185.015625 
L 291.493682 183.811638 
L 281.789334 183.811638 
z
" clip-path="url(#pd60924cfee)" style="fill: #1f77b4; stroke: #ffffff; stroke-linejoin: miter"/>
   </g>
   <g id="patch_16">
    <path d="M 301.19803 185.015625 
L 310.902378 185.015625 
L 310.902378 183.811638 
L 301.19803 183.811638 
z
" clip-path="url(#pd60924cfee)" style="fill: #1f77b4; stroke: #ffffff; stroke-linejoin: miter"/>
   </g>
   <g id="patch_17">
    <path d="M 320.606726 185.015625 
L 330.311073 185.015625 
L 330.311073 183.811638 
L 320.606726 183.811638 
z
" clip-path="url(#pd60924cfee)" style="fill: #1f77b4; stroke: #ffffff; stroke-linejoin: miter"/>
   </g>
   <g id="patch_18">
    <path d="M 340.015421 185.015625 
L 349.719769 185.015625 
L 349.719769 183.811638 
L 340.015421 183.811638 
z
" clip-path="url(#pd60924cfee)" style="fill: #1f77b4; stroke: #ffffff; stroke-linejoin: miter"/>
   </g>
   <g id="patch_19">
    <path d="M 359.424117 185.015625 
L 369.128465 185.015625 
L 369.128465 183.811638 
L 359.424117 183.811638 
z
" clip-path="url(#pd60924cfee)" style="fill: #1f77b4; stroke: #ffffff; stroke-linejoin: miter"/>
   </g>
   <g id="patch_20">
    <path d="M 378.832812 185.015625 
L 388.53716 185.015625 
L 388.53716 183.811638 
L 378.832812 183.811638 
z
" clip-path="url(#pd60924cfee)" style="fill: #1f77b4; stroke: #ffffff; stroke-linejoin: miter"/>
   </g>
   <g id="patch_21">
    <path d="M 398.241508 185.015625 
L 407.945856 185.015625 
L 407.945856 183.811638 
L 398.241508 183.811638 
z
" clip-path="url(#pd60924cfee)" style="fill: #1f77b4; stroke: #ffffff; stroke-linejoin: miter"/>
   </g>
   <g id="patch_22">
    <path d="M 417.650204 185.015625 
L 427.354552 185.015625 
L 427.354552 183.811638 
L 417.650204 183.811638 
z
" clip-path="url(#pd60924cfee)" style="fill: #1f77b4; stroke: #ffffff; stroke-linejoin: miter"/>
   </g>
   <g id="patch_23">
    <path d="M 437.058899 185.015625 
L 446.763247 185.015625 
L 446.763247 183.811638 
L 437.058899 183.811638 
z
" clip-path="url(#pd60924cfee)" style="fill: #1f77b4; stroke: #ffffff; stroke-linejoin: miter"/>
   </g>
   <g id="patch_24">
    <path d="M 456.467595 185.015625 
L 466.171943 185.015625 
L 466.171943 183.811638 
L 456.467595 183.811638 
z
" clip-path="url(#pd60924cfee)" style="fill: #1f77b4; stroke: #ffffff; stroke-linejoin: miter"/>
   </g>
   <g id="patch_25">
    <path d="M 475.876291 185.015625 
L 485.580639 185.015625 
L 485.580639 183.811638 
L 475.876291 183.811638 
z
" clip-path="url(#pd60924cfee)" style="fill: #1f77b4; stroke: #ffffff; stroke-linejoin: miter"/>
   </g>
   <g id="patch_26">
    <path d="M 44.032812 185.015625 
L 44.032812 21.935625 
" style="fill: none; stroke: #cccccc; stroke-width: 0.8; stroke-linejoin: miter; stroke-linecap: square"/>
   </g>
   <g id="patch_27">
    <path d="M 490.432812 185.015625 
L 490.432812 21.935625 
" style="fill: none; stroke: #cccccc; stroke-width: 0.8; stroke-linejoin: miter; stroke-linecap: square"/>
   </g>
   <g id="patch_28">
    <path d="M 44.032812 185.015625 
L 490.432812 185.015625 
" style="fill: none; stroke: #cccccc; stroke-width: 0.8; stroke-linejoin: miter; stroke-linecap: square"/>
   </g>
   <g id="patch_29">
    <path d="M 44.032812 21.935625 
L 490.432812 21.935625 
" style="fill: none; stroke: #cccccc; stroke-width: 0.8; stroke-linejoin: miter; stroke-linecap: square"/>
   </g>
   <g id="text_33">
    <!-- Country Distribution -->
    <g style="fill: #262626" transform="translate(214.548125 15.935625)scale(0.12 -0.12)">
     <defs>
      <path id="ArialUnicodeMS-20" transform="scale(0.015625)"/>
      <path id="ArialUnicodeMS-44" d="M 513 4581 
L 2094 4581 
Q 2509 4581 2809 4539 
Q 3109 4497 3382 4333 
Q 3656 4169 3861 3881 
Q 4066 3594 4183 3220 
Q 4300 2847 4300 2316 
Q 4300 1303 3819 651 
Q 3338 0 2163 0 
L 513 0 
L 513 4581 
z
M 1119 544 
L 2100 544 
Q 2400 544 2636 581 
Q 2872 619 3114 784 
Q 3356 950 3515 1328 
Q 3675 1706 3675 2328 
Q 3675 2672 3614 2970 
Q 3553 3269 3389 3514 
Q 3225 3759 3012 3873 
Q 2800 3988 2598 4013 
Q 2397 4038 2081 4038 
L 1119 4038 
L 1119 544 
z
" transform="scale(0.015625)"/>
      <path id="ArialUnicodeMS-69" d="M 991 0 
L 428 0 
L 428 3316 
L 991 3316 
L 991 0 
z
M 991 3944 
L 428 3944 
L 428 4581 
L 991 4581 
L 991 3944 
z
" transform="scale(0.015625)"/>
      <path id="ArialUnicodeMS-73" d="M 2278 2388 
Q 2241 2659 2058 2795 
Q 1875 2931 1550 2931 
Q 1228 2931 1029 2822 
Q 831 2713 831 2503 
Q 831 2306 989 2222 
Q 1147 2138 1613 2016 
Q 2138 1881 2398 1778 
Q 2659 1675 2804 1489 
Q 2950 1303 2950 972 
Q 2950 528 2587 225 
Q 2225 -78 1619 -78 
Q 988 -78 633 189 
Q 278 456 197 991 
L 756 1075 
Q 800 728 1014 556 
Q 1228 384 1613 384 
Q 1981 384 2178 539 
Q 2375 694 2375 916 
Q 2375 1066 2284 1156 
Q 2194 1247 2058 1292 
Q 1922 1338 1447 1453 
Q 741 1622 514 1862 
Q 288 2103 288 2438 
Q 288 2853 619 3122 
Q 950 3391 1509 3391 
Q 2103 3391 2433 3158 
Q 2763 2925 2828 2463 
L 2278 2388 
z
" transform="scale(0.015625)"/>
      <path id="ArialUnicodeMS-62" d="M 1006 2944 
Q 1319 3391 1900 3391 
Q 2541 3391 2925 2925 
Q 3309 2459 3309 1709 
Q 3309 844 2879 383 
Q 2450 -78 1875 -78 
Q 1291 -78 966 416 
L 953 416 
L 953 0 
L 428 0 
L 428 4581 
L 991 4581 
L 991 2944 
L 1006 2944 
z
M 1831 384 
Q 2222 384 2476 720 
Q 2731 1056 2731 1663 
Q 2731 2247 2497 2589 
Q 2263 2931 1850 2931 
Q 1444 2931 1195 2578 
Q 947 2225 947 1684 
Q 947 1156 1050 932 
Q 1153 709 1361 546 
Q 1569 384 1831 384 
z
" transform="scale(0.015625)"/>
     </defs>
     <use xlink:href="#ArialUnicodeMS-43"/>
     <use xlink:href="#ArialUnicodeMS-6f" x="72.216797"/>
     <use xlink:href="#ArialUnicodeMS-75" x="127.832031"/>
     <use xlink:href="#ArialUnicodeMS-6e" x="183.447266"/>
     <use xlink:href="#ArialUnicodeMS-74" x="239.0625"/>
     <use xlink:href="#ArialUnicodeMS-72" x="266.845703"/>
     <use xlink:href="#ArialUnicodeMS-79" x="300.146484"/>
     <use xlink:href="#ArialUnicodeMS-20" x="350.146484"/>
     <use xlink:href="#ArialUnicodeMS-44" x="377.929688"/>
     <use xlink:href="#ArialUnicodeMS-69" x="450.146484"/>
     <use xlink:href="#ArialUnicodeMS-73" x="472.363281"/>
     <use xlink:href="#ArialUnicodeMS-74" x="522.363281"/>
     <use xlink:href="#ArialUnicodeMS-72" x="550.146484"/>
     <use xlink:href="#ArialUnicodeMS-69" x="583.447266"/>
     <use xlink:href="#ArialUnicodeMS-62" x="605.664062"/>
     <use xlink:href="#ArialUnicodeMS-75" x="661.279297"/>
     <use xlink:href="#ArialUnicodeMS-74" x="716.894531"/>
     <use xlink:href="#ArialUnicodeMS-69" x="744.677734"/>
     <use xlink:href="#ArialUnicodeMS-6f" x="766.894531"/>
     <use xlink:href="#ArialUnicodeMS-6e" x="822.509766"/>
    </g>
   </g>
  </g>
 </g>
 <defs>
  <clipPath id="pd60924cfee">
   <rect x="44.032812" y="21.935625" width="446.4" height="163.08"/>
  </clipPath>
 </defs>
</svg>
