<?xml version="1.0" encoding="utf-8" standalone="no"?>
<!DOCTYPE svg PUBLIC "-//W3C//DTD SVG 1.1//EN"
  "http://www.w3.org/Graphics/SVG/1.1/DTD/svg11.dtd">
<svg xmlns:xlink="http://www.w3.org/1999/xlink" width="341.750741pt" height="221.477187pt" viewBox="0 0 341.750741 221.477187" xmlns="http://www.w3.org/2000/svg" version="1.1">
 <metadata>
  <rdf:RDF xmlns:dc="http://purl.org/dc/elements/1.1/" xmlns:cc="http://creativecommons.org/ns#" xmlns:rdf="http://www.w3.org/1999/02/22-rdf-syntax-ns#">
   <cc:Work>
    <dc:type rdf:resource="http://purl.org/dc/dcmitype/StillImage"/>
    <dc:date>2023-11-22T16:08:14.435385</dc:date>
    <dc:format>image/svg+xml</dc:format>
    <dc:creator>
     <cc:Agent>
      <dc:title>Matplotlib v3.5.1, https://matplotlib.org/</dc:title>
     </cc:Agent>
    </dc:creator>
   </cc:Work>
  </rdf:RDF>
 </metadata>
 <defs>
  <style type="text/css">*{stroke-linejoin: round; stroke-linecap: butt}</style>
 </defs>
 <g id="figure_1">
  <g id="patch_1">
   <path d="M 0 221.477187 
L 341.750741 221.477187 
L 341.750741 0 
L 0 0 
z
" style="fill: #ffffff"/>
  </g>
  <g id="axes_1">
   <g id="patch_2">
    <path d="M 46.91875 184.869375 
L 325.91875 184.869375 
L 325.91875 21.789375 
L 46.91875 21.789375 
z
" style="fill: #ffffff"/>
   </g>
   <g id="matplotlib.axis_1">
    <g id="xtick_1">
     <g id="line2d_1">
      <path d="M 58.3322 184.869375 
L 58.3322 21.789375 
" clip-path="url(#pd8b38a3d16)" style="fill: none; stroke: #cccccc; stroke-width: 0.8; stroke-linecap: round"/>
     </g>
     <g id="text_1">
      <!-- 8.25 -->
      <g style="fill: #262626" transform="translate(48.601731 199.027187)scale(0.1 -0.1)">
       <defs>
        <path id="ArialUnicodeMS-38" d="M 2425 2478 
Q 3284 2203 3284 1306 
Q 3284 716 2862 319 
Q 2441 -78 1778 -78 
Q 1109 -78 689 322 
Q 269 722 269 1325 
Q 269 1759 505 2084 
Q 741 2409 1141 2478 
L 1141 2491 
Q 453 2703 453 3419 
Q 453 3925 815 4264 
Q 1178 4603 1766 4603 
Q 2363 4603 2730 4253 
Q 3097 3903 3097 3406 
Q 3097 2731 2425 2491 
L 2425 2478 
z
M 1778 2700 
Q 2094 2700 2308 2901 
Q 2522 3103 2522 3406 
Q 2522 3716 2305 3928 
Q 2088 4141 1772 4141 
Q 1450 4141 1240 3931 
Q 1031 3722 1031 3438 
Q 1031 3097 1247 2898 
Q 1463 2700 1778 2700 
z
M 1778 384 
Q 2175 384 2440 640 
Q 2706 897 2706 1306 
Q 2706 1716 2432 1978 
Q 2159 2241 1766 2241 
Q 1356 2241 1100 1970 
Q 844 1700 844 1319 
Q 844 922 1108 653 
Q 1372 384 1778 384 
z
" transform="scale(0.015625)"/>
        <path id="ArialUnicodeMS-2e" d="M 1209 0 
L 569 0 
L 569 641 
L 1209 641 
L 1209 0 
z
" transform="scale(0.015625)"/>
        <path id="ArialUnicodeMS-32" d="M 3231 0 
L 197 0 
Q 197 388 467 784 
Q 738 1181 1478 1778 
Q 1931 2141 2287 2539 
Q 2644 2938 2644 3341 
Q 2644 3688 2398 3914 
Q 2153 4141 1778 4141 
Q 1400 4141 1144 3908 
Q 888 3675 884 3213 
L 306 3278 
Q 359 3922 764 4262 
Q 1169 4603 1791 4603 
Q 2466 4603 2842 4229 
Q 3219 3856 3219 3328 
Q 3219 2888 2901 2436 
Q 2584 1984 1638 1228 
Q 1141 831 978 544 
L 3231 544 
L 3231 0 
z
" transform="scale(0.015625)"/>
        <path id="ArialUnicodeMS-35" d="M 1013 2753 
Q 1431 3041 1881 3041 
Q 2453 3041 2878 2636 
Q 3303 2231 3303 1556 
Q 3303 875 2872 398 
Q 2441 -78 1741 -78 
Q 1169 -78 750 245 
Q 331 569 269 1203 
L 856 1247 
Q 928 813 1162 598 
Q 1397 384 1741 384 
Q 2169 384 2434 707 
Q 2700 1031 2700 1503 
Q 2700 1984 2428 2262 
Q 2156 2541 1728 2541 
Q 1188 2541 897 2100 
L 366 2163 
L 813 4519 
L 3084 4519 
L 3084 3975 
L 1259 3975 
L 1013 2753 
z
" transform="scale(0.015625)"/>
       </defs>
       <use xlink:href="#ArialUnicodeMS-38"/>
       <use xlink:href="#ArialUnicodeMS-2e" x="55.615234"/>
       <use xlink:href="#ArialUnicodeMS-32" x="83.398438"/>
       <use xlink:href="#ArialUnicodeMS-35" x="139.013672"/>
      </g>
     </g>
    </g>
    <g id="xtick_2">
     <g id="line2d_2">
      <path d="M 96.004714 184.869375 
L 96.004714 21.789375 
" clip-path="url(#pd8b38a3d16)" style="fill: none; stroke: #cccccc; stroke-width: 0.8; stroke-linecap: round"/>
     </g>
     <g id="text_2">
      <!-- 8.50 -->
      <g style="fill: #262626" transform="translate(86.274246 199.027187)scale(0.1 -0.1)">
       <defs>
        <path id="ArialUnicodeMS-30" d="M 1778 4603 
Q 3272 4603 3272 2259 
Q 3272 1075 2886 498 
Q 2500 -78 1778 -78 
Q 288 -78 288 2259 
Q 288 3444 673 4023 
Q 1059 4603 1778 4603 
z
M 1778 384 
Q 2231 384 2462 823 
Q 2694 1263 2694 2259 
Q 2694 2953 2592 3351 
Q 2491 3750 2286 3945 
Q 2081 4141 1772 4141 
Q 1319 4141 1091 3694 
Q 863 3247 863 2259 
Q 863 1575 966 1175 
Q 1069 775 1272 579 
Q 1475 384 1778 384 
z
" transform="scale(0.015625)"/>
       </defs>
       <use xlink:href="#ArialUnicodeMS-38"/>
       <use xlink:href="#ArialUnicodeMS-2e" x="55.615234"/>
       <use xlink:href="#ArialUnicodeMS-35" x="83.398438"/>
       <use xlink:href="#ArialUnicodeMS-30" x="139.013672"/>
      </g>
     </g>
    </g>
    <g id="xtick_3">
     <g id="line2d_3">
      <path d="M 133.677229 184.869375 
L 133.677229 21.789375 
" clip-path="url(#pd8b38a3d16)" style="fill: none; stroke: #cccccc; stroke-width: 0.8; stroke-linecap: round"/>
     </g>
     <g id="text_3">
      <!-- 8.75 -->
      <g style="fill: #262626" transform="translate(123.946761 199.027187)scale(0.1 -0.1)">
       <defs>
        <path id="ArialUnicodeMS-37" d="M 3272 4084 
Q 2597 3344 2103 2253 
Q 1609 1163 1522 0 
L 947 0 
Q 969 934 1408 2051 
Q 1847 3169 2547 3975 
L 306 3975 
L 306 4519 
L 3272 4519 
L 3272 4084 
z
" transform="scale(0.015625)"/>
       </defs>
       <use xlink:href="#ArialUnicodeMS-38"/>
       <use xlink:href="#ArialUnicodeMS-2e" x="55.615234"/>
       <use xlink:href="#ArialUnicodeMS-37" x="83.398438"/>
       <use xlink:href="#ArialUnicodeMS-35" x="139.013672"/>
      </g>
     </g>
    </g>
    <g id="xtick_4">
     <g id="line2d_4">
      <path d="M 171.349744 184.869375 
L 171.349744 21.789375 
" clip-path="url(#pd8b38a3d16)" style="fill: none; stroke: #cccccc; stroke-width: 0.8; stroke-linecap: round"/>
     </g>
     <g id="text_4">
      <!-- 9.00 -->
      <g style="fill: #262626" transform="translate(161.619275 199.027187)scale(0.1 -0.1)">
       <defs>
        <path id="ArialUnicodeMS-39" d="M 2713 2156 
Q 2547 1888 2258 1722 
Q 1969 1556 1631 1556 
Q 1066 1556 670 1970 
Q 275 2384 275 3053 
Q 275 3734 678 4168 
Q 1081 4603 1716 4603 
Q 2353 4603 2818 4106 
Q 3284 3609 3284 2388 
Q 3284 1147 2859 534 
Q 2434 -78 1644 -78 
Q 1128 -78 781 205 
Q 434 488 359 1063 
L 897 1106 
Q 1025 384 1656 384 
Q 2175 384 2450 857 
Q 2725 1331 2725 2156 
L 2713 2156 
z
M 1766 2047 
Q 2178 2047 2420 2339 
Q 2663 2631 2663 3078 
Q 2663 3531 2414 3836 
Q 2166 4141 1778 4141 
Q 1388 4141 1119 3817 
Q 850 3494 850 3034 
Q 850 2600 1114 2323 
Q 1378 2047 1766 2047 
z
" transform="scale(0.015625)"/>
       </defs>
       <use xlink:href="#ArialUnicodeMS-39"/>
       <use xlink:href="#ArialUnicodeMS-2e" x="55.615234"/>
       <use xlink:href="#ArialUnicodeMS-30" x="83.398438"/>
       <use xlink:href="#ArialUnicodeMS-30" x="139.013672"/>
      </g>
     </g>
    </g>
    <g id="xtick_5">
     <g id="line2d_5">
      <path d="M 209.022259 184.869375 
L 209.022259 21.789375 
" clip-path="url(#pd8b38a3d16)" style="fill: none; stroke: #cccccc; stroke-width: 0.8; stroke-linecap: round"/>
     </g>
     <g id="text_5">
      <!-- 9.25 -->
      <g style="fill: #262626" transform="translate(199.29179 199.027187)scale(0.1 -0.1)">
       <use xlink:href="#ArialUnicodeMS-39"/>
       <use xlink:href="#ArialUnicodeMS-2e" x="55.615234"/>
       <use xlink:href="#ArialUnicodeMS-32" x="83.398438"/>
       <use xlink:href="#ArialUnicodeMS-35" x="139.013672"/>
      </g>
     </g>
    </g>
    <g id="xtick_6">
     <g id="line2d_6">
      <path d="M 246.694774 184.869375 
L 246.694774 21.789375 
" clip-path="url(#pd8b38a3d16)" style="fill: none; stroke: #cccccc; stroke-width: 0.8; stroke-linecap: round"/>
     </g>
     <g id="text_6">
      <!-- 9.50 -->
      <g style="fill: #262626" transform="translate(236.964305 199.027187)scale(0.1 -0.1)">
       <use xlink:href="#ArialUnicodeMS-39"/>
       <use xlink:href="#ArialUnicodeMS-2e" x="55.615234"/>
       <use xlink:href="#ArialUnicodeMS-35" x="83.398438"/>
       <use xlink:href="#ArialUnicodeMS-30" x="139.013672"/>
      </g>
     </g>
    </g>
    <g id="xtick_7">
     <g id="line2d_7">
      <path d="M 284.367289 184.869375 
L 284.367289 21.789375 
" clip-path="url(#pd8b38a3d16)" style="fill: none; stroke: #cccccc; stroke-width: 0.8; stroke-linecap: round"/>
     </g>
     <g id="text_7">
      <!-- 9.75 -->
      <g style="fill: #262626" transform="translate(274.63682 199.027187)scale(0.1 -0.1)">
       <use xlink:href="#ArialUnicodeMS-39"/>
       <use xlink:href="#ArialUnicodeMS-2e" x="55.615234"/>
       <use xlink:href="#ArialUnicodeMS-37" x="83.398438"/>
       <use xlink:href="#ArialUnicodeMS-35" x="139.013672"/>
      </g>
     </g>
    </g>
    <g id="xtick_8">
     <g id="line2d_8">
      <path d="M 322.039803 184.869375 
L 322.039803 21.789375 
" clip-path="url(#pd8b38a3d16)" style="fill: none; stroke: #cccccc; stroke-width: 0.8; stroke-linecap: round"/>
     </g>
     <g id="text_8">
      <!-- 10.00 -->
      <g style="fill: #262626" transform="translate(309.528866 199.027187)scale(0.1 -0.1)">
       <defs>
        <path id="ArialUnicodeMS-31" d="M 2400 0 
L 1838 0 
L 1838 3584 
Q 1416 3184 709 2906 
L 709 3450 
Q 1681 3916 2034 4603 
L 2400 4603 
L 2400 0 
z
" transform="scale(0.015625)"/>
       </defs>
       <use xlink:href="#ArialUnicodeMS-31"/>
       <use xlink:href="#ArialUnicodeMS-30" x="55.615234"/>
       <use xlink:href="#ArialUnicodeMS-2e" x="111.230469"/>
       <use xlink:href="#ArialUnicodeMS-30" x="139.013672"/>
       <use xlink:href="#ArialUnicodeMS-30" x="194.628906"/>
      </g>
     </g>
    </g>
    <g id="text_9">
     <!-- Rating -->
     <g style="fill: #262626" transform="translate(171.966406 212.177187)scale(0.1 -0.1)">
      <defs>
       <path id="ArialUnicodeMS-52" d="M 4550 0 
L 3788 0 
Q 3103 1081 2937 1328 
Q 2772 1575 2589 1751 
Q 2406 1928 2245 1975 
Q 2084 2022 1819 2022 
L 1119 2022 
L 1119 0 
L 513 0 
L 513 4581 
L 2541 4581 
Q 2956 4581 3237 4528 
Q 3519 4475 3731 4304 
Q 3944 4134 4058 3875 
Q 4172 3616 4172 3328 
Q 4172 2809 3844 2493 
Q 3516 2178 2888 2094 
L 2888 2081 
Q 3347 1878 3750 1247 
L 4550 0 
z
M 1119 2566 
L 2419 2566 
Q 2813 2566 3042 2633 
Q 3272 2700 3409 2894 
Q 3547 3088 3547 3328 
Q 3547 3641 3319 3859 
Q 3091 4078 2566 4078 
L 1119 4078 
L 1119 2566 
z
" transform="scale(0.015625)"/>
       <path id="ArialUnicodeMS-61" d="M 3303 0 
L 2713 0 
Q 2631 156 2597 409 
Q 2031 -78 1375 -78 
Q 850 -78 547 184 
Q 244 447 244 878 
Q 244 1291 536 1558 
Q 828 1825 1550 1913 
L 2075 1991 
Q 2369 2038 2559 2106 
Q 2559 2359 2543 2464 
Q 2528 2569 2451 2681 
Q 2375 2794 2206 2862 
Q 2038 2931 1753 2931 
Q 1391 2931 1180 2797 
Q 969 2663 891 2297 
L 341 2369 
Q 431 2878 806 3134 
Q 1181 3391 1838 3391 
Q 2434 3391 2714 3214 
Q 2994 3038 3058 2788 
Q 3122 2538 3122 2144 
L 3122 1388 
Q 3122 697 3148 461 
Q 3175 225 3303 0 
z
M 2559 1459 
L 2559 1663 
Q 2119 1516 1481 1430 
Q 844 1344 844 891 
Q 844 663 1016 514 
Q 1188 366 1509 366 
Q 1925 366 2242 614 
Q 2559 863 2559 1459 
z
" transform="scale(0.015625)"/>
       <path id="ArialUnicodeMS-74" d="M 1722 6 
Q 1472 -44 1300 -44 
Q 931 -44 762 86 
Q 594 216 556 416 
Q 519 616 519 972 
L 519 2881 
L 109 2881 
L 109 3316 
L 519 3316 
L 519 4141 
L 1081 4481 
L 1081 3316 
L 1644 3316 
L 1644 2881 
L 1081 2881 
L 1081 941 
Q 1081 691 1132 586 
Q 1184 481 1394 481 
Q 1516 481 1644 506 
L 1722 6 
z
" transform="scale(0.015625)"/>
       <path id="ArialUnicodeMS-69" d="M 991 0 
L 428 0 
L 428 3316 
L 991 3316 
L 991 0 
z
M 991 3944 
L 428 3944 
L 428 4581 
L 991 4581 
L 991 3944 
z
" transform="scale(0.015625)"/>
       <path id="ArialUnicodeMS-6e" d="M 3138 0 
L 2572 0 
L 2572 2016 
Q 2572 2525 2389 2715 
Q 2206 2906 1881 2906 
Q 1631 2906 1407 2784 
Q 1184 2663 1090 2441 
Q 997 2219 997 1813 
L 997 0 
L 434 0 
L 434 3316 
L 941 3316 
L 941 2847 
L 953 2847 
Q 1131 3119 1392 3255 
Q 1653 3391 1997 3391 
Q 2259 3391 2515 3297 
Q 2772 3203 2917 3015 
Q 3063 2828 3100 2615 
Q 3138 2403 3138 2041 
L 3138 0 
z
" transform="scale(0.015625)"/>
       <path id="ArialUnicodeMS-67" d="M 3144 447 
Q 3144 -259 3003 -607 
Q 2863 -956 2503 -1150 
Q 2144 -1344 1644 -1344 
Q 1081 -1344 706 -1094 
Q 331 -844 331 -275 
L 878 -359 
Q 909 -622 1098 -753 
Q 1288 -884 1638 -884 
Q 2075 -884 2278 -706 
Q 2481 -528 2526 -272 
Q 2572 -16 2572 434 
Q 2206 0 1650 0 
Q 1003 0 611 478 
Q 219 956 219 1684 
Q 219 2416 600 2903 
Q 981 3391 1656 3391 
Q 2244 3391 2613 2919 
L 2625 2919 
L 2625 3316 
L 3144 3316 
L 3144 447 
z
M 1703 459 
Q 2063 459 2341 745 
Q 2619 1031 2619 1703 
Q 2619 2297 2353 2614 
Q 2088 2931 1697 2931 
Q 1297 2931 1045 2606 
Q 794 2281 794 1716 
Q 794 1063 1058 761 
Q 1322 459 1703 459 
z
" transform="scale(0.015625)"/>
      </defs>
      <use xlink:href="#ArialUnicodeMS-52"/>
      <use xlink:href="#ArialUnicodeMS-61" x="72.216797"/>
      <use xlink:href="#ArialUnicodeMS-74" x="127.832031"/>
      <use xlink:href="#ArialUnicodeMS-69" x="155.615234"/>
      <use xlink:href="#ArialUnicodeMS-6e" x="177.832031"/>
      <use xlink:href="#ArialUnicodeMS-67" x="233.447266"/>
     </g>
    </g>
   </g>
   <g id="matplotlib.axis_2">
    <g id="ytick_1">
     <g id="line2d_9">
      <path d="M 46.91875 184.869375 
L 325.91875 184.869375 
" clip-path="url(#pd8b38a3d16)" style="fill: none; stroke: #cccccc; stroke-width: 0.8; stroke-linecap: round"/>
     </g>
     <g id="text_10">
      <!-- 0.00 -->
      <g style="fill: #262626" transform="translate(20.457813 188.448281)scale(0.1 -0.1)">
       <use xlink:href="#ArialUnicodeMS-30"/>
       <use xlink:href="#ArialUnicodeMS-2e" x="55.615234"/>
       <use xlink:href="#ArialUnicodeMS-30" x="83.398438"/>
       <use xlink:href="#ArialUnicodeMS-30" x="139.013672"/>
      </g>
     </g>
    </g>
    <g id="ytick_2">
     <g id="line2d_10">
      <path d="M 46.91875 161.193216 
L 325.91875 161.193216 
" clip-path="url(#pd8b38a3d16)" style="fill: none; stroke: #cccccc; stroke-width: 0.8; stroke-linecap: round"/>
     </g>
     <g id="text_11">
      <!-- 0.25 -->
      <g style="fill: #262626" transform="translate(20.457813 164.772122)scale(0.1 -0.1)">
       <use xlink:href="#ArialUnicodeMS-30"/>
       <use xlink:href="#ArialUnicodeMS-2e" x="55.615234"/>
       <use xlink:href="#ArialUnicodeMS-32" x="83.398438"/>
       <use xlink:href="#ArialUnicodeMS-35" x="139.013672"/>
      </g>
     </g>
    </g>
    <g id="ytick_3">
     <g id="line2d_11">
      <path d="M 46.91875 137.517056 
L 325.91875 137.517056 
" clip-path="url(#pd8b38a3d16)" style="fill: none; stroke: #cccccc; stroke-width: 0.8; stroke-linecap: round"/>
     </g>
     <g id="text_12">
      <!-- 0.50 -->
      <g style="fill: #262626" transform="translate(20.457813 141.095963)scale(0.1 -0.1)">
       <use xlink:href="#ArialUnicodeMS-30"/>
       <use xlink:href="#ArialUnicodeMS-2e" x="55.615234"/>
       <use xlink:href="#ArialUnicodeMS-35" x="83.398438"/>
       <use xlink:href="#ArialUnicodeMS-30" x="139.013672"/>
      </g>
     </g>
    </g>
    <g id="ytick_4">
     <g id="line2d_12">
      <path d="M 46.91875 113.840897 
L 325.91875 113.840897 
" clip-path="url(#pd8b38a3d16)" style="fill: none; stroke: #cccccc; stroke-width: 0.8; stroke-linecap: round"/>
     </g>
     <g id="text_13">
      <!-- 0.75 -->
      <g style="fill: #262626" transform="translate(20.457813 117.419803)scale(0.1 -0.1)">
       <use xlink:href="#ArialUnicodeMS-30"/>
       <use xlink:href="#ArialUnicodeMS-2e" x="55.615234"/>
       <use xlink:href="#ArialUnicodeMS-37" x="83.398438"/>
       <use xlink:href="#ArialUnicodeMS-35" x="139.013672"/>
      </g>
     </g>
    </g>
    <g id="ytick_5">
     <g id="line2d_13">
      <path d="M 46.91875 90.164738 
L 325.91875 90.164738 
" clip-path="url(#pd8b38a3d16)" style="fill: none; stroke: #cccccc; stroke-width: 0.8; stroke-linecap: round"/>
     </g>
     <g id="text_14">
      <!-- 1.00 -->
      <g style="fill: #262626" transform="translate(20.457813 93.743644)scale(0.1 -0.1)">
       <use xlink:href="#ArialUnicodeMS-31"/>
       <use xlink:href="#ArialUnicodeMS-2e" x="55.615234"/>
       <use xlink:href="#ArialUnicodeMS-30" x="83.398438"/>
       <use xlink:href="#ArialUnicodeMS-30" x="139.013672"/>
      </g>
     </g>
    </g>
    <g id="ytick_6">
     <g id="line2d_14">
      <path d="M 46.91875 66.488579 
L 325.91875 66.488579 
" clip-path="url(#pd8b38a3d16)" style="fill: none; stroke: #cccccc; stroke-width: 0.8; stroke-linecap: round"/>
     </g>
     <g id="text_15">
      <!-- 1.25 -->
      <g style="fill: #262626" transform="translate(20.457813 70.067485)scale(0.1 -0.1)">
       <use xlink:href="#ArialUnicodeMS-31"/>
       <use xlink:href="#ArialUnicodeMS-2e" x="55.615234"/>
       <use xlink:href="#ArialUnicodeMS-32" x="83.398438"/>
       <use xlink:href="#ArialUnicodeMS-35" x="139.013672"/>
      </g>
     </g>
    </g>
    <g id="ytick_7">
     <g id="line2d_15">
      <path d="M 46.91875 42.812419 
L 325.91875 42.812419 
" clip-path="url(#pd8b38a3d16)" style="fill: none; stroke: #cccccc; stroke-width: 0.8; stroke-linecap: round"/>
     </g>
     <g id="text_16">
      <!-- 1.50 -->
      <g style="fill: #262626" transform="translate(20.457813 46.391326)scale(0.1 -0.1)">
       <use xlink:href="#ArialUnicodeMS-31"/>
       <use xlink:href="#ArialUnicodeMS-2e" x="55.615234"/>
       <use xlink:href="#ArialUnicodeMS-35" x="83.398438"/>
       <use xlink:href="#ArialUnicodeMS-30" x="139.013672"/>
      </g>
     </g>
    </g>
    <g id="text_17">
     <!-- Density -->
     <g style="fill: #262626" transform="translate(14.357813 120.00125)rotate(-90)scale(0.1 -0.1)">
      <defs>
       <path id="ArialUnicodeMS-44" d="M 513 4581 
L 2094 4581 
Q 2509 4581 2809 4539 
Q 3109 4497 3382 4333 
Q 3656 4169 3861 3881 
Q 4066 3594 4183 3220 
Q 4300 2847 4300 2316 
Q 4300 1303 3819 651 
Q 3338 0 2163 0 
L 513 0 
L 513 4581 
z
M 1119 544 
L 2100 544 
Q 2400 544 2636 581 
Q 2872 619 3114 784 
Q 3356 950 3515 1328 
Q 3675 1706 3675 2328 
Q 3675 2672 3614 2970 
Q 3553 3269 3389 3514 
Q 3225 3759 3012 3873 
Q 2800 3988 2598 4013 
Q 2397 4038 2081 4038 
L 1119 4038 
L 1119 544 
z
" transform="scale(0.015625)"/>
       <path id="ArialUnicodeMS-65" d="M 3309 1516 
L 825 1516 
Q 859 966 1139 675 
Q 1419 384 1838 384 
Q 2159 384 2378 554 
Q 2597 725 2713 1069 
L 3291 997 
Q 3150 478 2775 200 
Q 2400 -78 1838 -78 
Q 1091 -78 670 380 
Q 250 838 250 1631 
Q 250 2416 658 2903 
Q 1066 3391 1806 3391 
Q 2169 3391 2505 3231 
Q 2841 3072 3075 2689 
Q 3309 2306 3309 1516 
z
M 2731 1978 
Q 2697 2484 2417 2707 
Q 2138 2931 1806 2931 
Q 1409 2931 1153 2665 
Q 897 2400 856 1978 
L 2731 1978 
z
" transform="scale(0.015625)"/>
       <path id="ArialUnicodeMS-73" d="M 2278 2388 
Q 2241 2659 2058 2795 
Q 1875 2931 1550 2931 
Q 1228 2931 1029 2822 
Q 831 2713 831 2503 
Q 831 2306 989 2222 
Q 1147 2138 1613 2016 
Q 2138 1881 2398 1778 
Q 2659 1675 2804 1489 
Q 2950 1303 2950 972 
Q 2950 528 2587 225 
Q 2225 -78 1619 -78 
Q 988 -78 633 189 
Q 278 456 197 991 
L 756 1075 
Q 800 728 1014 556 
Q 1228 384 1613 384 
Q 1981 384 2178 539 
Q 2375 694 2375 916 
Q 2375 1066 2284 1156 
Q 2194 1247 2058 1292 
Q 1922 1338 1447 1453 
Q 741 1622 514 1862 
Q 288 2103 288 2438 
Q 288 2853 619 3122 
Q 950 3391 1509 3391 
Q 2103 3391 2433 3158 
Q 2763 2925 2828 2463 
L 2278 2388 
z
" transform="scale(0.015625)"/>
       <path id="ArialUnicodeMS-79" d="M 3150 3316 
L 1881 -56 
Q 1878 -63 1875 -78 
Q 1694 -641 1451 -992 
Q 1209 -1344 763 -1344 
Q 613 -1344 397 -1281 
L 341 -750 
Q 503 -800 659 -800 
Q 972 -800 1092 -628 
Q 1213 -456 1363 -6 
L 103 3316 
L 709 3316 
L 1491 1144 
Q 1559 944 1638 628 
L 1650 628 
Q 1728 991 1850 1319 
L 2578 3316 
L 3150 3316 
z
" transform="scale(0.015625)"/>
      </defs>
      <use xlink:href="#ArialUnicodeMS-44"/>
      <use xlink:href="#ArialUnicodeMS-65" x="72.216797"/>
      <use xlink:href="#ArialUnicodeMS-6e" x="127.832031"/>
      <use xlink:href="#ArialUnicodeMS-73" x="183.447266"/>
      <use xlink:href="#ArialUnicodeMS-69" x="233.447266"/>
      <use xlink:href="#ArialUnicodeMS-74" x="255.664062"/>
      <use xlink:href="#ArialUnicodeMS-79" x="283.447266"/>
     </g>
    </g>
   </g>
   <g id="PolyCollection_1">
    <defs>
     <path id="m6a8e84dcaa" d="M 59.600568 -36.630301 
L 59.600568 -36.607813 
L 60.875123 -36.607813 
L 62.149677 -36.607813 
L 63.424232 -36.607813 
L 64.698787 -36.607813 
L 65.973341 -36.607813 
L 67.247896 -36.607813 
L 68.52245 -36.607813 
L 69.797005 -36.607813 
L 71.07156 -36.607813 
L 72.346114 -36.607813 
L 73.620669 -36.607813 
L 74.895223 -36.607813 
L 76.169778 -36.607813 
L 77.444332 -36.607813 
L 78.718887 -36.607813 
L 79.993442 -36.607813 
L 81.267996 -36.607813 
L 82.542551 -36.607813 
L 83.817105 -36.607813 
L 85.09166 -36.607813 
L 86.366215 -36.607813 
L 87.640769 -36.607813 
L 88.915324 -36.607813 
L 90.189878 -36.607813 
L 91.464433 -36.607813 
L 92.738988 -36.607813 
L 94.013542 -36.607813 
L 95.288097 -36.607813 
L 96.562651 -36.607813 
L 97.837206 -36.607813 
L 99.111761 -36.607813 
L 100.386315 -36.607813 
L 101.66087 -36.607813 
L 102.935424 -36.607813 
L 104.209979 -36.607813 
L 105.484533 -36.607813 
L 106.759088 -36.607813 
L 108.033643 -36.607813 
L 109.308197 -36.607813 
L 110.582752 -36.607813 
L 111.857306 -36.607813 
L 113.131861 -36.607813 
L 114.406416 -36.607813 
L 115.68097 -36.607813 
L 116.955525 -36.607813 
L 118.230079 -36.607813 
L 119.504634 -36.607813 
L 120.779189 -36.607813 
L 122.053743 -36.607813 
L 123.328298 -36.607813 
L 124.602852 -36.607813 
L 125.877407 -36.607813 
L 127.151962 -36.607813 
L 128.426516 -36.607813 
L 129.701071 -36.607813 
L 130.975625 -36.607813 
L 132.25018 -36.607813 
L 133.524734 -36.607813 
L 134.799289 -36.607813 
L 136.073844 -36.607813 
L 137.348398 -36.607813 
L 138.622953 -36.607813 
L 139.897507 -36.607813 
L 141.172062 -36.607813 
L 142.446617 -36.607813 
L 143.721171 -36.607813 
L 144.995726 -36.607813 
L 146.27028 -36.607813 
L 147.544835 -36.607813 
L 148.81939 -36.607813 
L 150.093944 -36.607813 
L 151.368499 -36.607813 
L 152.643053 -36.607813 
L 153.917608 -36.607813 
L 155.192163 -36.607813 
L 156.466717 -36.607813 
L 157.741272 -36.607813 
L 159.015826 -36.607813 
L 160.290381 -36.607813 
L 161.564935 -36.607813 
L 162.83949 -36.607813 
L 164.114045 -36.607813 
L 165.388599 -36.607813 
L 166.663154 -36.607813 
L 167.937708 -36.607813 
L 169.212263 -36.607813 
L 170.486818 -36.607813 
L 171.761372 -36.607813 
L 173.035927 -36.607813 
L 174.310481 -36.607813 
L 175.585036 -36.607813 
L 176.859591 -36.607813 
L 178.134145 -36.607813 
L 179.4087 -36.607813 
L 180.683254 -36.607813 
L 181.957809 -36.607813 
L 183.232364 -36.607813 
L 184.506918 -36.607813 
L 185.781473 -36.607813 
L 187.056027 -36.607813 
L 188.330582 -36.607813 
L 189.605136 -36.607813 
L 190.879691 -36.607813 
L 192.154246 -36.607813 
L 193.4288 -36.607813 
L 194.703355 -36.607813 
L 195.977909 -36.607813 
L 197.252464 -36.607813 
L 198.527019 -36.607813 
L 199.801573 -36.607813 
L 201.076128 -36.607813 
L 202.350682 -36.607813 
L 203.625237 -36.607813 
L 204.899792 -36.607813 
L 206.174346 -36.607813 
L 207.448901 -36.607813 
L 208.723455 -36.607813 
L 209.99801 -36.607813 
L 211.272565 -36.607813 
L 212.547119 -36.607813 
L 213.821674 -36.607813 
L 215.096228 -36.607813 
L 216.370783 -36.607813 
L 217.645337 -36.607813 
L 218.919892 -36.607813 
L 220.194447 -36.607813 
L 221.469001 -36.607813 
L 222.743556 -36.607813 
L 224.01811 -36.607813 
L 225.292665 -36.607813 
L 226.56722 -36.607813 
L 227.841774 -36.607813 
L 229.116329 -36.607813 
L 230.390883 -36.607813 
L 231.665438 -36.607813 
L 232.939993 -36.607813 
L 234.214547 -36.607813 
L 235.489102 -36.607813 
L 236.763656 -36.607813 
L 238.038211 -36.607813 
L 239.312766 -36.607813 
L 240.58732 -36.607813 
L 241.861875 -36.607813 
L 243.136429 -36.607813 
L 244.410984 -36.607813 
L 245.685538 -36.607813 
L 246.960093 -36.607813 
L 248.234648 -36.607813 
L 249.509202 -36.607813 
L 250.783757 -36.607813 
L 252.058311 -36.607813 
L 253.332866 -36.607813 
L 254.607421 -36.607813 
L 255.881975 -36.607813 
L 257.15653 -36.607813 
L 258.431084 -36.607813 
L 259.705639 -36.607813 
L 260.980194 -36.607813 
L 262.254748 -36.607813 
L 263.529303 -36.607813 
L 264.803857 -36.607813 
L 266.078412 -36.607813 
L 267.352967 -36.607813 
L 268.627521 -36.607813 
L 269.902076 -36.607813 
L 271.17663 -36.607813 
L 272.451185 -36.607813 
L 273.725739 -36.607813 
L 275.000294 -36.607813 
L 276.274849 -36.607813 
L 277.549403 -36.607813 
L 278.823958 -36.607813 
L 280.098512 -36.607813 
L 281.373067 -36.607813 
L 282.647622 -36.607813 
L 283.922176 -36.607813 
L 285.196731 -36.607813 
L 286.471285 -36.607813 
L 287.74584 -36.607813 
L 289.020395 -36.607813 
L 290.294949 -36.607813 
L 291.569504 -36.607813 
L 292.844058 -36.607813 
L 294.118613 -36.607813 
L 295.393168 -36.607813 
L 296.667722 -36.607813 
L 297.942277 -36.607813 
L 299.216831 -36.607813 
L 300.491386 -36.607813 
L 301.76594 -36.607813 
L 303.040495 -36.607813 
L 304.31505 -36.607813 
L 305.589604 -36.607813 
L 306.864159 -36.607813 
L 308.138713 -36.607813 
L 309.413268 -36.607813 
L 310.687823 -36.607813 
L 311.962377 -36.607813 
L 313.236932 -36.607813 
L 313.236932 -36.650446 
L 313.236932 -36.650446 
L 311.962377 -36.666095 
L 310.687823 -36.686649 
L 309.413268 -36.713331 
L 308.138713 -36.747572 
L 306.864159 -36.791007 
L 305.589604 -36.845475 
L 304.31505 -36.913001 
L 303.040495 -36.995768 
L 301.76594 -37.096077 
L 300.491386 -37.216292 
L 299.216831 -37.358784 
L 297.942277 -37.525854 
L 296.667722 -37.719666 
L 295.393168 -37.942174 
L 294.118613 -38.195064 
L 292.844058 -38.479706 
L 291.569504 -38.797131 
L 290.294949 -39.148032 
L 289.020395 -39.5328 
L 287.74584 -39.951582 
L 286.471285 -40.404376 
L 285.196731 -40.891151 
L 283.922176 -41.411979 
L 282.647622 -41.967185 
L 281.373067 -42.557484 
L 280.098512 -43.184107 
L 278.823958 -43.848904 
L 277.549403 -44.55439 
L 276.274849 -45.303754 
L 275.000294 -46.1008 
L 273.725739 -46.949819 
L 272.451185 -47.855398 
L 271.17663 -48.822158 
L 269.902076 -49.854433 
L 268.627521 -50.95591 
L 267.352967 -52.129232 
L 266.078412 -53.375598 
L 264.803857 -54.694387 
L 263.529303 -56.082833 
L 262.254748 -57.535775 
L 260.980194 -59.045535 
L 259.705639 -60.601918 
L 258.431084 -62.192385 
L 257.15653 -63.802388 
L 255.881975 -65.415865 
L 254.607421 -67.01589 
L 253.332866 -68.58544 
L 252.058311 -70.108236 
L 250.783757 -71.569607 
L 249.509202 -72.957318 
L 248.234648 -74.262319 
L 246.960093 -75.479341 
L 245.685538 -76.607314 
L 244.410984 -77.649578 
L 243.136429 -78.613873 
L 241.861875 -79.512112 
L 240.58732 -80.359977 
L 239.312766 -81.176344 
L 238.038211 -81.982613 
L 236.763656 -82.801967 
L 235.489102 -83.658615 
L 234.214547 -84.577072 
L 232.939993 -85.581488 
L 231.665438 -86.695064 
L 230.390883 -87.939562 
L 229.116329 -89.334911 
L 227.841774 -90.898892 
L 226.56722 -92.646899 
L 225.292665 -94.591751 
L 224.01811 -96.743528 
L 222.743556 -99.109428 
L 221.469001 -101.693623 
L 220.194447 -104.497111 
L 218.919892 -107.51757 
L 217.645337 -110.749224 
L 216.370783 -114.18274 
L 215.096228 -117.805173 
L 213.821674 -121.59999 
L 212.547119 -125.547183 
L 211.272565 -129.623486 
L 209.99801 -133.802692 
L 208.723455 -138.056063 
L 207.448901 -142.352814 
L 206.174346 -146.660624 
L 204.899792 -150.946168 
L 203.625237 -155.175615 
L 202.350682 -159.315085 
L 201.076128 -163.331047 
L 199.801573 -167.190672 
L 198.527019 -170.862145 
L 197.252464 -174.314984 
L 195.977909 -177.520377 
L 194.703355 -180.451585 
L 193.4288 -183.084416 
L 192.154246 -185.397766 
L 190.879691 -187.374222 
L 189.605136 -189.000667 
L 188.330582 -190.26884 
L 187.056027 -191.175784 
L 185.781473 -191.724122 
L 184.506918 -191.922098 
L 183.232364 -191.783375 
L 181.957809 -191.326557 
L 180.683254 -190.574482 
L 179.4087 -189.553315 
L 178.134145 -188.291504 
L 176.859591 -186.818699 
L 175.585036 -185.164666 
L 174.310481 -183.358308 
L 173.035927 -181.42682 
L 171.761372 -179.395022 
L 170.486818 -177.284901 
L 169.212263 -175.11535 
L 167.937708 -172.902112 
L 166.663154 -170.657894 
L 165.388599 -168.392642 
L 164.114045 -166.113939 
L 162.83949 -163.827498 
L 161.564935 -161.537708 
L 160.290381 -159.248213 
L 159.015826 -156.962462 
L 157.741272 -154.684209 
L 156.466717 -152.417907 
L 155.192163 -150.168978 
L 153.917608 -147.943909 
L 152.643053 -145.750185 
L 151.368499 -143.596025 
L 150.093944 -141.489961 
L 148.81939 -139.440269 
L 147.544835 -137.454305 
L 146.27028 -135.537786 
L 144.995726 -133.694083 
L 143.721171 -131.923576 
L 142.446617 -130.223132 
L 141.172062 -128.585756 
L 139.897507 -127.000444 
L 138.622953 -125.452279 
L 137.348398 -123.922778 
L 136.073844 -122.39048 
L 134.799289 -120.831771 
L 133.524734 -119.221901 
L 132.25018 -117.53614 
L 130.975625 -115.751022 
L 129.701071 -113.845588 
L 128.426516 -111.802553 
L 127.151962 -109.609319 
L 125.877407 -107.258756 
L 124.602852 -104.749697 
L 123.328298 -102.087108 
L 122.053743 -99.281921 
L 120.779189 -96.350539 
L 119.504634 -93.314057 
L 118.230079 -90.197272 
L 116.955525 -87.027529 
L 115.68097 -83.833523 
L 114.406416 -80.64412 
L 113.131861 -77.487273 
L 111.857306 -74.3891 
L 110.582752 -71.373159 
L 109.308197 -68.45994 
L 108.033643 -65.666564 
L 106.759088 -63.00669 
L 105.484533 -60.490575 
L 104.209979 -58.125269 
L 102.935424 -55.914894 
L 101.66087 -53.860972 
L 100.386315 -51.962782 
L 99.111761 -50.217705 
L 97.837206 -48.621556 
L 96.562651 -47.168887 
L 95.288097 -45.853255 
L 94.013542 -44.667473 
L 92.738988 -43.603815 
L 91.464433 -42.654212 
L 90.189878 -41.810417 
L 88.915324 -41.064154 
L 87.640769 -40.407243 
L 86.366215 -39.831706 
L 85.09166 -39.329862 
L 83.817105 -38.894387 
L 82.542551 -38.518372 
L 81.267996 -38.195349 
L 79.993442 -37.919316 
L 78.718887 -37.684736 
L 77.444332 -37.486534 
L 76.169778 -37.320085 
L 74.895223 -37.181196 
L 73.620669 -37.066083 
L 72.346114 -36.971352 
L 71.07156 -36.893976 
L 69.797005 -36.831267 
L 68.52245 -36.78086 
L 67.247896 -36.740684 
L 65.973341 -36.708945 
L 64.698787 -36.684099 
L 63.424232 -36.66483 
L 62.149677 -36.65003 
L 60.875123 -36.638775 
L 59.600568 -36.630301 
z
" style="stroke: #1f77b4"/>
    </defs>
    <g clip-path="url(#pd8b38a3d16)">
     <use xlink:href="#m6a8e84dcaa" x="0" y="221.477187" style="fill: #1f77b4; fill-opacity: 0.25; stroke: #1f77b4"/>
    </g>
   </g>
   <g id="patch_3">
    <path d="M 46.91875 184.869375 
L 46.91875 21.789375 
" style="fill: none; stroke: #cccccc; stroke-width: 0.8; stroke-linejoin: miter; stroke-linecap: square"/>
   </g>
   <g id="patch_4">
    <path d="M 325.91875 184.869375 
L 325.91875 21.789375 
" style="fill: none; stroke: #cccccc; stroke-width: 0.8; stroke-linejoin: miter; stroke-linecap: square"/>
   </g>
   <g id="patch_5">
    <path d="M 46.91875 184.869375 
L 325.91875 184.869375 
" style="fill: none; stroke: #cccccc; stroke-width: 0.8; stroke-linejoin: miter; stroke-linecap: square"/>
   </g>
   <g id="patch_6">
    <path d="M 46.91875 21.789375 
L 325.91875 21.789375 
" style="fill: none; stroke: #cccccc; stroke-width: 0.8; stroke-linejoin: miter; stroke-linecap: square"/>
   </g>
   <g id="text_18">
    <!-- Rating Distribution - Density Plot -->
    <g style="fill: #262626" transform="translate(100.055312 15.789375)scale(0.12 -0.12)">
     <defs>
      <path id="ArialUnicodeMS-20" transform="scale(0.015625)"/>
      <path id="ArialUnicodeMS-72" d="M 2216 3213 
L 2022 2694 
Q 1813 2816 1613 2816 
Q 1297 2816 1134 2533 
Q 972 2250 972 1741 
L 972 0 
L 409 0 
L 409 3316 
L 922 3316 
L 922 2816 
L 934 2816 
Q 1203 3391 1638 3391 
Q 1925 3391 2216 3213 
z
" transform="scale(0.015625)"/>
      <path id="ArialUnicodeMS-62" d="M 1006 2944 
Q 1319 3391 1900 3391 
Q 2541 3391 2925 2925 
Q 3309 2459 3309 1709 
Q 3309 844 2879 383 
Q 2450 -78 1875 -78 
Q 1291 -78 966 416 
L 953 416 
L 953 0 
L 428 0 
L 428 4581 
L 991 4581 
L 991 2944 
L 1006 2944 
z
M 1831 384 
Q 2222 384 2476 720 
Q 2731 1056 2731 1663 
Q 2731 2247 2497 2589 
Q 2263 2931 1850 2931 
Q 1444 2931 1195 2578 
Q 947 2225 947 1684 
Q 947 1156 1050 932 
Q 1153 709 1361 546 
Q 1569 384 1831 384 
z
" transform="scale(0.015625)"/>
      <path id="ArialUnicodeMS-75" d="M 3116 0 
L 2613 0 
L 2613 488 
L 2597 488 
Q 2216 -78 1556 -78 
Q 1209 -78 914 83 
Q 619 244 520 526 
Q 422 809 422 1259 
L 422 3316 
L 984 3316 
L 984 1478 
Q 984 1038 1026 847 
Q 1069 656 1247 532 
Q 1425 409 1672 409 
Q 1991 409 2272 629 
Q 2553 850 2553 1544 
L 2553 3316 
L 3116 3316 
L 3116 0 
z
" transform="scale(0.015625)"/>
      <path id="ArialUnicodeMS-6f" d="M 1778 3391 
Q 2450 3391 2892 2953 
Q 3334 2516 3334 1709 
Q 3334 731 2856 326 
Q 2378 -78 1778 -78 
Q 1150 -78 687 337 
Q 225 753 225 1656 
Q 225 2531 672 2961 
Q 1119 3391 1778 3391 
z
M 1778 384 
Q 2259 384 2509 740 
Q 2759 1097 2759 1678 
Q 2759 2300 2476 2615 
Q 2194 2931 1778 2931 
Q 1350 2931 1075 2611 
Q 800 2291 800 1656 
Q 800 1025 1079 704 
Q 1359 384 1778 384 
z
" transform="scale(0.015625)"/>
      <path id="ArialUnicodeMS-2d" d="M 1925 1375 
L 206 1375 
L 206 1941 
L 1925 1941 
L 1925 1375 
z
" transform="scale(0.015625)"/>
      <path id="ArialUnicodeMS-50" d="M 494 4581 
L 2222 4581 
Q 2631 4581 2926 4540 
Q 3222 4500 3475 4329 
Q 3728 4159 3858 3867 
Q 3988 3575 3988 3256 
Q 3988 2622 3580 2239 
Q 3172 1856 2272 1856 
L 1100 1856 
L 1100 0 
L 494 0 
L 494 4581 
z
M 1100 2400 
L 2278 2400 
Q 3359 2400 3359 3238 
Q 3359 3513 3218 3723 
Q 3078 3934 2873 3986 
Q 2669 4038 2266 4038 
L 1100 4038 
L 1100 2400 
z
" transform="scale(0.015625)"/>
      <path id="ArialUnicodeMS-6c" d="M 991 0 
L 428 0 
L 428 4581 
L 991 4581 
L 991 0 
z
" transform="scale(0.015625)"/>
     </defs>
     <use xlink:href="#ArialUnicodeMS-52"/>
     <use xlink:href="#ArialUnicodeMS-61" x="72.216797"/>
     <use xlink:href="#ArialUnicodeMS-74" x="127.832031"/>
     <use xlink:href="#ArialUnicodeMS-69" x="155.615234"/>
     <use xlink:href="#ArialUnicodeMS-6e" x="177.832031"/>
     <use xlink:href="#ArialUnicodeMS-67" x="233.447266"/>
     <use xlink:href="#ArialUnicodeMS-20" x="289.0625"/>
     <use xlink:href="#ArialUnicodeMS-44" x="316.845703"/>
     <use xlink:href="#ArialUnicodeMS-69" x="389.0625"/>
     <use xlink:href="#ArialUnicodeMS-73" x="411.279297"/>
     <use xlink:href="#ArialUnicodeMS-74" x="461.279297"/>
     <use xlink:href="#ArialUnicodeMS-72" x="489.0625"/>
     <use xlink:href="#ArialUnicodeMS-69" x="522.363281"/>
     <use xlink:href="#ArialUnicodeMS-62" x="544.580078"/>
     <use xlink:href="#ArialUnicodeMS-75" x="600.195312"/>
     <use xlink:href="#ArialUnicodeMS-74" x="655.810547"/>
     <use xlink:href="#ArialUnicodeMS-69" x="683.59375"/>
     <use xlink:href="#ArialUnicodeMS-6f" x="705.810547"/>
     <use xlink:href="#ArialUnicodeMS-6e" x="761.425781"/>
     <use xlink:href="#ArialUnicodeMS-20" x="817.041016"/>
     <use xlink:href="#ArialUnicodeMS-2d" x="844.824219"/>
     <use xlink:href="#ArialUnicodeMS-20" x="878.125"/>
     <use xlink:href="#ArialUnicodeMS-44" x="905.908203"/>
     <use xlink:href="#ArialUnicodeMS-65" x="978.125"/>
     <use xlink:href="#ArialUnicodeMS-6e" x="1033.740234"/>
     <use xlink:href="#ArialUnicodeMS-73" x="1089.355469"/>
     <use xlink:href="#ArialUnicodeMS-69" x="1139.355469"/>
     <use xlink:href="#ArialUnicodeMS-74" x="1161.572266"/>
     <use xlink:href="#ArialUnicodeMS-79" x="1189.355469"/>
     <use xlink:href="#ArialUnicodeMS-20" x="1239.355469"/>
     <use xlink:href="#ArialUnicodeMS-50" x="1267.138672"/>
     <use xlink:href="#ArialUnicodeMS-6c" x="1333.837891"/>
     <use xlink:href="#ArialUnicodeMS-6f" x="1356.054688"/>
     <use xlink:href="#ArialUnicodeMS-74" x="1411.669922"/>
    </g>
   </g>
  </g>
 </g>
 <defs>
  <clipPath id="pd8b38a3d16">
   <rect x="46.91875" y="21.789375" width="279" height="163.08"/>
  </clipPath>
 </defs>
</svg>
