<?xml version="1.0" encoding="utf-8" standalone="no"?>
<!DOCTYPE svg PUBLIC "-//W3C//DTD SVG 1.1//EN"
  "http://www.w3.org/Graphics/SVG/1.1/DTD/svg11.dtd">
<svg xmlns:xlink="http://www.w3.org/1999/xlink" width="236.025376pt" height="246.429375pt" viewBox="0 0 236.025376 246.429375" xmlns="http://www.w3.org/2000/svg" version="1.1">
 <metadata>
  <rdf:RDF xmlns:dc="http://purl.org/dc/elements/1.1/" xmlns:cc="http://creativecommons.org/ns#" xmlns:rdf="http://www.w3.org/1999/02/22-rdf-syntax-ns#">
   <cc:Work>
    <dc:type rdf:resource="http://purl.org/dc/dcmitype/StillImage"/>
    <dc:date>2023-11-24T15:51:29.550371</dc:date>
    <dc:format>image/svg+xml</dc:format>
    <dc:creator>
     <cc:Agent>
      <dc:title>Matplotlib v3.5.1, https://matplotlib.org/</dc:title>
     </cc:Agent>
    </dc:creator>
   </cc:Work>
  </rdf:RDF>
 </metadata>
 <defs>
  <style type="text/css">*{stroke-linejoin: round; stroke-linecap: butt}</style>
 </defs>
 <g id="figure_1">
  <g id="patch_1">
   <path d="M 0 246.429375 
L 236.025376 246.429375 
L 236.025376 0 
L 0 0 
z
" style="fill: #ffffff"/>
  </g>
  <g id="axes_1">
   <g id="matplotlib.axis_1"/>
   <g id="matplotlib.axis_2"/>
   <g id="patch_2">
    <path d="M 111.262846 47.454926 
C 94.695455 47.454926 78.467938 52.188619 64.498988 61.096308 
C 50.530039 70.003997 39.392794 82.720204 32.404089 97.741405 
C 25.415383 112.762605 22.861959 129.472488 25.045724 145.895327 
C 27.22949 162.318165 34.060848 177.780141 44.732078 190.453078 
C 55.403309 203.126014 69.476578 212.489947 85.287905 217.437715 
C 101.099232 222.385482 117.999888 222.71408 133.991591 218.384655 
C 149.983294 214.055231 164.409913 205.245418 175.565689 192.996862 
C 186.721466 180.748306 194.148685 165.563558 196.969174 149.238017 
L 111.262846 134.430926 
L 111.262846 47.454926 
z
" style="fill: #66c2a5; stroke: #ffffff; stroke-linejoin: miter"/>
   </g>
   <g id="patch_3">
    <path d="M 207.549726 143.90899 
C 209.552316 132.317613 209.182729 120.439546 206.463378 108.995093 
C 203.744028 97.55064 198.731016 86.775911 191.72834 77.324302 
L 121.843399 129.101899 
L 207.549726 143.90899 
z
" style="fill: #fc8d62; stroke: #ffffff; stroke-linejoin: miter"/>
   </g>
   <g id="patch_4">
    <path d="M 190.008439 74.327434 
C 187.053991 70.339774 183.76365 66.612294 180.173458 63.185822 
C 176.583265 59.759349 172.706377 56.646442 168.58526 53.881197 
L 120.123497 126.10503 
L 190.008439 74.327434 
z
" style="fill: #8da0cb; stroke: #ffffff; stroke-linejoin: miter"/>
   </g>
   <g id="patch_5">
    <path d="M 166.86387 52.726154 
C 162.742752 49.960909 158.392507 47.553459 153.860784 45.530174 
C 149.329061 43.506889 144.632467 41.875185 139.822447 40.652932 
L 118.402107 124.949988 
L 166.86387 52.726154 
z
" style="fill: #e78ac3; stroke: #ffffff; stroke-linejoin: miter"/>
   </g>
   <g id="patch_6">
    <path d="M 138.095892 40.171063 
C 134.598699 39.282407 131.049591 38.612241 127.469151 38.164452 
C 123.88871 37.716663 120.283871 37.492118 116.675538 37.492118 
L 116.675552 124.468118 
L 138.095892 40.171063 
z
" style="fill: #a6d854; stroke: #ffffff; stroke-linejoin: miter"/>
   </g>
   <g id="text_1">
    <!-- 5.0 -->
    <g style="fill: #262626" transform="translate(24.179002 198.638105)scale(0.1 -0.1)">
     <defs>
      <path id="ArialUnicodeMS-35" d="M 1013 2753 
Q 1431 3041 1881 3041 
Q 2453 3041 2878 2636 
Q 3303 2231 3303 1556 
Q 3303 875 2872 398 
Q 2441 -78 1741 -78 
Q 1169 -78 750 245 
Q 331 569 269 1203 
L 856 1247 
Q 928 813 1162 598 
Q 1397 384 1741 384 
Q 2169 384 2434 707 
Q 2700 1031 2700 1503 
Q 2700 1984 2428 2262 
Q 2156 2541 1728 2541 
Q 1188 2541 897 2100 
L 366 2163 
L 813 4519 
L 3084 4519 
L 3084 3975 
L 1259 3975 
L 1013 2753 
z
" transform="scale(0.015625)"/>
      <path id="ArialUnicodeMS-2e" d="M 1209 0 
L 569 0 
L 569 641 
L 1209 641 
L 1209 0 
z
" transform="scale(0.015625)"/>
      <path id="ArialUnicodeMS-30" d="M 1778 4603 
Q 3272 4603 3272 2259 
Q 3272 1075 2886 498 
Q 2500 -78 1778 -78 
Q 288 -78 288 2259 
Q 288 3444 673 4023 
Q 1059 4603 1778 4603 
z
M 1778 384 
Q 2231 384 2462 823 
Q 2694 1263 2694 2259 
Q 2694 2953 2592 3351 
Q 2491 3750 2286 3945 
Q 2081 4141 1772 4141 
Q 1319 4141 1091 3694 
Q 863 3247 863 2259 
Q 863 1575 966 1175 
Q 1069 775 1272 579 
Q 1475 384 1778 384 
z
" transform="scale(0.015625)"/>
     </defs>
     <use xlink:href="#ArialUnicodeMS-35"/>
     <use xlink:href="#ArialUnicodeMS-2e" x="55.615234"/>
     <use xlink:href="#ArialUnicodeMS-30" x="83.398438"/>
    </g>
   </g>
   <g id="text_2">
    <!-- 72.3% -->
    <g style="fill: #262626" transform="translate(57.167823 170.627029)scale(0.1 -0.1)">
     <defs>
      <path id="ArialUnicodeMS-37" d="M 3272 4084 
Q 2597 3344 2103 2253 
Q 1609 1163 1522 0 
L 947 0 
Q 969 934 1408 2051 
Q 1847 3169 2547 3975 
L 306 3975 
L 306 4519 
L 3272 4519 
L 3272 4084 
z
" transform="scale(0.015625)"/>
      <path id="ArialUnicodeMS-32" d="M 3231 0 
L 197 0 
Q 197 388 467 784 
Q 738 1181 1478 1778 
Q 1931 2141 2287 2539 
Q 2644 2938 2644 3341 
Q 2644 3688 2398 3914 
Q 2153 4141 1778 4141 
Q 1400 4141 1144 3908 
Q 888 3675 884 3213 
L 306 3278 
Q 359 3922 764 4262 
Q 1169 4603 1791 4603 
Q 2466 4603 2842 4229 
Q 3219 3856 3219 3328 
Q 3219 2888 2901 2436 
Q 2584 1984 1638 1228 
Q 1141 831 978 544 
L 3231 544 
L 3231 0 
z
" transform="scale(0.015625)"/>
      <path id="ArialUnicodeMS-33" d="M 2425 2478 
Q 2850 2397 3067 2067 
Q 3284 1738 3284 1350 
Q 3284 725 2829 323 
Q 2375 -78 1741 -78 
Q 1134 -78 740 275 
Q 347 628 281 1209 
L 844 1288 
Q 928 834 1151 609 
Q 1375 384 1741 384 
Q 2134 384 2407 661 
Q 2681 938 2681 1338 
Q 2681 1722 2432 1975 
Q 2184 2228 1784 2228 
Q 1622 2228 1388 2169 
L 1453 2663 
Q 1678 2663 1809 2684 
Q 1941 2706 2103 2790 
Q 2266 2875 2372 3033 
Q 2478 3191 2478 3425 
Q 2478 3766 2251 3953 
Q 2025 4141 1728 4141 
Q 1388 4141 1173 3925 
Q 959 3709 903 3309 
L 341 3413 
Q 450 4009 823 4306 
Q 1197 4603 1716 4603 
Q 2288 4603 2670 4258 
Q 3053 3913 3053 3413 
Q 3053 2772 2425 2491 
L 2425 2478 
z
" transform="scale(0.015625)"/>
      <path id="ArialUnicodeMS-25" d="M 4325 4659 
L 1838 -159 
L 1369 -159 
L 3872 4659 
L 4325 4659 
z
M 1428 4653 
Q 1856 4653 2137 4343 
Q 2419 4034 2419 3438 
Q 2419 2850 2131 2539 
Q 1844 2228 1434 2228 
Q 1009 2228 739 2540 
Q 469 2853 469 3475 
Q 469 3984 722 4318 
Q 975 4653 1428 4653 
z
M 1441 2619 
Q 1931 2619 1931 3463 
Q 1931 4269 1441 4269 
Q 953 4269 953 3419 
Q 953 2619 1441 2619 
z
M 4250 2253 
Q 4681 2253 4961 1943 
Q 5241 1634 5241 1038 
Q 5241 600 5087 328 
Q 4934 56 4709 -58 
Q 4484 -172 4256 -172 
Q 3831 -172 3561 140 
Q 3291 453 3291 1075 
Q 3291 1584 3544 1918 
Q 3797 2253 4250 2253 
z
M 4263 219 
Q 4756 219 4756 1063 
Q 4756 1869 4263 1869 
Q 3775 1869 3775 1019 
Q 3775 219 4263 219 
z
" transform="scale(0.015625)"/>
     </defs>
     <use xlink:href="#ArialUnicodeMS-37"/>
     <use xlink:href="#ArialUnicodeMS-32" x="55.615234"/>
     <use xlink:href="#ArialUnicodeMS-2e" x="111.230469"/>
     <use xlink:href="#ArialUnicodeMS-33" x="139.013672"/>
     <use xlink:href="#ArialUnicodeMS-25" x="194.628906"/>
    </g>
   </g>
   <g id="text_3">
    <!-- 4.0 -->
    <g style="fill: #262626" transform="translate(214.925376 109.567225)scale(0.1 -0.1)">
     <defs>
      <path id="ArialUnicodeMS-34" d="M 3263 1094 
L 2644 1094 
L 2644 0 
L 2081 0 
L 2081 1094 
L 97 1094 
L 97 1613 
L 2181 4581 
L 2644 4581 
L 2644 1613 
L 3263 1613 
L 3263 1094 
z
M 2081 1613 
L 2081 3681 
L 2069 3681 
L 647 1613 
L 2081 1613 
z
" transform="scale(0.015625)"/>
     </defs>
     <use xlink:href="#ArialUnicodeMS-34"/>
     <use xlink:href="#ArialUnicodeMS-2e" x="55.615234"/>
     <use xlink:href="#ArialUnicodeMS-30" x="83.398438"/>
    </g>
   </g>
   <g id="text_4">
    <!-- 12.9% -->
    <g style="fill: #262626" transform="translate(158.438824 119.620628)scale(0.1 -0.1)">
     <defs>
      <path id="ArialUnicodeMS-31" d="M 2400 0 
L 1838 0 
L 1838 3584 
Q 1416 3184 709 2906 
L 709 3450 
Q 1681 3916 2034 4603 
L 2400 4603 
L 2400 0 
z
" transform="scale(0.015625)"/>
      <path id="ArialUnicodeMS-39" d="M 2713 2156 
Q 2547 1888 2258 1722 
Q 1969 1556 1631 1556 
Q 1066 1556 670 1970 
Q 275 2384 275 3053 
Q 275 3734 678 4168 
Q 1081 4603 1716 4603 
Q 2353 4603 2818 4106 
Q 3284 3609 3284 2388 
Q 3284 1147 2859 534 
Q 2434 -78 1644 -78 
Q 1128 -78 781 205 
Q 434 488 359 1063 
L 897 1106 
Q 1025 384 1656 384 
Q 2175 384 2450 857 
Q 2725 1331 2725 2156 
L 2713 2156 
z
M 1766 2047 
Q 2178 2047 2420 2339 
Q 2663 2631 2663 3078 
Q 2663 3531 2414 3836 
Q 2166 4141 1778 4141 
Q 1388 4141 1119 3817 
Q 850 3494 850 3034 
Q 850 2600 1114 2323 
Q 1378 2047 1766 2047 
z
" transform="scale(0.015625)"/>
     </defs>
     <use xlink:href="#ArialUnicodeMS-31"/>
     <use xlink:href="#ArialUnicodeMS-32" x="55.615234"/>
     <use xlink:href="#ArialUnicodeMS-2e" x="111.230469"/>
     <use xlink:href="#ArialUnicodeMS-39" x="139.013672"/>
     <use xlink:href="#ArialUnicodeMS-25" x="194.628906"/>
    </g>
   </g>
   <g id="text_5">
    <!-- 2.0 -->
    <g style="fill: #262626" transform="translate(186.178454 59.476713)scale(0.1 -0.1)">
     <use xlink:href="#ArialUnicodeMS-32"/>
     <use xlink:href="#ArialUnicodeMS-2e" x="55.615234"/>
     <use xlink:href="#ArialUnicodeMS-30" x="83.398438"/>
    </g>
   </g>
   <g id="text_6">
    <!-- 5.4% -->
    <g style="fill: #262626" transform="translate(144.75738 90.936318)scale(0.1 -0.1)">
     <use xlink:href="#ArialUnicodeMS-35"/>
     <use xlink:href="#ArialUnicodeMS-2e" x="55.615234"/>
     <use xlink:href="#ArialUnicodeMS-34" x="83.398438"/>
     <use xlink:href="#ArialUnicodeMS-25" x="139.013672"/>
    </g>
   </g>
   <g id="text_7">
    <!-- 1.0 -->
    <g style="fill: #262626" transform="translate(157.406651 40.171005)scale(0.1 -0.1)">
     <use xlink:href="#ArialUnicodeMS-31"/>
     <use xlink:href="#ArialUnicodeMS-2e" x="55.615234"/>
     <use xlink:href="#ArialUnicodeMS-30" x="83.398438"/>
    </g>
   </g>
   <g id="text_8">
    <!-- 5.4% -->
    <g style="fill: #262626" transform="translate(128.281219 79.880912)scale(0.1 -0.1)">
     <use xlink:href="#ArialUnicodeMS-35"/>
     <use xlink:href="#ArialUnicodeMS-2e" x="55.615234"/>
     <use xlink:href="#ArialUnicodeMS-34" x="83.398438"/>
     <use xlink:href="#ArialUnicodeMS-25" x="139.013672"/>
    </g>
   </g>
   <g id="text_9">
    <!-- 3.0 -->
    <g style="fill: #262626" transform="translate(128.548511 32.116898)scale(0.1 -0.1)">
     <use xlink:href="#ArialUnicodeMS-33"/>
     <use xlink:href="#ArialUnicodeMS-2e" x="55.615234"/>
     <use xlink:href="#ArialUnicodeMS-30" x="83.398438"/>
    </g>
   </g>
   <g id="text_10">
    <!-- 4.0% -->
    <g style="fill: #262626" transform="translate(111.755617 75.268731)scale(0.1 -0.1)">
     <use xlink:href="#ArialUnicodeMS-34"/>
     <use xlink:href="#ArialUnicodeMS-2e" x="55.615234"/>
     <use xlink:href="#ArialUnicodeMS-30" x="83.398438"/>
     <use xlink:href="#ArialUnicodeMS-25" x="139.013672"/>
    </g>
   </g>
   <g id="text_11">
    <!-- Rate Distribution -->
    <g style="fill: #262626" transform="translate(71.569687 15.789375)scale(0.12 -0.12)">
     <defs>
      <path id="ArialUnicodeMS-52" d="M 4550 0 
L 3788 0 
Q 3103 1081 2937 1328 
Q 2772 1575 2589 1751 
Q 2406 1928 2245 1975 
Q 2084 2022 1819 2022 
L 1119 2022 
L 1119 0 
L 513 0 
L 513 4581 
L 2541 4581 
Q 2956 4581 3237 4528 
Q 3519 4475 3731 4304 
Q 3944 4134 4058 3875 
Q 4172 3616 4172 3328 
Q 4172 2809 3844 2493 
Q 3516 2178 2888 2094 
L 2888 2081 
Q 3347 1878 3750 1247 
L 4550 0 
z
M 1119 2566 
L 2419 2566 
Q 2813 2566 3042 2633 
Q 3272 2700 3409 2894 
Q 3547 3088 3547 3328 
Q 3547 3641 3319 3859 
Q 3091 4078 2566 4078 
L 1119 4078 
L 1119 2566 
z
" transform="scale(0.015625)"/>
      <path id="ArialUnicodeMS-61" d="M 3303 0 
L 2713 0 
Q 2631 156 2597 409 
Q 2031 -78 1375 -78 
Q 850 -78 547 184 
Q 244 447 244 878 
Q 244 1291 536 1558 
Q 828 1825 1550 1913 
L 2075 1991 
Q 2369 2038 2559 2106 
Q 2559 2359 2543 2464 
Q 2528 2569 2451 2681 
Q 2375 2794 2206 2862 
Q 2038 2931 1753 2931 
Q 1391 2931 1180 2797 
Q 969 2663 891 2297 
L 341 2369 
Q 431 2878 806 3134 
Q 1181 3391 1838 3391 
Q 2434 3391 2714 3214 
Q 2994 3038 3058 2788 
Q 3122 2538 3122 2144 
L 3122 1388 
Q 3122 697 3148 461 
Q 3175 225 3303 0 
z
M 2559 1459 
L 2559 1663 
Q 2119 1516 1481 1430 
Q 844 1344 844 891 
Q 844 663 1016 514 
Q 1188 366 1509 366 
Q 1925 366 2242 614 
Q 2559 863 2559 1459 
z
" transform="scale(0.015625)"/>
      <path id="ArialUnicodeMS-74" d="M 1722 6 
Q 1472 -44 1300 -44 
Q 931 -44 762 86 
Q 594 216 556 416 
Q 519 616 519 972 
L 519 2881 
L 109 2881 
L 109 3316 
L 519 3316 
L 519 4141 
L 1081 4481 
L 1081 3316 
L 1644 3316 
L 1644 2881 
L 1081 2881 
L 1081 941 
Q 1081 691 1132 586 
Q 1184 481 1394 481 
Q 1516 481 1644 506 
L 1722 6 
z
" transform="scale(0.015625)"/>
      <path id="ArialUnicodeMS-65" d="M 3309 1516 
L 825 1516 
Q 859 966 1139 675 
Q 1419 384 1838 384 
Q 2159 384 2378 554 
Q 2597 725 2713 1069 
L 3291 997 
Q 3150 478 2775 200 
Q 2400 -78 1838 -78 
Q 1091 -78 670 380 
Q 250 838 250 1631 
Q 250 2416 658 2903 
Q 1066 3391 1806 3391 
Q 2169 3391 2505 3231 
Q 2841 3072 3075 2689 
Q 3309 2306 3309 1516 
z
M 2731 1978 
Q 2697 2484 2417 2707 
Q 2138 2931 1806 2931 
Q 1409 2931 1153 2665 
Q 897 2400 856 1978 
L 2731 1978 
z
" transform="scale(0.015625)"/>
      <path id="ArialUnicodeMS-20" transform="scale(0.015625)"/>
      <path id="ArialUnicodeMS-44" d="M 513 4581 
L 2094 4581 
Q 2509 4581 2809 4539 
Q 3109 4497 3382 4333 
Q 3656 4169 3861 3881 
Q 4066 3594 4183 3220 
Q 4300 2847 4300 2316 
Q 4300 1303 3819 651 
Q 3338 0 2163 0 
L 513 0 
L 513 4581 
z
M 1119 544 
L 2100 544 
Q 2400 544 2636 581 
Q 2872 619 3114 784 
Q 3356 950 3515 1328 
Q 3675 1706 3675 2328 
Q 3675 2672 3614 2970 
Q 3553 3269 3389 3514 
Q 3225 3759 3012 3873 
Q 2800 3988 2598 4013 
Q 2397 4038 2081 4038 
L 1119 4038 
L 1119 544 
z
" transform="scale(0.015625)"/>
      <path id="ArialUnicodeMS-69" d="M 991 0 
L 428 0 
L 428 3316 
L 991 3316 
L 991 0 
z
M 991 3944 
L 428 3944 
L 428 4581 
L 991 4581 
L 991 3944 
z
" transform="scale(0.015625)"/>
      <path id="ArialUnicodeMS-73" d="M 2278 2388 
Q 2241 2659 2058 2795 
Q 1875 2931 1550 2931 
Q 1228 2931 1029 2822 
Q 831 2713 831 2503 
Q 831 2306 989 2222 
Q 1147 2138 1613 2016 
Q 2138 1881 2398 1778 
Q 2659 1675 2804 1489 
Q 2950 1303 2950 972 
Q 2950 528 2587 225 
Q 2225 -78 1619 -78 
Q 988 -78 633 189 
Q 278 456 197 991 
L 756 1075 
Q 800 728 1014 556 
Q 1228 384 1613 384 
Q 1981 384 2178 539 
Q 2375 694 2375 916 
Q 2375 1066 2284 1156 
Q 2194 1247 2058 1292 
Q 1922 1338 1447 1453 
Q 741 1622 514 1862 
Q 288 2103 288 2438 
Q 288 2853 619 3122 
Q 950 3391 1509 3391 
Q 2103 3391 2433 3158 
Q 2763 2925 2828 2463 
L 2278 2388 
z
" transform="scale(0.015625)"/>
      <path id="ArialUnicodeMS-72" d="M 2216 3213 
L 2022 2694 
Q 1813 2816 1613 2816 
Q 1297 2816 1134 2533 
Q 972 2250 972 1741 
L 972 0 
L 409 0 
L 409 3316 
L 922 3316 
L 922 2816 
L 934 2816 
Q 1203 3391 1638 3391 
Q 1925 3391 2216 3213 
z
" transform="scale(0.015625)"/>
      <path id="ArialUnicodeMS-62" d="M 1006 2944 
Q 1319 3391 1900 3391 
Q 2541 3391 2925 2925 
Q 3309 2459 3309 1709 
Q 3309 844 2879 383 
Q 2450 -78 1875 -78 
Q 1291 -78 966 416 
L 953 416 
L 953 0 
L 428 0 
L 428 4581 
L 991 4581 
L 991 2944 
L 1006 2944 
z
M 1831 384 
Q 2222 384 2476 720 
Q 2731 1056 2731 1663 
Q 2731 2247 2497 2589 
Q 2263 2931 1850 2931 
Q 1444 2931 1195 2578 
Q 947 2225 947 1684 
Q 947 1156 1050 932 
Q 1153 709 1361 546 
Q 1569 384 1831 384 
z
" transform="scale(0.015625)"/>
      <path id="ArialUnicodeMS-75" d="M 3116 0 
L 2613 0 
L 2613 488 
L 2597 488 
Q 2216 -78 1556 -78 
Q 1209 -78 914 83 
Q 619 244 520 526 
Q 422 809 422 1259 
L 422 3316 
L 984 3316 
L 984 1478 
Q 984 1038 1026 847 
Q 1069 656 1247 532 
Q 1425 409 1672 409 
Q 1991 409 2272 629 
Q 2553 850 2553 1544 
L 2553 3316 
L 3116 3316 
L 3116 0 
z
" transform="scale(0.015625)"/>
      <path id="ArialUnicodeMS-6f" d="M 1778 3391 
Q 2450 3391 2892 2953 
Q 3334 2516 3334 1709 
Q 3334 731 2856 326 
Q 2378 -78 1778 -78 
Q 1150 -78 687 337 
Q 225 753 225 1656 
Q 225 2531 672 2961 
Q 1119 3391 1778 3391 
z
M 1778 384 
Q 2259 384 2509 740 
Q 2759 1097 2759 1678 
Q 2759 2300 2476 2615 
Q 2194 2931 1778 2931 
Q 1350 2931 1075 2611 
Q 800 2291 800 1656 
Q 800 1025 1079 704 
Q 1359 384 1778 384 
z
" transform="scale(0.015625)"/>
      <path id="ArialUnicodeMS-6e" d="M 3138 0 
L 2572 0 
L 2572 2016 
Q 2572 2525 2389 2715 
Q 2206 2906 1881 2906 
Q 1631 2906 1407 2784 
Q 1184 2663 1090 2441 
Q 997 2219 997 1813 
L 997 0 
L 434 0 
L 434 3316 
L 941 3316 
L 941 2847 
L 953 2847 
Q 1131 3119 1392 3255 
Q 1653 3391 1997 3391 
Q 2259 3391 2515 3297 
Q 2772 3203 2917 3015 
Q 3063 2828 3100 2615 
Q 3138 2403 3138 2041 
L 3138 0 
z
" transform="scale(0.015625)"/>
     </defs>
     <use xlink:href="#ArialUnicodeMS-52"/>
     <use xlink:href="#ArialUnicodeMS-61" x="72.216797"/>
     <use xlink:href="#ArialUnicodeMS-74" x="127.832031"/>
     <use xlink:href="#ArialUnicodeMS-65" x="155.615234"/>
     <use xlink:href="#ArialUnicodeMS-20" x="211.230469"/>
     <use xlink:href="#ArialUnicodeMS-44" x="239.013672"/>
     <use xlink:href="#ArialUnicodeMS-69" x="311.230469"/>
     <use xlink:href="#ArialUnicodeMS-73" x="333.447266"/>
     <use xlink:href="#ArialUnicodeMS-74" x="383.447266"/>
     <use xlink:href="#ArialUnicodeMS-72" x="411.230469"/>
     <use xlink:href="#ArialUnicodeMS-69" x="444.53125"/>
     <use xlink:href="#ArialUnicodeMS-62" x="466.748047"/>
     <use xlink:href="#ArialUnicodeMS-75" x="522.363281"/>
     <use xlink:href="#ArialUnicodeMS-74" x="577.978516"/>
     <use xlink:href="#ArialUnicodeMS-69" x="605.761719"/>
     <use xlink:href="#ArialUnicodeMS-6f" x="627.978516"/>
     <use xlink:href="#ArialUnicodeMS-6e" x="683.59375"/>
    </g>
   </g>
  </g>
 </g>
</svg>
