<?xml version="1.0" encoding="utf-8" standalone="no"?>
<!DOCTYPE svg PUBLIC "-//W3C//DTD SVG 1.1//EN"
  "http://www.w3.org/Graphics/SVG/1.1/DTD/svg11.dtd">
<svg xmlns:xlink="http://www.w3.org/1999/xlink" width="497.632812pt" height="275.729375pt" viewBox="0 0 497.632812 275.729375" xmlns="http://www.w3.org/2000/svg" version="1.1">
 <metadata>
  <rdf:RDF xmlns:dc="http://purl.org/dc/elements/1.1/" xmlns:cc="http://creativecommons.org/ns#" xmlns:rdf="http://www.w3.org/1999/02/22-rdf-syntax-ns#">
   <cc:Work>
    <dc:type rdf:resource="http://purl.org/dc/dcmitype/StillImage"/>
    <dc:date>2023-11-24T15:51:35.230543</dc:date>
    <dc:format>image/svg+xml</dc:format>
    <dc:creator>
     <cc:Agent>
      <dc:title>Matplotlib v3.5.1, https://matplotlib.org/</dc:title>
     </cc:Agent>
    </dc:creator>
   </cc:Work>
  </rdf:RDF>
 </metadata>
 <defs>
  <style type="text/css">*{stroke-linejoin: round; stroke-linecap: butt}</style>
 </defs>
 <g id="figure_1">
  <g id="patch_1">
   <path d="M 0 275.729375 
L 497.632812 275.729375 
L 497.632812 0 
L 0 0 
z
" style="fill: #ffffff"/>
  </g>
  <g id="axes_1">
   <g id="patch_2">
    <path d="M 44.032813 239.229375 
L 490.432812 239.229375 
L 490.432812 21.789375 
L 44.032813 21.789375 
z
" style="fill: #ffffff"/>
   </g>
   <g id="matplotlib.axis_1">
    <g id="xtick_1">
     <g id="line2d_1">
      <path d="M 56.258403 239.229375 
L 56.258403 21.789375 
" clip-path="url(#p13c91bfb21)" style="fill: none; stroke: #cccccc; stroke-width: 0.8; stroke-linecap: round"/>
     </g>
     <g id="text_1">
      <!-- 0.0 -->
      <g style="fill: #262626" transform="translate(49.308403 253.387188)scale(0.1 -0.1)">
       <defs>
        <path id="ArialUnicodeMS-30" d="M 1778 4603 
Q 3272 4603 3272 2259 
Q 3272 1075 2886 498 
Q 2500 -78 1778 -78 
Q 288 -78 288 2259 
Q 288 3444 673 4023 
Q 1059 4603 1778 4603 
z
M 1778 384 
Q 2231 384 2462 823 
Q 2694 1263 2694 2259 
Q 2694 2953 2592 3351 
Q 2491 3750 2286 3945 
Q 2081 4141 1772 4141 
Q 1319 4141 1091 3694 
Q 863 3247 863 2259 
Q 863 1575 966 1175 
Q 1069 775 1272 579 
Q 1475 384 1778 384 
z
" transform="scale(0.015625)"/>
        <path id="ArialUnicodeMS-2e" d="M 1209 0 
L 569 0 
L 569 641 
L 1209 641 
L 1209 0 
z
" transform="scale(0.015625)"/>
       </defs>
       <use xlink:href="#ArialUnicodeMS-30"/>
       <use xlink:href="#ArialUnicodeMS-2e" x="55.615234"/>
       <use xlink:href="#ArialUnicodeMS-30" x="83.398438"/>
      </g>
     </g>
    </g>
    <g id="xtick_2">
     <g id="line2d_2">
      <path d="M 139.035103 239.229375 
L 139.035103 21.789375 
" clip-path="url(#p13c91bfb21)" style="fill: none; stroke: #cccccc; stroke-width: 0.8; stroke-linecap: round"/>
     </g>
     <g id="text_2">
      <!-- 0.2 -->
      <g style="fill: #262626" transform="translate(132.085103 253.387188)scale(0.1 -0.1)">
       <defs>
        <path id="ArialUnicodeMS-32" d="M 3231 0 
L 197 0 
Q 197 388 467 784 
Q 738 1181 1478 1778 
Q 1931 2141 2287 2539 
Q 2644 2938 2644 3341 
Q 2644 3688 2398 3914 
Q 2153 4141 1778 4141 
Q 1400 4141 1144 3908 
Q 888 3675 884 3213 
L 306 3278 
Q 359 3922 764 4262 
Q 1169 4603 1791 4603 
Q 2466 4603 2842 4229 
Q 3219 3856 3219 3328 
Q 3219 2888 2901 2436 
Q 2584 1984 1638 1228 
Q 1141 831 978 544 
L 3231 544 
L 3231 0 
z
" transform="scale(0.015625)"/>
       </defs>
       <use xlink:href="#ArialUnicodeMS-30"/>
       <use xlink:href="#ArialUnicodeMS-2e" x="55.615234"/>
       <use xlink:href="#ArialUnicodeMS-32" x="83.398438"/>
      </g>
     </g>
    </g>
    <g id="xtick_3">
     <g id="line2d_3">
      <path d="M 221.811803 239.229375 
L 221.811803 21.789375 
" clip-path="url(#p13c91bfb21)" style="fill: none; stroke: #cccccc; stroke-width: 0.8; stroke-linecap: round"/>
     </g>
     <g id="text_3">
      <!-- 0.4 -->
      <g style="fill: #262626" transform="translate(214.861803 253.387188)scale(0.1 -0.1)">
       <defs>
        <path id="ArialUnicodeMS-34" d="M 3263 1094 
L 2644 1094 
L 2644 0 
L 2081 0 
L 2081 1094 
L 97 1094 
L 97 1613 
L 2181 4581 
L 2644 4581 
L 2644 1613 
L 3263 1613 
L 3263 1094 
z
M 2081 1613 
L 2081 3681 
L 2069 3681 
L 647 1613 
L 2081 1613 
z
" transform="scale(0.015625)"/>
       </defs>
       <use xlink:href="#ArialUnicodeMS-30"/>
       <use xlink:href="#ArialUnicodeMS-2e" x="55.615234"/>
       <use xlink:href="#ArialUnicodeMS-34" x="83.398438"/>
      </g>
     </g>
    </g>
    <g id="xtick_4">
     <g id="line2d_4">
      <path d="M 304.588503 239.229375 
L 304.588503 21.789375 
" clip-path="url(#p13c91bfb21)" style="fill: none; stroke: #cccccc; stroke-width: 0.8; stroke-linecap: round"/>
     </g>
     <g id="text_4">
      <!-- 0.6 -->
      <g style="fill: #262626" transform="translate(297.638503 253.387188)scale(0.1 -0.1)">
       <defs>
        <path id="ArialUnicodeMS-36" d="M 838 2363 
Q 1225 2969 1941 2969 
Q 2503 2969 2897 2553 
Q 3291 2138 3291 1491 
Q 3291 838 2898 380 
Q 2506 -78 1856 -78 
Q 1197 -78 733 409 
Q 269 897 269 2144 
Q 269 3369 689 3986 
Q 1109 4603 1906 4603 
Q 2422 4603 2778 4315 
Q 3134 4028 3213 3463 
L 2650 3413 
Q 2497 4141 1875 4141 
Q 1444 4141 1134 3712 
Q 825 3284 825 2363 
L 838 2363 
z
M 1844 384 
Q 2231 384 2472 696 
Q 2713 1009 2713 1453 
Q 2713 1897 2472 2187 
Q 2231 2478 1825 2478 
Q 1453 2478 1184 2204 
Q 916 1931 916 1484 
Q 916 1028 1180 706 
Q 1444 384 1844 384 
z
" transform="scale(0.015625)"/>
       </defs>
       <use xlink:href="#ArialUnicodeMS-30"/>
       <use xlink:href="#ArialUnicodeMS-2e" x="55.615234"/>
       <use xlink:href="#ArialUnicodeMS-36" x="83.398438"/>
      </g>
     </g>
    </g>
    <g id="xtick_5">
     <g id="line2d_5">
      <path d="M 387.365203 239.229375 
L 387.365203 21.789375 
" clip-path="url(#p13c91bfb21)" style="fill: none; stroke: #cccccc; stroke-width: 0.8; stroke-linecap: round"/>
     </g>
     <g id="text_5">
      <!-- 0.8 -->
      <g style="fill: #262626" transform="translate(380.415203 253.387188)scale(0.1 -0.1)">
       <defs>
        <path id="ArialUnicodeMS-38" d="M 2425 2478 
Q 3284 2203 3284 1306 
Q 3284 716 2862 319 
Q 2441 -78 1778 -78 
Q 1109 -78 689 322 
Q 269 722 269 1325 
Q 269 1759 505 2084 
Q 741 2409 1141 2478 
L 1141 2491 
Q 453 2703 453 3419 
Q 453 3925 815 4264 
Q 1178 4603 1766 4603 
Q 2363 4603 2730 4253 
Q 3097 3903 3097 3406 
Q 3097 2731 2425 2491 
L 2425 2478 
z
M 1778 2700 
Q 2094 2700 2308 2901 
Q 2522 3103 2522 3406 
Q 2522 3716 2305 3928 
Q 2088 4141 1772 4141 
Q 1450 4141 1240 3931 
Q 1031 3722 1031 3438 
Q 1031 3097 1247 2898 
Q 1463 2700 1778 2700 
z
M 1778 384 
Q 2175 384 2440 640 
Q 2706 897 2706 1306 
Q 2706 1716 2432 1978 
Q 2159 2241 1766 2241 
Q 1356 2241 1100 1970 
Q 844 1700 844 1319 
Q 844 922 1108 653 
Q 1372 384 1778 384 
z
" transform="scale(0.015625)"/>
       </defs>
       <use xlink:href="#ArialUnicodeMS-30"/>
       <use xlink:href="#ArialUnicodeMS-2e" x="55.615234"/>
       <use xlink:href="#ArialUnicodeMS-38" x="83.398438"/>
      </g>
     </g>
    </g>
    <g id="xtick_6">
     <g id="line2d_6">
      <path d="M 470.141903 239.229375 
L 470.141903 21.789375 
" clip-path="url(#p13c91bfb21)" style="fill: none; stroke: #cccccc; stroke-width: 0.8; stroke-linecap: round"/>
     </g>
     <g id="text_6">
      <!-- 1.0 -->
      <g style="fill: #262626" transform="translate(463.191903 253.387188)scale(0.1 -0.1)">
       <defs>
        <path id="ArialUnicodeMS-31" d="M 2400 0 
L 1838 0 
L 1838 3584 
Q 1416 3184 709 2906 
L 709 3450 
Q 1681 3916 2034 4603 
L 2400 4603 
L 2400 0 
z
" transform="scale(0.015625)"/>
       </defs>
       <use xlink:href="#ArialUnicodeMS-31"/>
       <use xlink:href="#ArialUnicodeMS-2e" x="55.615234"/>
       <use xlink:href="#ArialUnicodeMS-30" x="83.398438"/>
      </g>
     </g>
    </g>
    <g id="text_7">
     <!-- Sentiment Score -->
     <g style="fill: #262626" transform="translate(230.271875 266.537188)scale(0.1 -0.1)">
      <defs>
       <path id="ArialUnicodeMS-53" d="M 3213 3238 
Q 3175 3675 2897 3895 
Q 2619 4116 2100 4116 
Q 1631 4116 1337 3941 
Q 1044 3766 1044 3431 
Q 1044 3134 1270 2989 
Q 1497 2844 2138 2700 
Q 2706 2575 3065 2444 
Q 3425 2313 3681 2036 
Q 3938 1759 3938 1294 
Q 3938 703 3467 312 
Q 2997 -78 2241 -78 
Q 1275 -78 795 353 
Q 316 784 288 1472 
L 863 1522 
Q 903 972 1287 720 
Q 1672 469 2216 469 
Q 2725 469 3039 678 
Q 3353 888 3353 1247 
Q 3353 1622 3025 1794 
Q 2697 1966 1923 2133 
Q 1150 2300 809 2603 
Q 469 2906 469 3391 
Q 469 3941 900 4300 
Q 1331 4659 2075 4659 
Q 2838 4659 3302 4301 
Q 3766 3944 3794 3284 
L 3213 3238 
z
" transform="scale(0.015625)"/>
       <path id="ArialUnicodeMS-65" d="M 3309 1516 
L 825 1516 
Q 859 966 1139 675 
Q 1419 384 1838 384 
Q 2159 384 2378 554 
Q 2597 725 2713 1069 
L 3291 997 
Q 3150 478 2775 200 
Q 2400 -78 1838 -78 
Q 1091 -78 670 380 
Q 250 838 250 1631 
Q 250 2416 658 2903 
Q 1066 3391 1806 3391 
Q 2169 3391 2505 3231 
Q 2841 3072 3075 2689 
Q 3309 2306 3309 1516 
z
M 2731 1978 
Q 2697 2484 2417 2707 
Q 2138 2931 1806 2931 
Q 1409 2931 1153 2665 
Q 897 2400 856 1978 
L 2731 1978 
z
" transform="scale(0.015625)"/>
       <path id="ArialUnicodeMS-6e" d="M 3138 0 
L 2572 0 
L 2572 2016 
Q 2572 2525 2389 2715 
Q 2206 2906 1881 2906 
Q 1631 2906 1407 2784 
Q 1184 2663 1090 2441 
Q 997 2219 997 1813 
L 997 0 
L 434 0 
L 434 3316 
L 941 3316 
L 941 2847 
L 953 2847 
Q 1131 3119 1392 3255 
Q 1653 3391 1997 3391 
Q 2259 3391 2515 3297 
Q 2772 3203 2917 3015 
Q 3063 2828 3100 2615 
Q 3138 2403 3138 2041 
L 3138 0 
z
" transform="scale(0.015625)"/>
       <path id="ArialUnicodeMS-74" d="M 1722 6 
Q 1472 -44 1300 -44 
Q 931 -44 762 86 
Q 594 216 556 416 
Q 519 616 519 972 
L 519 2881 
L 109 2881 
L 109 3316 
L 519 3316 
L 519 4141 
L 1081 4481 
L 1081 3316 
L 1644 3316 
L 1644 2881 
L 1081 2881 
L 1081 941 
Q 1081 691 1132 586 
Q 1184 481 1394 481 
Q 1516 481 1644 506 
L 1722 6 
z
" transform="scale(0.015625)"/>
       <path id="ArialUnicodeMS-69" d="M 991 0 
L 428 0 
L 428 3316 
L 991 3316 
L 991 0 
z
M 991 3944 
L 428 3944 
L 428 4581 
L 991 4581 
L 991 3944 
z
" transform="scale(0.015625)"/>
       <path id="ArialUnicodeMS-6d" d="M 4922 0 
L 4359 0 
L 4359 2094 
Q 4359 2325 4328 2489 
Q 4297 2653 4167 2779 
Q 4038 2906 3763 2906 
Q 3431 2906 3190 2675 
Q 2950 2444 2950 1925 
L 2950 0 
L 2388 0 
L 2388 2156 
Q 2388 2588 2236 2747 
Q 2084 2906 1806 2906 
Q 1444 2906 1211 2656 
Q 978 2406 978 1722 
L 978 0 
L 416 0 
L 416 3316 
L 922 3316 
L 922 2853 
L 934 2853 
Q 1272 3391 1925 3391 
Q 2291 3391 2527 3245 
Q 2763 3100 2869 2809 
Q 3238 3391 3891 3391 
Q 4406 3391 4664 3112 
Q 4922 2834 4922 2278 
L 4922 0 
z
" transform="scale(0.015625)"/>
       <path id="ArialUnicodeMS-20" transform="scale(0.015625)"/>
       <path id="ArialUnicodeMS-63" d="M 3144 1147 
Q 3034 513 2643 217 
Q 2253 -78 1759 -78 
Q 1038 -78 644 395 
Q 250 869 250 1650 
Q 250 2297 476 2686 
Q 703 3075 1043 3233 
Q 1384 3391 1759 3391 
Q 2272 3391 2636 3125 
Q 3000 2859 3084 2344 
L 2541 2259 
Q 2456 2594 2267 2762 
Q 2078 2931 1784 2931 
Q 1313 2931 1069 2597 
Q 825 2263 825 1663 
Q 825 1050 1064 717 
Q 1303 384 1753 384 
Q 2116 384 2323 592 
Q 2531 800 2584 1216 
L 3144 1147 
z
" transform="scale(0.015625)"/>
       <path id="ArialUnicodeMS-6f" d="M 1778 3391 
Q 2450 3391 2892 2953 
Q 3334 2516 3334 1709 
Q 3334 731 2856 326 
Q 2378 -78 1778 -78 
Q 1150 -78 687 337 
Q 225 753 225 1656 
Q 225 2531 672 2961 
Q 1119 3391 1778 3391 
z
M 1778 384 
Q 2259 384 2509 740 
Q 2759 1097 2759 1678 
Q 2759 2300 2476 2615 
Q 2194 2931 1778 2931 
Q 1350 2931 1075 2611 
Q 800 2291 800 1656 
Q 800 1025 1079 704 
Q 1359 384 1778 384 
z
" transform="scale(0.015625)"/>
       <path id="ArialUnicodeMS-72" d="M 2216 3213 
L 2022 2694 
Q 1813 2816 1613 2816 
Q 1297 2816 1134 2533 
Q 972 2250 972 1741 
L 972 0 
L 409 0 
L 409 3316 
L 922 3316 
L 922 2816 
L 934 2816 
Q 1203 3391 1638 3391 
Q 1925 3391 2216 3213 
z
" transform="scale(0.015625)"/>
      </defs>
      <use xlink:href="#ArialUnicodeMS-53"/>
      <use xlink:href="#ArialUnicodeMS-65" x="66.699219"/>
      <use xlink:href="#ArialUnicodeMS-6e" x="122.314453"/>
      <use xlink:href="#ArialUnicodeMS-74" x="177.929688"/>
      <use xlink:href="#ArialUnicodeMS-69" x="205.712891"/>
      <use xlink:href="#ArialUnicodeMS-6d" x="227.929688"/>
      <use xlink:href="#ArialUnicodeMS-65" x="311.230469"/>
      <use xlink:href="#ArialUnicodeMS-6e" x="366.845703"/>
      <use xlink:href="#ArialUnicodeMS-74" x="422.460938"/>
      <use xlink:href="#ArialUnicodeMS-20" x="450.244141"/>
      <use xlink:href="#ArialUnicodeMS-53" x="478.027344"/>
      <use xlink:href="#ArialUnicodeMS-63" x="544.726562"/>
      <use xlink:href="#ArialUnicodeMS-6f" x="594.726562"/>
      <use xlink:href="#ArialUnicodeMS-72" x="650.341797"/>
      <use xlink:href="#ArialUnicodeMS-65" x="683.642578"/>
     </g>
    </g>
   </g>
   <g id="matplotlib.axis_2">
    <g id="ytick_1">
     <g id="line2d_7">
      <path d="M 44.032813 239.229375 
L 490.432812 239.229375 
" clip-path="url(#p13c91bfb21)" style="fill: none; stroke: #cccccc; stroke-width: 0.8; stroke-linecap: round"/>
     </g>
     <g id="text_8">
      <!-- 0 -->
      <g style="fill: #262626" transform="translate(31.471875 242.808281)scale(0.1 -0.1)">
       <use xlink:href="#ArialUnicodeMS-30"/>
      </g>
     </g>
    </g>
    <g id="ytick_2">
     <g id="line2d_8">
      <path d="M 44.032813 205.828453 
L 490.432812 205.828453 
" clip-path="url(#p13c91bfb21)" style="fill: none; stroke: #cccccc; stroke-width: 0.8; stroke-linecap: round"/>
     </g>
     <g id="text_9">
      <!-- 20 -->
      <g style="fill: #262626" transform="translate(25.910938 209.40736)scale(0.1 -0.1)">
       <use xlink:href="#ArialUnicodeMS-32"/>
       <use xlink:href="#ArialUnicodeMS-30" x="55.615234"/>
      </g>
     </g>
    </g>
    <g id="ytick_3">
     <g id="line2d_9">
      <path d="M 44.032813 172.427532 
L 490.432812 172.427532 
" clip-path="url(#p13c91bfb21)" style="fill: none; stroke: #cccccc; stroke-width: 0.8; stroke-linecap: round"/>
     </g>
     <g id="text_10">
      <!-- 40 -->
      <g style="fill: #262626" transform="translate(25.910938 176.006438)scale(0.1 -0.1)">
       <use xlink:href="#ArialUnicodeMS-34"/>
       <use xlink:href="#ArialUnicodeMS-30" x="55.615234"/>
      </g>
     </g>
    </g>
    <g id="ytick_4">
     <g id="line2d_10">
      <path d="M 44.032813 139.02661 
L 490.432812 139.02661 
" clip-path="url(#p13c91bfb21)" style="fill: none; stroke: #cccccc; stroke-width: 0.8; stroke-linecap: round"/>
     </g>
     <g id="text_11">
      <!-- 60 -->
      <g style="fill: #262626" transform="translate(25.910938 142.605516)scale(0.1 -0.1)">
       <use xlink:href="#ArialUnicodeMS-36"/>
       <use xlink:href="#ArialUnicodeMS-30" x="55.615234"/>
      </g>
     </g>
    </g>
    <g id="ytick_5">
     <g id="line2d_11">
      <path d="M 44.032813 105.625688 
L 490.432812 105.625688 
" clip-path="url(#p13c91bfb21)" style="fill: none; stroke: #cccccc; stroke-width: 0.8; stroke-linecap: round"/>
     </g>
     <g id="text_12">
      <!-- 80 -->
      <g style="fill: #262626" transform="translate(25.910938 109.204595)scale(0.1 -0.1)">
       <use xlink:href="#ArialUnicodeMS-38"/>
       <use xlink:href="#ArialUnicodeMS-30" x="55.615234"/>
      </g>
     </g>
    </g>
    <g id="ytick_6">
     <g id="line2d_12">
      <path d="M 44.032813 72.224767 
L 490.432812 72.224767 
" clip-path="url(#p13c91bfb21)" style="fill: none; stroke: #cccccc; stroke-width: 0.8; stroke-linecap: round"/>
     </g>
     <g id="text_13">
      <!-- 100 -->
      <g style="fill: #262626" transform="translate(20.35 75.803673)scale(0.1 -0.1)">
       <use xlink:href="#ArialUnicodeMS-31"/>
       <use xlink:href="#ArialUnicodeMS-30" x="55.615234"/>
       <use xlink:href="#ArialUnicodeMS-30" x="111.230469"/>
      </g>
     </g>
    </g>
    <g id="ytick_7">
     <g id="line2d_13">
      <path d="M 44.032813 38.823845 
L 490.432812 38.823845 
" clip-path="url(#p13c91bfb21)" style="fill: none; stroke: #cccccc; stroke-width: 0.8; stroke-linecap: round"/>
     </g>
     <g id="text_14">
      <!-- 120 -->
      <g style="fill: #262626" transform="translate(20.35 42.402751)scale(0.1 -0.1)">
       <use xlink:href="#ArialUnicodeMS-31"/>
       <use xlink:href="#ArialUnicodeMS-32" x="55.615234"/>
       <use xlink:href="#ArialUnicodeMS-30" x="111.230469"/>
      </g>
     </g>
    </g>
    <g id="text_15">
     <!-- Number of Comments -->
     <g style="fill: #262626" transform="translate(14.357813 179.410156)rotate(-90)scale(0.1 -0.1)">
      <defs>
       <path id="ArialUnicodeMS-4e" d="M 4109 0 
L 3488 0 
L 1094 3597 
L 1081 3597 
L 1081 0 
L 506 0 
L 506 4581 
L 1125 4581 
L 3519 984 
L 3531 984 
L 3531 4581 
L 4109 4581 
L 4109 0 
z
" transform="scale(0.015625)"/>
       <path id="ArialUnicodeMS-75" d="M 3116 0 
L 2613 0 
L 2613 488 
L 2597 488 
Q 2216 -78 1556 -78 
Q 1209 -78 914 83 
Q 619 244 520 526 
Q 422 809 422 1259 
L 422 3316 
L 984 3316 
L 984 1478 
Q 984 1038 1026 847 
Q 1069 656 1247 532 
Q 1425 409 1672 409 
Q 1991 409 2272 629 
Q 2553 850 2553 1544 
L 2553 3316 
L 3116 3316 
L 3116 0 
z
" transform="scale(0.015625)"/>
       <path id="ArialUnicodeMS-62" d="M 1006 2944 
Q 1319 3391 1900 3391 
Q 2541 3391 2925 2925 
Q 3309 2459 3309 1709 
Q 3309 844 2879 383 
Q 2450 -78 1875 -78 
Q 1291 -78 966 416 
L 953 416 
L 953 0 
L 428 0 
L 428 4581 
L 991 4581 
L 991 2944 
L 1006 2944 
z
M 1831 384 
Q 2222 384 2476 720 
Q 2731 1056 2731 1663 
Q 2731 2247 2497 2589 
Q 2263 2931 1850 2931 
Q 1444 2931 1195 2578 
Q 947 2225 947 1684 
Q 947 1156 1050 932 
Q 1153 709 1361 546 
Q 1569 384 1831 384 
z
" transform="scale(0.015625)"/>
       <path id="ArialUnicodeMS-66" d="M 1991 4603 
L 1906 4109 
Q 1738 4141 1575 4141 
Q 1372 4141 1242 4055 
Q 1113 3969 1113 3628 
L 1113 3316 
L 1753 3316 
L 1753 2881 
L 1113 2881 
L 1113 0 
L 550 0 
L 550 2881 
L 50 2881 
L 50 3316 
L 550 3316 
L 550 3675 
Q 550 3925 597 4128 
Q 644 4331 845 4495 
Q 1047 4659 1466 4659 
Q 1716 4659 1991 4603 
z
" transform="scale(0.015625)"/>
       <path id="ArialUnicodeMS-43" d="M 4372 1453 
Q 4172 681 3673 301 
Q 3175 -78 2478 -78 
Q 1353 -78 839 626 
Q 325 1331 325 2322 
Q 325 3419 929 4039 
Q 1534 4659 2484 4659 
Q 3153 4659 3628 4318 
Q 4103 3978 4294 3322 
L 3700 3181 
Q 3550 3659 3244 3900 
Q 2938 4141 2478 4141 
Q 1728 4141 1340 3648 
Q 953 3156 953 2328 
Q 953 1372 1361 906 
Q 1769 441 2425 441 
Q 2963 441 3298 731 
Q 3634 1022 3769 1606 
L 4372 1453 
z
" transform="scale(0.015625)"/>
       <path id="ArialUnicodeMS-73" d="M 2278 2388 
Q 2241 2659 2058 2795 
Q 1875 2931 1550 2931 
Q 1228 2931 1029 2822 
Q 831 2713 831 2503 
Q 831 2306 989 2222 
Q 1147 2138 1613 2016 
Q 2138 1881 2398 1778 
Q 2659 1675 2804 1489 
Q 2950 1303 2950 972 
Q 2950 528 2587 225 
Q 2225 -78 1619 -78 
Q 988 -78 633 189 
Q 278 456 197 991 
L 756 1075 
Q 800 728 1014 556 
Q 1228 384 1613 384 
Q 1981 384 2178 539 
Q 2375 694 2375 916 
Q 2375 1066 2284 1156 
Q 2194 1247 2058 1292 
Q 1922 1338 1447 1453 
Q 741 1622 514 1862 
Q 288 2103 288 2438 
Q 288 2853 619 3122 
Q 950 3391 1509 3391 
Q 2103 3391 2433 3158 
Q 2763 2925 2828 2463 
L 2278 2388 
z
" transform="scale(0.015625)"/>
      </defs>
      <use xlink:href="#ArialUnicodeMS-4e"/>
      <use xlink:href="#ArialUnicodeMS-75" x="72.216797"/>
      <use xlink:href="#ArialUnicodeMS-6d" x="127.832031"/>
      <use xlink:href="#ArialUnicodeMS-62" x="211.132812"/>
      <use xlink:href="#ArialUnicodeMS-65" x="266.748047"/>
      <use xlink:href="#ArialUnicodeMS-72" x="322.363281"/>
      <use xlink:href="#ArialUnicodeMS-20" x="355.664062"/>
      <use xlink:href="#ArialUnicodeMS-6f" x="383.447266"/>
      <use xlink:href="#ArialUnicodeMS-66" x="439.0625"/>
      <use xlink:href="#ArialUnicodeMS-20" x="466.845703"/>
      <use xlink:href="#ArialUnicodeMS-43" x="494.628906"/>
      <use xlink:href="#ArialUnicodeMS-6f" x="566.845703"/>
      <use xlink:href="#ArialUnicodeMS-6d" x="622.460938"/>
      <use xlink:href="#ArialUnicodeMS-6d" x="705.761719"/>
      <use xlink:href="#ArialUnicodeMS-65" x="789.0625"/>
      <use xlink:href="#ArialUnicodeMS-6e" x="844.677734"/>
      <use xlink:href="#ArialUnicodeMS-74" x="900.292969"/>
      <use xlink:href="#ArialUnicodeMS-73" x="928.076172"/>
     </g>
    </g>
   </g>
   <g id="patch_3">
    <path d="M 64.323722 239.229375 
L 77.850994 239.229375 
L 77.850994 232.549191 
L 64.323722 232.549191 
z
" clip-path="url(#p13c91bfb21)" style="fill: #1f77b4; fill-opacity: 0.75; stroke: #ffffff; stroke-linejoin: miter"/>
   </g>
   <g id="patch_4">
    <path d="M 77.850994 239.229375 
L 91.378267 239.229375 
L 91.378267 237.559329 
L 77.850994 237.559329 
z
" clip-path="url(#p13c91bfb21)" style="fill: #1f77b4; fill-opacity: 0.75; stroke: #ffffff; stroke-linejoin: miter"/>
   </g>
   <g id="patch_5">
    <path d="M 91.378267 239.229375 
L 104.90554 239.229375 
L 104.90554 230.879145 
L 91.378267 230.879145 
z
" clip-path="url(#p13c91bfb21)" style="fill: #1f77b4; fill-opacity: 0.75; stroke: #ffffff; stroke-linejoin: miter"/>
   </g>
   <g id="patch_6">
    <path d="M 104.90554 239.229375 
L 118.432813 239.229375 
L 118.432813 235.889283 
L 104.90554 235.889283 
z
" clip-path="url(#p13c91bfb21)" style="fill: #1f77b4; fill-opacity: 0.75; stroke: #ffffff; stroke-linejoin: miter"/>
   </g>
   <g id="patch_7">
    <path d="M 118.432812 239.229375 
L 131.960085 239.229375 
L 131.960085 237.559329 
L 118.432812 237.559329 
z
" clip-path="url(#p13c91bfb21)" style="fill: #1f77b4; fill-opacity: 0.75; stroke: #ffffff; stroke-linejoin: miter"/>
   </g>
   <g id="patch_8">
    <path d="M 131.960085 239.229375 
L 145.487358 239.229375 
L 145.487358 235.889283 
L 131.960085 235.889283 
z
" clip-path="url(#p13c91bfb21)" style="fill: #1f77b4; fill-opacity: 0.75; stroke: #ffffff; stroke-linejoin: miter"/>
   </g>
   <g id="patch_9">
    <path d="M 145.487358 239.229375 
L 159.014631 239.229375 
L 159.014631 237.559329 
L 145.487358 237.559329 
z
" clip-path="url(#p13c91bfb21)" style="fill: #1f77b4; fill-opacity: 0.75; stroke: #ffffff; stroke-linejoin: miter"/>
   </g>
   <g id="patch_10">
    <path d="M 159.014631 239.229375 
L 172.541903 239.229375 
L 172.541903 234.219237 
L 159.014631 234.219237 
z
" clip-path="url(#p13c91bfb21)" style="fill: #1f77b4; fill-opacity: 0.75; stroke: #ffffff; stroke-linejoin: miter"/>
   </g>
   <g id="patch_11">
    <path d="M 172.541903 239.229375 
L 186.069176 239.229375 
L 186.069176 234.219237 
L 172.541903 234.219237 
z
" clip-path="url(#p13c91bfb21)" style="fill: #1f77b4; fill-opacity: 0.75; stroke: #ffffff; stroke-linejoin: miter"/>
   </g>
   <g id="patch_12">
    <path d="M 186.069176 239.229375 
L 199.596449 239.229375 
L 199.596449 237.559329 
L 186.069176 237.559329 
z
" clip-path="url(#p13c91bfb21)" style="fill: #1f77b4; fill-opacity: 0.75; stroke: #ffffff; stroke-linejoin: miter"/>
   </g>
   <g id="patch_13">
    <path d="M 199.596449 239.229375 
L 213.123722 239.229375 
L 213.123722 235.889283 
L 199.596449 235.889283 
z
" clip-path="url(#p13c91bfb21)" style="fill: #1f77b4; fill-opacity: 0.75; stroke: #ffffff; stroke-linejoin: miter"/>
   </g>
   <g id="patch_14">
    <path d="M 213.123722 239.229375 
L 226.650994 239.229375 
L 226.650994 237.559329 
L 213.123722 237.559329 
z
" clip-path="url(#p13c91bfb21)" style="fill: #1f77b4; fill-opacity: 0.75; stroke: #ffffff; stroke-linejoin: miter"/>
   </g>
   <g id="patch_15">
    <path d="M 226.650994 239.229375 
L 240.178267 239.229375 
L 240.178267 239.229375 
L 226.650994 239.229375 
z
" clip-path="url(#p13c91bfb21)" style="fill: #1f77b4; fill-opacity: 0.75; stroke: #ffffff; stroke-linejoin: miter"/>
   </g>
   <g id="patch_16">
    <path d="M 240.178267 239.229375 
L 253.70554 239.229375 
L 253.70554 234.219237 
L 240.178267 234.219237 
z
" clip-path="url(#p13c91bfb21)" style="fill: #1f77b4; fill-opacity: 0.75; stroke: #ffffff; stroke-linejoin: miter"/>
   </g>
   <g id="patch_17">
    <path d="M 253.70554 239.229375 
L 267.232812 239.229375 
L 267.232812 234.219237 
L 253.70554 234.219237 
z
" clip-path="url(#p13c91bfb21)" style="fill: #1f77b4; fill-opacity: 0.75; stroke: #ffffff; stroke-linejoin: miter"/>
   </g>
   <g id="patch_18">
    <path d="M 267.232812 239.229375 
L 280.760085 239.229375 
L 280.760085 227.539052 
L 267.232812 227.539052 
z
" clip-path="url(#p13c91bfb21)" style="fill: #1f77b4; fill-opacity: 0.75; stroke: #ffffff; stroke-linejoin: miter"/>
   </g>
   <g id="patch_19">
    <path d="M 280.760085 239.229375 
L 294.287358 239.229375 
L 294.287358 239.229375 
L 280.760085 239.229375 
z
" clip-path="url(#p13c91bfb21)" style="fill: #1f77b4; fill-opacity: 0.75; stroke: #ffffff; stroke-linejoin: miter"/>
   </g>
   <g id="patch_20">
    <path d="M 294.287358 239.229375 
L 307.814631 239.229375 
L 307.814631 235.889283 
L 294.287358 235.889283 
z
" clip-path="url(#p13c91bfb21)" style="fill: #1f77b4; fill-opacity: 0.75; stroke: #ffffff; stroke-linejoin: miter"/>
   </g>
   <g id="patch_21">
    <path d="M 307.814631 239.229375 
L 321.341903 239.229375 
L 321.341903 237.559329 
L 307.814631 237.559329 
z
" clip-path="url(#p13c91bfb21)" style="fill: #1f77b4; fill-opacity: 0.75; stroke: #ffffff; stroke-linejoin: miter"/>
   </g>
   <g id="patch_22">
    <path d="M 321.341903 239.229375 
L 334.869176 239.229375 
L 334.869176 239.229375 
L 321.341903 239.229375 
z
" clip-path="url(#p13c91bfb21)" style="fill: #1f77b4; fill-opacity: 0.75; stroke: #ffffff; stroke-linejoin: miter"/>
   </g>
   <g id="patch_23">
    <path d="M 334.869176 239.229375 
L 348.396449 239.229375 
L 348.396449 232.549191 
L 334.869176 232.549191 
z
" clip-path="url(#p13c91bfb21)" style="fill: #1f77b4; fill-opacity: 0.75; stroke: #ffffff; stroke-linejoin: miter"/>
   </g>
   <g id="patch_24">
    <path d="M 348.396449 239.229375 
L 361.923722 239.229375 
L 361.923722 232.549191 
L 348.396449 232.549191 
z
" clip-path="url(#p13c91bfb21)" style="fill: #1f77b4; fill-opacity: 0.75; stroke: #ffffff; stroke-linejoin: miter"/>
   </g>
   <g id="patch_25">
    <path d="M 361.923722 239.229375 
L 375.450994 239.229375 
L 375.450994 235.889283 
L 361.923722 235.889283 
z
" clip-path="url(#p13c91bfb21)" style="fill: #1f77b4; fill-opacity: 0.75; stroke: #ffffff; stroke-linejoin: miter"/>
   </g>
   <g id="patch_26">
    <path d="M 375.450994 239.229375 
L 388.978267 239.229375 
L 388.978267 225.869006 
L 375.450994 225.869006 
z
" clip-path="url(#p13c91bfb21)" style="fill: #1f77b4; fill-opacity: 0.75; stroke: #ffffff; stroke-linejoin: miter"/>
   </g>
   <g id="patch_27">
    <path d="M 388.978267 239.229375 
L 402.50554 239.229375 
L 402.50554 234.219237 
L 388.978267 234.219237 
z
" clip-path="url(#p13c91bfb21)" style="fill: #1f77b4; fill-opacity: 0.75; stroke: #ffffff; stroke-linejoin: miter"/>
   </g>
   <g id="patch_28">
    <path d="M 402.50554 239.229375 
L 416.032812 239.229375 
L 416.032812 232.549191 
L 402.50554 232.549191 
z
" clip-path="url(#p13c91bfb21)" style="fill: #1f77b4; fill-opacity: 0.75; stroke: #ffffff; stroke-linejoin: miter"/>
   </g>
   <g id="patch_29">
    <path d="M 416.032812 239.229375 
L 429.560085 239.229375 
L 429.560085 227.539052 
L 416.032812 227.539052 
z
" clip-path="url(#p13c91bfb21)" style="fill: #1f77b4; fill-opacity: 0.75; stroke: #ffffff; stroke-linejoin: miter"/>
   </g>
   <g id="patch_30">
    <path d="M 429.560085 239.229375 
L 443.087358 239.229375 
L 443.087358 222.528914 
L 429.560085 222.528914 
z
" clip-path="url(#p13c91bfb21)" style="fill: #1f77b4; fill-opacity: 0.75; stroke: #ffffff; stroke-linejoin: miter"/>
   </g>
   <g id="patch_31">
    <path d="M 443.087358 239.229375 
L 456.614631 239.229375 
L 456.614631 220.858868 
L 443.087358 220.858868 
z
" clip-path="url(#p13c91bfb21)" style="fill: #1f77b4; fill-opacity: 0.75; stroke: #ffffff; stroke-linejoin: miter"/>
   </g>
   <g id="patch_32">
    <path d="M 456.614631 239.229375 
L 470.141903 239.229375 
L 470.141903 32.143661 
L 456.614631 32.143661 
z
" clip-path="url(#p13c91bfb21)" style="fill: #1f77b4; fill-opacity: 0.75; stroke: #ffffff; stroke-linejoin: miter"/>
   </g>
   <g id="patch_33">
    <path d="M 44.032813 239.229375 
L 44.032813 21.789375 
" style="fill: none; stroke: #cccccc; stroke-width: 0.8; stroke-linejoin: miter; stroke-linecap: square"/>
   </g>
   <g id="patch_34">
    <path d="M 490.432812 239.229375 
L 490.432812 21.789375 
" style="fill: none; stroke: #cccccc; stroke-width: 0.8; stroke-linejoin: miter; stroke-linecap: square"/>
   </g>
   <g id="patch_35">
    <path d="M 44.032813 239.229375 
L 490.432812 239.229375 
" style="fill: none; stroke: #cccccc; stroke-width: 0.8; stroke-linejoin: miter; stroke-linecap: square"/>
   </g>
   <g id="patch_36">
    <path d="M 44.032813 21.789375 
L 490.432812 21.789375 
" style="fill: none; stroke: #cccccc; stroke-width: 0.8; stroke-linejoin: miter; stroke-linecap: square"/>
   </g>
   <g id="text_16">
    <!-- Distribution of Sentiment Scores -->
    <g style="fill: #262626" transform="translate(181.532188 15.789375)scale(0.12 -0.12)">
     <defs>
      <path id="ArialUnicodeMS-44" d="M 513 4581 
L 2094 4581 
Q 2509 4581 2809 4539 
Q 3109 4497 3382 4333 
Q 3656 4169 3861 3881 
Q 4066 3594 4183 3220 
Q 4300 2847 4300 2316 
Q 4300 1303 3819 651 
Q 3338 0 2163 0 
L 513 0 
L 513 4581 
z
M 1119 544 
L 2100 544 
Q 2400 544 2636 581 
Q 2872 619 3114 784 
Q 3356 950 3515 1328 
Q 3675 1706 3675 2328 
Q 3675 2672 3614 2970 
Q 3553 3269 3389 3514 
Q 3225 3759 3012 3873 
Q 2800 3988 2598 4013 
Q 2397 4038 2081 4038 
L 1119 4038 
L 1119 544 
z
" transform="scale(0.015625)"/>
     </defs>
     <use xlink:href="#ArialUnicodeMS-44"/>
     <use xlink:href="#ArialUnicodeMS-69" x="72.216797"/>
     <use xlink:href="#ArialUnicodeMS-73" x="94.433594"/>
     <use xlink:href="#ArialUnicodeMS-74" x="144.433594"/>
     <use xlink:href="#ArialUnicodeMS-72" x="172.216797"/>
     <use xlink:href="#ArialUnicodeMS-69" x="205.517578"/>
     <use xlink:href="#ArialUnicodeMS-62" x="227.734375"/>
     <use xlink:href="#ArialUnicodeMS-75" x="283.349609"/>
     <use xlink:href="#ArialUnicodeMS-74" x="338.964844"/>
     <use xlink:href="#ArialUnicodeMS-69" x="366.748047"/>
     <use xlink:href="#ArialUnicodeMS-6f" x="388.964844"/>
     <use xlink:href="#ArialUnicodeMS-6e" x="444.580078"/>
     <use xlink:href="#ArialUnicodeMS-20" x="500.195312"/>
     <use xlink:href="#ArialUnicodeMS-6f" x="527.978516"/>
     <use xlink:href="#ArialUnicodeMS-66" x="583.59375"/>
     <use xlink:href="#ArialUnicodeMS-20" x="611.376953"/>
     <use xlink:href="#ArialUnicodeMS-53" x="639.160156"/>
     <use xlink:href="#ArialUnicodeMS-65" x="705.859375"/>
     <use xlink:href="#ArialUnicodeMS-6e" x="761.474609"/>
     <use xlink:href="#ArialUnicodeMS-74" x="817.089844"/>
     <use xlink:href="#ArialUnicodeMS-69" x="844.873047"/>
     <use xlink:href="#ArialUnicodeMS-6d" x="867.089844"/>
     <use xlink:href="#ArialUnicodeMS-65" x="950.390625"/>
     <use xlink:href="#ArialUnicodeMS-6e" x="1006.005859"/>
     <use xlink:href="#ArialUnicodeMS-74" x="1061.621094"/>
     <use xlink:href="#ArialUnicodeMS-20" x="1089.404297"/>
     <use xlink:href="#ArialUnicodeMS-53" x="1117.1875"/>
     <use xlink:href="#ArialUnicodeMS-63" x="1183.886719"/>
     <use xlink:href="#ArialUnicodeMS-6f" x="1233.886719"/>
     <use xlink:href="#ArialUnicodeMS-72" x="1289.501953"/>
     <use xlink:href="#ArialUnicodeMS-65" x="1322.802734"/>
     <use xlink:href="#ArialUnicodeMS-73" x="1378.417969"/>
    </g>
   </g>
  </g>
 </g>
 <defs>
  <clipPath id="p13c91bfb21">
   <rect x="44.032813" y="21.789375" width="446.4" height="217.44"/>
  </clipPath>
 </defs>
</svg>
