<?xml version="1.0" encoding="utf-8" standalone="no"?>
<!DOCTYPE svg PUBLIC "-//W3C//DTD SVG 1.1//EN"
  "http://www.w3.org/Graphics/SVG/1.1/DTD/svg11.dtd">
<svg xmlns:xlink="http://www.w3.org/1999/xlink" width="486.510937pt" height="275.875625pt" viewBox="0 0 486.510937 275.875625" xmlns="http://www.w3.org/2000/svg" version="1.1">
 <metadata>
  <rdf:RDF xmlns:dc="http://purl.org/dc/elements/1.1/" xmlns:cc="http://creativecommons.org/ns#" xmlns:rdf="http://www.w3.org/1999/02/22-rdf-syntax-ns#">
   <cc:Work>
    <dc:type rdf:resource="http://purl.org/dc/dcmitype/StillImage"/>
    <dc:date>2023-11-24T15:51:29.756294</dc:date>
    <dc:format>image/svg+xml</dc:format>
    <dc:creator>
     <cc:Agent>
      <dc:title>Matplotlib v3.5.1, https://matplotlib.org/</dc:title>
     </cc:Agent>
    </dc:creator>
   </cc:Work>
  </rdf:RDF>
 </metadata>
 <defs>
  <style type="text/css">*{stroke-linejoin: round; stroke-linecap: butt}</style>
 </defs>
 <g id="figure_1">
  <g id="patch_1">
   <path d="M 0 275.875625 
L 486.510937 275.875625 
L 486.510937 0 
L 0 0 
z
" style="fill: #ffffff"/>
  </g>
  <g id="axes_1">
   <g id="patch_2">
    <path d="M 32.910938 239.375625 
L 479.310937 239.375625 
L 479.310937 21.935625 
L 32.910938 21.935625 
z
" style="fill: #ffffff"/>
   </g>
   <g id="matplotlib.axis_1">
    <g id="xtick_1">
     <g id="line2d_1">
      <path d="M 76.058111 239.375625 
L 76.058111 21.935625 
" clip-path="url(#p2f52e9d957)" style="fill: none; stroke: #cccccc; stroke-width: 0.8; stroke-linecap: round"/>
     </g>
     <g id="text_1">
      <!-- 0 -->
      <g style="fill: #262626" transform="translate(73.277643 253.533438)scale(0.1 -0.1)">
       <defs>
        <path id="ArialUnicodeMS-30" d="M 1778 4603 
Q 3272 4603 3272 2259 
Q 3272 1075 2886 498 
Q 2500 -78 1778 -78 
Q 288 -78 288 2259 
Q 288 3444 673 4023 
Q 1059 4603 1778 4603 
z
M 1778 384 
Q 2231 384 2462 823 
Q 2694 1263 2694 2259 
Q 2694 2953 2592 3351 
Q 2491 3750 2286 3945 
Q 2081 4141 1772 4141 
Q 1319 4141 1091 3694 
Q 863 3247 863 2259 
Q 863 1575 966 1175 
Q 1069 775 1272 579 
Q 1475 384 1778 384 
z
" transform="scale(0.015625)"/>
       </defs>
       <use xlink:href="#ArialUnicodeMS-30"/>
      </g>
     </g>
    </g>
    <g id="xtick_2">
     <g id="line2d_2">
      <path d="M 166.355416 239.375625 
L 166.355416 21.935625 
" clip-path="url(#p2f52e9d957)" style="fill: none; stroke: #cccccc; stroke-width: 0.8; stroke-linecap: round"/>
     </g>
     <g id="text_2">
      <!-- 500 -->
      <g style="fill: #262626" transform="translate(158.01401 253.533438)scale(0.1 -0.1)">
       <defs>
        <path id="ArialUnicodeMS-35" d="M 1013 2753 
Q 1431 3041 1881 3041 
Q 2453 3041 2878 2636 
Q 3303 2231 3303 1556 
Q 3303 875 2872 398 
Q 2441 -78 1741 -78 
Q 1169 -78 750 245 
Q 331 569 269 1203 
L 856 1247 
Q 928 813 1162 598 
Q 1397 384 1741 384 
Q 2169 384 2434 707 
Q 2700 1031 2700 1503 
Q 2700 1984 2428 2262 
Q 2156 2541 1728 2541 
Q 1188 2541 897 2100 
L 366 2163 
L 813 4519 
L 3084 4519 
L 3084 3975 
L 1259 3975 
L 1013 2753 
z
" transform="scale(0.015625)"/>
       </defs>
       <use xlink:href="#ArialUnicodeMS-35"/>
       <use xlink:href="#ArialUnicodeMS-30" x="55.615234"/>
       <use xlink:href="#ArialUnicodeMS-30" x="111.230469"/>
      </g>
     </g>
    </g>
    <g id="xtick_3">
     <g id="line2d_3">
      <path d="M 256.652721 239.375625 
L 256.652721 21.935625 
" clip-path="url(#p2f52e9d957)" style="fill: none; stroke: #cccccc; stroke-width: 0.8; stroke-linecap: round"/>
     </g>
     <g id="text_3">
      <!-- 1000 -->
      <g style="fill: #262626" transform="translate(245.530846 253.533438)scale(0.1 -0.1)">
       <defs>
        <path id="ArialUnicodeMS-31" d="M 2400 0 
L 1838 0 
L 1838 3584 
Q 1416 3184 709 2906 
L 709 3450 
Q 1681 3916 2034 4603 
L 2400 4603 
L 2400 0 
z
" transform="scale(0.015625)"/>
       </defs>
       <use xlink:href="#ArialUnicodeMS-31"/>
       <use xlink:href="#ArialUnicodeMS-30" x="55.615234"/>
       <use xlink:href="#ArialUnicodeMS-30" x="111.230469"/>
       <use xlink:href="#ArialUnicodeMS-30" x="166.845703"/>
      </g>
     </g>
    </g>
    <g id="xtick_4">
     <g id="line2d_4">
      <path d="M 346.950026 239.375625 
L 346.950026 21.935625 
" clip-path="url(#p2f52e9d957)" style="fill: none; stroke: #cccccc; stroke-width: 0.8; stroke-linecap: round"/>
     </g>
     <g id="text_4">
      <!-- 1500 -->
      <g style="fill: #262626" transform="translate(335.828151 253.533438)scale(0.1 -0.1)">
       <use xlink:href="#ArialUnicodeMS-31"/>
       <use xlink:href="#ArialUnicodeMS-35" x="55.615234"/>
       <use xlink:href="#ArialUnicodeMS-30" x="111.230469"/>
       <use xlink:href="#ArialUnicodeMS-30" x="166.845703"/>
      </g>
     </g>
    </g>
    <g id="xtick_5">
     <g id="line2d_5">
      <path d="M 437.247331 239.375625 
L 437.247331 21.935625 
" clip-path="url(#p2f52e9d957)" style="fill: none; stroke: #cccccc; stroke-width: 0.8; stroke-linecap: round"/>
     </g>
     <g id="text_5">
      <!-- 2000 -->
      <g style="fill: #262626" transform="translate(426.125456 253.533438)scale(0.1 -0.1)">
       <defs>
        <path id="ArialUnicodeMS-32" d="M 3231 0 
L 197 0 
Q 197 388 467 784 
Q 738 1181 1478 1778 
Q 1931 2141 2287 2539 
Q 2644 2938 2644 3341 
Q 2644 3688 2398 3914 
Q 2153 4141 1778 4141 
Q 1400 4141 1144 3908 
Q 888 3675 884 3213 
L 306 3278 
Q 359 3922 764 4262 
Q 1169 4603 1791 4603 
Q 2466 4603 2842 4229 
Q 3219 3856 3219 3328 
Q 3219 2888 2901 2436 
Q 2584 1984 1638 1228 
Q 1141 831 978 544 
L 3231 544 
L 3231 0 
z
" transform="scale(0.015625)"/>
       </defs>
       <use xlink:href="#ArialUnicodeMS-32"/>
       <use xlink:href="#ArialUnicodeMS-30" x="55.615234"/>
       <use xlink:href="#ArialUnicodeMS-30" x="111.230469"/>
       <use xlink:href="#ArialUnicodeMS-30" x="166.845703"/>
      </g>
     </g>
    </g>
    <g id="text_6">
     <!-- Votes -->
     <g style="fill: #262626" transform="translate(243.325781 266.683438)scale(0.1 -0.1)">
      <defs>
       <path id="ArialUnicodeMS-56" d="M 4225 4581 
L 2431 0 
L 1813 0 
L 38 4581 
L 691 4581 
L 1881 1253 
Q 2016 934 2119 506 
L 2131 506 
Q 2225 872 2369 1253 
L 3609 4581 
L 4225 4581 
z
" transform="scale(0.015625)"/>
       <path id="ArialUnicodeMS-6f" d="M 1778 3391 
Q 2450 3391 2892 2953 
Q 3334 2516 3334 1709 
Q 3334 731 2856 326 
Q 2378 -78 1778 -78 
Q 1150 -78 687 337 
Q 225 753 225 1656 
Q 225 2531 672 2961 
Q 1119 3391 1778 3391 
z
M 1778 384 
Q 2259 384 2509 740 
Q 2759 1097 2759 1678 
Q 2759 2300 2476 2615 
Q 2194 2931 1778 2931 
Q 1350 2931 1075 2611 
Q 800 2291 800 1656 
Q 800 1025 1079 704 
Q 1359 384 1778 384 
z
" transform="scale(0.015625)"/>
       <path id="ArialUnicodeMS-74" d="M 1722 6 
Q 1472 -44 1300 -44 
Q 931 -44 762 86 
Q 594 216 556 416 
Q 519 616 519 972 
L 519 2881 
L 109 2881 
L 109 3316 
L 519 3316 
L 519 4141 
L 1081 4481 
L 1081 3316 
L 1644 3316 
L 1644 2881 
L 1081 2881 
L 1081 941 
Q 1081 691 1132 586 
Q 1184 481 1394 481 
Q 1516 481 1644 506 
L 1722 6 
z
" transform="scale(0.015625)"/>
       <path id="ArialUnicodeMS-65" d="M 3309 1516 
L 825 1516 
Q 859 966 1139 675 
Q 1419 384 1838 384 
Q 2159 384 2378 554 
Q 2597 725 2713 1069 
L 3291 997 
Q 3150 478 2775 200 
Q 2400 -78 1838 -78 
Q 1091 -78 670 380 
Q 250 838 250 1631 
Q 250 2416 658 2903 
Q 1066 3391 1806 3391 
Q 2169 3391 2505 3231 
Q 2841 3072 3075 2689 
Q 3309 2306 3309 1516 
z
M 2731 1978 
Q 2697 2484 2417 2707 
Q 2138 2931 1806 2931 
Q 1409 2931 1153 2665 
Q 897 2400 856 1978 
L 2731 1978 
z
" transform="scale(0.015625)"/>
       <path id="ArialUnicodeMS-73" d="M 2278 2388 
Q 2241 2659 2058 2795 
Q 1875 2931 1550 2931 
Q 1228 2931 1029 2822 
Q 831 2713 831 2503 
Q 831 2306 989 2222 
Q 1147 2138 1613 2016 
Q 2138 1881 2398 1778 
Q 2659 1675 2804 1489 
Q 2950 1303 2950 972 
Q 2950 528 2587 225 
Q 2225 -78 1619 -78 
Q 988 -78 633 189 
Q 278 456 197 991 
L 756 1075 
Q 800 728 1014 556 
Q 1228 384 1613 384 
Q 1981 384 2178 539 
Q 2375 694 2375 916 
Q 2375 1066 2284 1156 
Q 2194 1247 2058 1292 
Q 1922 1338 1447 1453 
Q 741 1622 514 1862 
Q 288 2103 288 2438 
Q 288 2853 619 3122 
Q 950 3391 1509 3391 
Q 2103 3391 2433 3158 
Q 2763 2925 2828 2463 
L 2278 2388 
z
" transform="scale(0.015625)"/>
      </defs>
      <use xlink:href="#ArialUnicodeMS-56"/>
      <use xlink:href="#ArialUnicodeMS-6f" x="66.699219"/>
      <use xlink:href="#ArialUnicodeMS-74" x="122.314453"/>
      <use xlink:href="#ArialUnicodeMS-65" x="150.097656"/>
      <use xlink:href="#ArialUnicodeMS-73" x="205.712891"/>
     </g>
    </g>
   </g>
   <g id="matplotlib.axis_2">
    <g id="ytick_1">
     <g id="line2d_6">
      <path d="M 32.910938 228.253625 
L 479.310937 228.253625 
" clip-path="url(#p2f52e9d957)" style="fill: none; stroke: #cccccc; stroke-width: 0.8; stroke-linecap: round"/>
     </g>
     <g id="text_7">
      <!-- 0 -->
      <g style="fill: #262626" transform="translate(20.35 231.832531)scale(0.1 -0.1)">
       <use xlink:href="#ArialUnicodeMS-30"/>
      </g>
     </g>
    </g>
    <g id="ytick_2">
     <g id="line2d_7">
      <path d="M 32.910938 195.720958 
L 479.310937 195.720958 
" clip-path="url(#p2f52e9d957)" style="fill: none; stroke: #cccccc; stroke-width: 0.8; stroke-linecap: round"/>
     </g>
     <g id="text_8">
      <!-- 1 -->
      <g style="fill: #262626" transform="translate(20.35 199.299865)scale(0.1 -0.1)">
       <use xlink:href="#ArialUnicodeMS-31"/>
      </g>
     </g>
    </g>
    <g id="ytick_3">
     <g id="line2d_8">
      <path d="M 32.910938 163.188292 
L 479.310937 163.188292 
" clip-path="url(#p2f52e9d957)" style="fill: none; stroke: #cccccc; stroke-width: 0.8; stroke-linecap: round"/>
     </g>
     <g id="text_9">
      <!-- 2 -->
      <g style="fill: #262626" transform="translate(20.35 166.767198)scale(0.1 -0.1)">
       <use xlink:href="#ArialUnicodeMS-32"/>
      </g>
     </g>
    </g>
    <g id="ytick_4">
     <g id="line2d_9">
      <path d="M 32.910938 130.655625 
L 479.310937 130.655625 
" clip-path="url(#p2f52e9d957)" style="fill: none; stroke: #cccccc; stroke-width: 0.8; stroke-linecap: round"/>
     </g>
     <g id="text_10">
      <!-- 3 -->
      <g style="fill: #262626" transform="translate(20.35 134.234531)scale(0.1 -0.1)">
       <defs>
        <path id="ArialUnicodeMS-33" d="M 2425 2478 
Q 2850 2397 3067 2067 
Q 3284 1738 3284 1350 
Q 3284 725 2829 323 
Q 2375 -78 1741 -78 
Q 1134 -78 740 275 
Q 347 628 281 1209 
L 844 1288 
Q 928 834 1151 609 
Q 1375 384 1741 384 
Q 2134 384 2407 661 
Q 2681 938 2681 1338 
Q 2681 1722 2432 1975 
Q 2184 2228 1784 2228 
Q 1622 2228 1388 2169 
L 1453 2663 
Q 1678 2663 1809 2684 
Q 1941 2706 2103 2790 
Q 2266 2875 2372 3033 
Q 2478 3191 2478 3425 
Q 2478 3766 2251 3953 
Q 2025 4141 1728 4141 
Q 1388 4141 1173 3925 
Q 959 3709 903 3309 
L 341 3413 
Q 450 4009 823 4306 
Q 1197 4603 1716 4603 
Q 2288 4603 2670 4258 
Q 3053 3913 3053 3413 
Q 3053 2772 2425 2491 
L 2425 2478 
z
" transform="scale(0.015625)"/>
       </defs>
       <use xlink:href="#ArialUnicodeMS-33"/>
      </g>
     </g>
    </g>
    <g id="ytick_5">
     <g id="line2d_10">
      <path d="M 32.910938 98.122958 
L 479.310937 98.122958 
" clip-path="url(#p2f52e9d957)" style="fill: none; stroke: #cccccc; stroke-width: 0.8; stroke-linecap: round"/>
     </g>
     <g id="text_11">
      <!-- 4 -->
      <g style="fill: #262626" transform="translate(20.35 101.701865)scale(0.1 -0.1)">
       <defs>
        <path id="ArialUnicodeMS-34" d="M 3263 1094 
L 2644 1094 
L 2644 0 
L 2081 0 
L 2081 1094 
L 97 1094 
L 97 1613 
L 2181 4581 
L 2644 4581 
L 2644 1613 
L 3263 1613 
L 3263 1094 
z
M 2081 1613 
L 2081 3681 
L 2069 3681 
L 647 1613 
L 2081 1613 
z
" transform="scale(0.015625)"/>
       </defs>
       <use xlink:href="#ArialUnicodeMS-34"/>
      </g>
     </g>
    </g>
    <g id="ytick_6">
     <g id="line2d_11">
      <path d="M 32.910938 65.590292 
L 479.310937 65.590292 
" clip-path="url(#p2f52e9d957)" style="fill: none; stroke: #cccccc; stroke-width: 0.8; stroke-linecap: round"/>
     </g>
     <g id="text_12">
      <!-- 5 -->
      <g style="fill: #262626" transform="translate(20.35 69.169198)scale(0.1 -0.1)">
       <use xlink:href="#ArialUnicodeMS-35"/>
      </g>
     </g>
    </g>
    <g id="ytick_7">
     <g id="line2d_12">
      <path d="M 32.910938 33.057625 
L 479.310937 33.057625 
" clip-path="url(#p2f52e9d957)" style="fill: none; stroke: #cccccc; stroke-width: 0.8; stroke-linecap: round"/>
     </g>
     <g id="text_13">
      <!-- 6 -->
      <g style="fill: #262626" transform="translate(20.35 36.636531)scale(0.1 -0.1)">
       <defs>
        <path id="ArialUnicodeMS-36" d="M 838 2363 
Q 1225 2969 1941 2969 
Q 2503 2969 2897 2553 
Q 3291 2138 3291 1491 
Q 3291 838 2898 380 
Q 2506 -78 1856 -78 
Q 1197 -78 733 409 
Q 269 897 269 2144 
Q 269 3369 689 3986 
Q 1109 4603 1906 4603 
Q 2422 4603 2778 4315 
Q 3134 4028 3213 3463 
L 2650 3413 
Q 2497 4141 1875 4141 
Q 1444 4141 1134 3712 
Q 825 3284 825 2363 
L 838 2363 
z
M 1844 384 
Q 2231 384 2472 696 
Q 2713 1009 2713 1453 
Q 2713 1897 2472 2187 
Q 2231 2478 1825 2478 
Q 1453 2478 1184 2204 
Q 916 1931 916 1484 
Q 916 1028 1180 706 
Q 1444 384 1844 384 
z
" transform="scale(0.015625)"/>
       </defs>
       <use xlink:href="#ArialUnicodeMS-36"/>
      </g>
     </g>
    </g>
    <g id="text_14">
     <!-- Stars -->
     <g style="fill: #262626" transform="translate(14.357813 142.325156)rotate(-90)scale(0.1 -0.1)">
      <defs>
       <path id="ArialUnicodeMS-53" d="M 3213 3238 
Q 3175 3675 2897 3895 
Q 2619 4116 2100 4116 
Q 1631 4116 1337 3941 
Q 1044 3766 1044 3431 
Q 1044 3134 1270 2989 
Q 1497 2844 2138 2700 
Q 2706 2575 3065 2444 
Q 3425 2313 3681 2036 
Q 3938 1759 3938 1294 
Q 3938 703 3467 312 
Q 2997 -78 2241 -78 
Q 1275 -78 795 353 
Q 316 784 288 1472 
L 863 1522 
Q 903 972 1287 720 
Q 1672 469 2216 469 
Q 2725 469 3039 678 
Q 3353 888 3353 1247 
Q 3353 1622 3025 1794 
Q 2697 1966 1923 2133 
Q 1150 2300 809 2603 
Q 469 2906 469 3391 
Q 469 3941 900 4300 
Q 1331 4659 2075 4659 
Q 2838 4659 3302 4301 
Q 3766 3944 3794 3284 
L 3213 3238 
z
" transform="scale(0.015625)"/>
       <path id="ArialUnicodeMS-61" d="M 3303 0 
L 2713 0 
Q 2631 156 2597 409 
Q 2031 -78 1375 -78 
Q 850 -78 547 184 
Q 244 447 244 878 
Q 244 1291 536 1558 
Q 828 1825 1550 1913 
L 2075 1991 
Q 2369 2038 2559 2106 
Q 2559 2359 2543 2464 
Q 2528 2569 2451 2681 
Q 2375 2794 2206 2862 
Q 2038 2931 1753 2931 
Q 1391 2931 1180 2797 
Q 969 2663 891 2297 
L 341 2369 
Q 431 2878 806 3134 
Q 1181 3391 1838 3391 
Q 2434 3391 2714 3214 
Q 2994 3038 3058 2788 
Q 3122 2538 3122 2144 
L 3122 1388 
Q 3122 697 3148 461 
Q 3175 225 3303 0 
z
M 2559 1459 
L 2559 1663 
Q 2119 1516 1481 1430 
Q 844 1344 844 891 
Q 844 663 1016 514 
Q 1188 366 1509 366 
Q 1925 366 2242 614 
Q 2559 863 2559 1459 
z
" transform="scale(0.015625)"/>
       <path id="ArialUnicodeMS-72" d="M 2216 3213 
L 2022 2694 
Q 1813 2816 1613 2816 
Q 1297 2816 1134 2533 
Q 972 2250 972 1741 
L 972 0 
L 409 0 
L 409 3316 
L 922 3316 
L 922 2816 
L 934 2816 
Q 1203 3391 1638 3391 
Q 1925 3391 2216 3213 
z
" transform="scale(0.015625)"/>
      </defs>
      <use xlink:href="#ArialUnicodeMS-53"/>
      <use xlink:href="#ArialUnicodeMS-74" x="66.699219"/>
      <use xlink:href="#ArialUnicodeMS-61" x="94.482422"/>
      <use xlink:href="#ArialUnicodeMS-72" x="150.097656"/>
      <use xlink:href="#ArialUnicodeMS-73" x="183.398438"/>
     </g>
    </g>
   </g>
   <g id="PathCollection_1">
    <path d="M 77.775259 221.00703 
L 80.018475 221.089088 
L 82.261691 220.968962 
L 83.424088 220.800349 
L 84.504907 220.650755 
L 86.748123 220.1293 
L 88.010425 219.707685 
L 88.99134 219.377296 
L 90.718662 218.615022 
L 91.234556 218.378058 
L 92.772409 217.522359 
L 93.477772 217.100659 
L 94.463598 216.429695 
L 95.720988 215.48038 
L 95.896804 215.337032 
L 97.151096 214.244369 
L 97.964204 213.436603 
L 98.244146 213.151705 
L 99.232689 212.059042 
L 100.083456 210.966379 
L 100.20742 210.793073 
L 100.885249 209.873715 
L 101.589455 208.781052 
L 102.19776 207.688389 
L 102.450636 207.17885 
L 102.764599 206.595726 
L 103.287263 205.503062 
L 103.738064 204.410399 
L 104.12602 203.317736 
L 104.458827 202.225072 
L 104.693852 201.327085 
L 104.752467 201.132409 
L 105.039896 200.039746 
L 105.282412 198.947082 
L 105.485295 197.854419 
L 105.653318 196.761756 
L 105.790871 195.669092 
L 105.902083 194.576429 
L 105.990921 193.483766 
L 106.061273 192.391102 
L 106.117014 191.298439 
L 106.162049 190.205776 
L 106.200326 189.113112 
L 106.235824 188.020449 
L 106.272497 186.927786 
L 106.31418 185.835122 
L 106.364461 184.742459 
L 106.426518 183.649796 
L 106.502937 182.557133 
L 106.59553 181.464469 
L 106.705184 180.371806 
L 106.831747 179.279143 
L 106.937068 178.469023 
L 106.981507 178.186479 
L 107.168413 177.093816 
L 107.36692 176.001153 
L 107.572332 174.908489 
L 107.779426 173.815826 
L 107.982736 172.723163 
L 108.176832 171.630499 
L 108.356546 170.537836 
L 108.51714 169.445173 
L 108.654419 168.352509 
L 108.764784 167.259846 
L 108.845241 166.167183 
L 108.893385 165.074519 
L 108.907369 163.981856 
L 108.88587 162.889193 
L 108.828068 161.79653 
L 108.733634 160.703866 
L 108.60275 159.611203 
L 108.436141 158.51854 
L 108.235125 157.425876 
L 108.001686 156.333213 
L 107.738535 155.24055 
L 107.449173 154.147886 
L 107.137917 153.055223 
L 106.937068 152.38187 
L 106.82949 151.96256 
L 106.542941 150.869896 
L 106.252881 149.777233 
L 105.9651 148.68457 
L 105.685419 147.591906 
L 105.419403 146.499243 
L 105.172058 145.40658 
L 104.947566 144.313916 
L 104.749081 143.221253 
L 104.693852 142.866987 
L 104.594862 142.12859 
L 104.473343 141.035927 
L 104.376608 139.943263 
L 104.303764 138.8506 
L 104.253379 137.757937 
L 104.223719 136.665273 
L 104.212981 135.57261 
L 104.219499 134.479947 
L 104.241912 133.387283 
L 104.279274 132.29462 
L 104.331113 131.201957 
L 104.397425 130.109293 
L 104.478619 129.01663 
L 104.575407 127.923967 
L 104.68865 126.831303 
L 104.693852 126.788891 
L 104.843144 125.73864 
L 105.020943 124.645977 
L 105.221618 123.553313 
L 105.445085 122.46065 
L 105.690517 121.367987 
L 105.956303 120.275323 
L 106.240101 119.18266 
L 106.53897 118.089997 
L 106.849555 116.997334 
L 106.937068 116.708149 
L 107.227995 115.90467 
L 107.636596 114.812007 
L 108.048651 113.719344 
L 108.460151 112.62668 
L 108.86764 111.534017 
L 109.180284 110.691847 
L 109.29514 110.441354 
L 109.807014 109.34869 
L 110.306056 108.256027 
L 110.790561 107.163364 
L 111.259465 106.0707 
L 111.4235 105.688604 
L 111.810573 104.978037 
L 112.395494 103.885374 
L 112.95811 102.79271 
L 113.49842 101.700047 
L 113.666716 101.358215 
L 114.142985 100.607384 
L 114.816899 99.51472 
L 115.45909 98.422057 
L 115.909932 97.627248 
L 116.128105 97.329394 
L 116.917183 96.236731 
L 117.659864 95.144067 
L 118.153149 94.383793 
L 118.428453 94.051404 
L 119.30792 92.958741 
L 120.123488 91.866077 
L 120.396365 91.48549 
L 121.034497 90.773414 
L 121.954151 89.680751 
L 122.639581 88.801689 
L 122.842577 88.588087 
L 123.838444 87.495424 
L 124.746825 86.402761 
L 124.882797 86.23093 
L 125.752545 85.310097 
L 126.701717 84.217434 
L 127.126013 83.693506 
L 127.665428 83.124771 
L 128.632682 82.032107 
L 129.369229 81.125033 
L 129.543318 80.939444 
L 130.507917 79.846781 
L 131.386312 78.754117 
L 131.612445 78.449101 
L 132.284146 77.661454 
L 133.131679 76.568791 
L 133.855661 75.526838 
L 133.895754 75.476128 
L 134.672178 74.383464 
L 135.348169 73.290801 
L 135.922433 72.198138 
L 136.098877 71.788695 
L 136.431246 71.105474 
L 136.842379 70.012811 
L 137.128761 68.920148 
L 137.28537 67.827484 
L 137.306058 66.734821 
L 137.183399 65.642158 
L 136.908475 64.549494 
L 136.470632 63.456831 
L 136.098877 62.786853 
L 135.884528 62.364168 
L 135.171036 61.271504 
L 134.271816 60.178841 
L 133.855661 59.755695 
L 133.268362 59.086178 
L 132.13195 57.993514 
L 131.612445 57.560295 
L 130.928677 56.900851 
L 129.61973 55.808188 
L 129.369229 55.620369 
L 128.355464 54.715524 
L 127.126013 53.756963 
L 126.985442 53.622861 
L 125.728331 52.530198 
L 124.882797 51.877353 
L 124.424111 51.437535 
L 123.159066 50.344871 
L 122.639581 49.936853 
L 121.941444 49.252208 
L 120.685577 48.159545 
L 120.396365 47.926341 
L 119.539529 47.066881 
L 118.292426 45.974218 
L 118.153149 45.859408 
L 117.188403 44.881555 
L 115.935975 43.788891 
L 115.909932 43.767226 
L 114.843794 42.696228 
L 113.666716 41.683975 
L 113.58789 41.603565 
L 112.45464 40.510901 
L 111.4235 39.650274 
L 111.182643 39.418238 
L 109.961997 38.325575 
L 109.180284 37.70297 
L 108.653113 37.232911 
L 107.291149 36.140248 
L 106.937068 35.875187 
L 105.916231 35.047585 
L 104.693852 34.172311 
L 104.404958 33.954921 
L 102.846434 32.862258 
L 102.450636 32.603065 
L 101.193179 31.769595 
L 100.20742 31.169107 
L 99.381326 30.676932 
L 97.964204 29.884499 
L 97.394794 29.584268 
L 95.720988 28.736582 
L 95.18744 28.491605 
L 93.477772 27.718768 
L 92.663337 27.398942 
L 91.234556 26.832062 
L 89.635063 26.306278 
L 88.99134 26.086681 
L 86.748123 25.455884 
L 85.625222 25.213615 
L 84.504907 24.95008 
L 82.261691 24.558969 
L 80.018475 24.304133 
L 77.775259 24.168814 
L 75.532043 24.14473 
L 73.288827 24.231316 
L 71.045611 24.435799 
L 68.802395 24.774178 
L 66.806693 25.213615 
L 66.559179 25.263436 
L 64.315963 25.848889 
L 62.966638 26.306278 
L 62.072747 26.598915 
L 60.09378 27.398942 
L 59.82953 27.505349 
L 57.739479 28.491605 
L 57.586314 28.565863 
L 55.707563 29.584268 
L 55.343098 29.793657 
L 53.90709 30.676932 
L 53.099882 31.219813 
L 52.304561 31.769595 
L 50.89608 32.862258 
L 50.856666 32.894167 
L 49.523513 33.954921 
L 48.61345 34.803746 
L 48.337292 35.047585 
L 47.180299 36.140248 
L 46.370234 37.041865 
L 46.181094 37.232911 
L 45.163285 38.325575 
L 44.313179 39.418238 
L 44.127018 39.676977 
L 43.43392 40.510901 
L 42.644131 41.603565 
L 41.976837 42.696228 
L 41.883802 42.859531 
L 41.243119 43.788891 
L 40.590771 44.881555 
L 40.034165 45.974218 
L 39.640586 46.861796 
L 39.525389 47.066881 
L 38.955647 48.159545 
L 38.466021 49.252208 
L 38.044652 50.344871 
L 37.68172 51.437535 
L 37.39737 52.42493 
L 37.356733 52.530198 
L 36.970112 53.622861 
L 36.637701 54.715524 
L 36.352766 55.808188 
L 36.109694 56.900851 
L 35.903805 57.993514 
L 35.731209 59.086178 
L 35.58868 60.178841 
L 35.473561 61.271504 
L 35.383683 62.364168 
L 35.317296 63.456831 
L 35.273017 64.549494 
L 35.24978 65.642158 
L 35.246803 66.734821 
L 35.263553 67.827484 
L 35.299716 68.920148 
L 35.355174 70.012811 
L 35.429982 71.105474 
L 35.524342 72.198138 
L 35.638585 73.290801 
L 35.77314 74.383464 
L 35.928516 75.476128 
L 36.105266 76.568791 
L 36.303965 77.661454 
L 36.525173 78.754117 
L 36.769406 79.846781 
L 37.037105 80.939444 
L 37.328611 82.032107 
L 37.39737 82.279465 
L 37.568316 83.124771 
L 37.803584 84.217434 
L 38.055535 85.310097 
L 38.324106 86.402761 
L 38.609202 87.495424 
L 38.910754 88.588087 
L 39.22877 89.680751 
L 39.563416 90.773414 
L 39.640586 91.023115 
L 39.836047 91.866077 
L 40.099105 92.958741 
L 40.375606 94.051404 
L 40.666669 95.144067 
L 40.973782 96.236731 
L 41.298831 97.329394 
L 41.644126 98.422057 
L 41.883802 99.146292 
L 41.977989 99.51472 
L 42.266865 100.607384 
L 42.577509 101.700047 
L 42.912833 102.79271 
L 43.276026 103.885374 
L 43.67052 104.978037 
L 44.099955 106.0707 
L 44.127018 106.137647 
L 44.459299 107.163364 
L 44.843951 108.256027 
L 45.263431 109.34869 
L 45.720455 110.441354 
L 46.217479 111.534017 
L 46.370234 111.858962 
L 46.669564 112.62668 
L 47.12074 113.719344 
L 47.605804 114.812007 
L 48.124399 115.90467 
L 48.61345 116.881977 
L 48.662704 116.997334 
L 49.125428 118.089997 
L 49.608753 119.18266 
L 50.108955 120.275323 
L 50.621514 121.367987 
L 50.856666 121.878084 
L 51.089942 122.46065 
L 51.51686 123.553313 
L 51.939854 124.645977 
L 52.354361 125.73864 
L 52.756153 126.831303 
L 53.099882 127.810166 
L 53.13494 127.923967 
L 53.442822 129.01663 
L 53.731535 130.109293 
L 53.999339 131.201957 
L 54.244804 132.29462 
L 54.466678 133.387283 
L 54.663783 134.479947 
L 54.834927 135.57261 
L 54.978885 136.665273 
L 55.094429 137.757937 
L 55.180423 138.8506 
L 55.235964 139.943263 
L 55.26055 141.035927 
L 55.254256 142.12859 
L 55.21788 143.221253 
L 55.153026 144.313916 
L 55.062134 145.40658 
L 54.948412 146.499243 
L 54.815706 147.591906 
L 54.668318 148.68457 
L 54.510782 149.777233 
L 54.347657 150.869896 
L 54.183321 151.96256 
L 54.021821 153.055223 
L 53.866751 154.147886 
L 53.72119 155.24055 
L 53.587668 156.333213 
L 53.468174 157.425876 
L 53.364176 158.51854 
L 53.276653 159.611203 
L 53.20614 160.703866 
L 53.152757 161.79653 
L 53.116241 162.889193 
L 53.099882 163.770105 
L 53.095168 163.981856 
L 53.089134 165.074519 
L 53.099882 166.167183 
L 53.121105 167.259846 
L 53.15264 168.352509 
L 53.192204 169.445173 
L 53.237248 170.537836 
L 53.285018 171.630499 
L 53.332643 172.723163 
L 53.37726 173.815826 
L 53.416149 174.908489 
L 53.4469 176.001153 
L 53.467575 177.093816 
L 53.476847 178.186479 
L 53.474119 179.279143 
L 53.459575 180.371806 
L 53.434188 181.464469 
L 53.399656 182.557133 
L 53.3583 183.649796 
L 53.312921 184.742459 
L 53.266652 185.835122 
L 53.222806 186.927786 
L 53.184754 188.020449 
L 53.155829 189.113112 
L 53.139267 190.205776 
L 53.138184 191.298439 
L 53.155582 192.391102 
L 53.194383 193.483766 
L 53.257485 194.576429 
L 53.347833 195.669092 
L 53.468502 196.761756 
L 53.622793 197.854419 
L 53.814335 198.947082 
L 54.047208 200.039746 
L 54.326065 201.132409 
L 54.656285 202.225072 
L 55.044136 203.317736 
L 55.343098 204.050547 
L 55.474008 204.410399 
L 55.921767 205.503062 
L 56.440658 206.595726 
L 57.040999 207.688389 
L 57.586314 208.559054 
L 57.717009 208.781052 
L 58.421774 209.873715 
L 59.236788 210.966379 
L 59.82953 211.673757 
L 60.148659 212.059042 
L 61.143584 213.151705 
L 62.072747 214.0458 
L 62.286798 214.244369 
L 63.557265 215.337032 
L 64.315963 215.924607 
L 65.028801 216.429695 
L 66.559179 217.419409 
L 66.742707 217.522359 
L 68.802395 218.610161 
L 68.8137 218.615022 
L 71.045611 219.546872 
L 71.55876 219.707685 
L 73.288827 220.250581 
L 75.532043 220.724495 
L 76.15894 220.800349 
z
M 79.313714 205.503062 
L 77.775259 205.405158 
L 75.532043 204.758782 
L 74.852697 204.410399 
L 73.288827 203.518424 
L 73.038988 203.317736 
L 71.829933 202.225072 
L 71.045611 201.399856 
L 70.840318 201.132409 
L 70.114506 200.039746 
L 69.51028 198.947082 
L 69.015848 197.854419 
L 68.802395 197.268415 
L 68.6384 196.761756 
L 68.363301 195.669092 
L 68.162291 194.576429 
L 68.028117 193.483766 
L 67.953786 192.391102 
L 67.932358 191.298439 
L 67.956773 190.205776 
L 68.01971 189.113112 
L 68.113509 188.020449 
L 68.230154 186.927786 
L 68.361333 185.835122 
L 68.498595 184.742459 
L 68.633596 183.649796 
L 68.758422 182.557133 
L 68.802395 182.108644 
L 68.873182 181.464469 
L 68.967172 180.371806 
L 69.030564 179.279143 
L 69.060557 178.186479 
L 69.056574 177.093816 
L 69.02027 176.001153 
L 68.955368 174.908489 
L 68.867357 173.815826 
L 68.802395 173.135934 
L 68.767173 172.723163 
L 68.666171 171.630499 
L 68.564979 170.537836 
L 68.471002 169.445173 
L 68.391382 168.352509 
L 68.332768 167.259846 
L 68.301158 166.167183 
L 68.301798 165.074519 
L 68.339123 163.981856 
L 68.416726 162.889193 
L 68.537328 161.79653 
L 68.702756 160.703866 
L 68.802395 160.185007 
L 68.927367 159.611203 
L 69.215245 158.51854 
L 69.553042 157.425876 
L 69.938065 156.333213 
L 70.366142 155.24055 
L 70.831518 154.147886 
L 71.045611 153.66992 
L 71.388958 153.055223 
L 72.019251 151.96256 
L 72.662031 150.869896 
L 73.288827 149.800291 
L 73.308036 149.777233 
L 74.174851 148.68457 
L 74.993507 147.591906 
L 75.532043 146.801784 
L 75.914772 146.499243 
L 77.113715 145.40658 
L 77.775259 144.680339 
L 80.018475 144.392018 
L 81.241604 145.40658 
L 82.261691 146.108998 
L 82.531348 146.499243 
L 83.398056 147.591906 
L 84.345977 148.68457 
L 84.504907 148.854708 
L 85.091299 149.777233 
L 85.810066 150.869896 
L 86.533925 151.96256 
L 86.748123 152.286111 
L 87.151785 153.055223 
L 87.708747 154.147886 
L 88.23558 155.24055 
L 88.723782 156.333213 
L 88.99134 156.989147 
L 89.146889 157.425876 
L 89.495058 158.51854 
L 89.795047 159.611203 
L 90.04489 160.703866 
L 90.243845 161.79653 
L 90.392325 162.889193 
L 90.491838 163.981856 
L 90.544956 165.074519 
L 90.555298 166.167183 
L 90.527507 167.259846 
L 90.467224 168.352509 
L 90.381022 169.445173 
L 90.276289 170.537836 
L 90.16104 171.630499 
L 90.043643 172.723163 
L 89.932468 173.815826 
L 89.835461 174.908489 
L 89.759681 176.001153 
L 89.710847 177.093816 
L 89.692941 178.186479 
L 89.707922 179.279143 
L 89.755588 180.371806 
L 89.833603 181.464469 
L 89.937681 182.557133 
L 90.061889 183.649796 
L 90.199037 184.742459 
L 90.341078 185.835122 
L 90.479501 186.927786 
L 90.605645 188.020449 
L 90.710942 189.113112 
L 90.787061 190.205776 
L 90.82597 191.298439 
L 90.819911 192.391102 
L 90.761318 193.483766 
L 90.642678 194.576429 
L 90.456352 195.669092 
L 90.194371 196.761756 
L 89.848197 197.854419 
L 89.408457 198.947082 
L 88.99134 199.79032 
L 88.846254 200.039746 
L 88.090009 201.132409 
L 87.183955 202.225072 
L 86.748123 202.67926 
L 85.939597 203.317736 
L 84.504907 204.300117 
L 84.251514 204.410399 
L 82.261691 205.191705 
L 80.305279 205.503062 
L 80.018475 205.545849 
z
M 77.128553 135.57261 
L 75.791793 134.479947 
L 75.532043 134.306176 
L 74.815773 133.387283 
L 73.81651 132.29462 
L 73.288827 131.796477 
L 72.854343 131.201957 
L 71.950211 130.109293 
L 71.045611 129.129639 
L 70.963907 129.01663 
L 70.082648 127.923967 
L 69.127798 126.831303 
L 68.802395 126.491557 
L 68.19715 125.73864 
L 67.260573 124.645977 
L 66.559179 123.870944 
L 66.304542 123.553313 
L 65.377019 122.46065 
L 64.435894 121.367987 
L 64.315963 121.235483 
L 63.516361 120.275323 
L 62.61103 119.18266 
L 62.072747 118.533805 
L 61.720658 118.089997 
L 60.852465 116.997334 
L 60.021957 115.90467 
L 59.82953 115.650749 
L 59.200328 114.812007 
L 58.417254 113.719344 
L 57.685324 112.62668 
L 57.586314 112.476484 
L 56.94855 111.534017 
L 56.257968 110.441354 
L 55.620974 109.34869 
L 55.343098 108.848121 
L 54.992824 108.256027 
L 54.380945 107.163364 
L 53.818903 106.0707 
L 53.302375 104.978037 
L 53.099882 104.528069 
L 52.779559 103.885374 
L 52.265049 102.79271 
L 51.789435 101.700047 
L 51.348344 100.607384 
L 50.937771 99.51472 
L 50.856666 99.293301 
L 50.489815 98.422057 
L 50.053372 97.329394 
L 49.642322 96.236731 
L 49.253846 95.144067 
L 48.88564 94.051404 
L 48.61345 93.21104 
L 48.51643 92.958741 
L 48.100288 91.866077 
L 47.704291 90.773414 
L 47.327666 89.680751 
L 46.969979 88.588087 
L 46.631041 87.495424 
L 46.370234 86.614237 
L 46.293651 86.402761 
L 45.905077 85.310097 
L 45.540834 84.217434 
L 45.200986 83.124771 
L 44.885507 82.032107 
L 44.594258 80.939444 
L 44.326979 79.846781 
L 44.127018 78.957177 
L 44.06902 78.754117 
L 43.776492 77.661454 
L 43.514026 76.568791 
L 43.280862 75.476128 
L 43.076234 74.383464 
L 42.899404 73.290801 
L 42.749705 72.198138 
L 42.62658 71.105474 
L 42.529609 70.012811 
L 42.45855 68.920148 
L 42.41336 67.827484 
L 42.394234 66.734821 
L 42.401632 65.642158 
L 42.436313 64.549494 
L 42.499379 63.456831 
L 42.592312 62.364168 
L 42.717032 61.271504 
L 42.875957 60.178841 
L 43.07208 59.086178 
L 43.309061 57.993514 
L 43.591335 56.900851 
L 43.924254 55.808188 
L 44.127018 55.225622 
L 44.268813 54.715524 
L 44.613351 53.622861 
L 45.014159 52.530198 
L 45.479685 51.437535 
L 46.020072 50.344871 
L 46.370234 49.713479 
L 46.586745 49.252208 
L 47.156325 48.159545 
L 47.819553 47.066881 
L 48.5933 45.974218 
L 48.61345 45.947309 
L 49.326064 44.881555 
L 50.180975 43.788891 
L 50.856666 43.027785 
L 51.13108 42.696228 
L 52.118312 41.603565 
L 53.099882 40.668728 
L 53.26142 40.510901 
L 54.456921 39.418238 
L 55.343098 38.705131 
L 55.824754 38.325575 
L 57.347998 37.232911 
L 57.586314 37.071497 
L 59.060918 36.140248 
L 59.82953 35.690217 
L 61.06295 35.047585 
L 62.072747 34.5442 
L 63.472045 33.954921 
L 64.315963 33.60406 
L 66.559179 32.862258 
L 68.802395 32.257216 
L 71.045611 31.84555 
L 71.703112 31.769595 
L 73.288827 31.567647 
L 75.532043 31.440333 
L 77.775259 31.464652 
L 80.018475 31.64076 
L 80.89823 31.769595 
L 82.261691 31.951363 
L 84.504907 32.404657 
L 86.141253 32.862258 
L 86.748123 33.024902 
L 88.99134 33.792857 
L 89.386796 33.954921 
L 91.234556 34.717651 
L 91.921462 35.047585 
L 93.477772 35.821291 
L 94.056097 36.140248 
L 95.720988 37.116 
L 95.908688 37.232911 
L 97.578523 38.325575 
L 97.964204 38.598356 
L 99.104871 39.418238 
L 100.20742 40.308733 
L 100.462939 40.510901 
L 101.760203 41.603565 
L 102.450636 42.260631 
L 102.93683 42.696228 
L 104.05125 43.788891 
L 104.693852 44.502926 
L 105.069694 44.881555 
L 106.066077 45.974218 
L 106.918044 47.066881 
L 106.937068 47.092801 
L 107.836703 48.159545 
L 108.630424 49.252208 
L 109.180284 50.116275 
L 109.353082 50.344871 
L 110.11528 51.437535 
L 110.773334 52.530198 
L 111.341818 53.622861 
L 111.4235 53.795258 
L 111.963151 54.715524 
L 112.521542 55.808188 
L 113.002134 56.900851 
L 113.414235 57.993514 
L 113.666716 58.769356 
L 113.799164 59.086178 
L 114.196977 60.178841 
L 114.52911 61.271504 
L 114.801478 62.364168 
L 115.018895 63.456831 
L 115.185221 64.549494 
L 115.303473 65.642158 
L 115.375922 66.734821 
L 115.404166 67.827484 
L 115.389191 68.920148 
L 115.331425 70.012811 
L 115.230771 71.105474 
L 115.086648 72.198138 
L 114.89802 73.290801 
L 114.663427 74.383464 
L 114.38101 75.476128 
L 114.048555 76.568791 
L 113.666716 77.652718 
L 113.664327 77.661454 
L 113.334775 78.754117 
L 112.961623 79.846781 
L 112.542595 80.939444 
L 112.075395 82.032107 
L 111.557773 83.124771 
L 111.4235 83.392447 
L 111.093146 84.217434 
L 110.620247 85.310097 
L 110.105523 86.402761 
L 109.548108 87.495424 
L 109.180284 88.178747 
L 109.000814 88.588087 
L 108.504786 89.680751 
L 107.975815 90.773414 
L 107.413919 91.866077 
L 106.937068 92.751399 
L 106.844247 92.958741 
L 106.350673 94.051404 
L 105.831493 95.144067 
L 105.286142 96.236731 
L 104.713694 97.329394 
L 104.693852 97.367386 
L 104.22531 98.422057 
L 103.71671 99.51472 
L 103.18219 100.607384 
L 102.619543 101.700047 
L 102.450636 102.023373 
L 102.098152 102.79271 
L 101.577555 103.885374 
L 101.026649 104.978037 
L 100.442965 106.0707 
L 100.20742 106.501541 
L 99.878215 107.163364 
L 99.314155 108.256027 
L 98.715855 109.34869 
L 98.082276 110.441354 
L 97.964204 110.643975 
L 97.472558 111.534017 
L 96.842871 112.62668 
L 96.181473 113.719344 
L 95.720988 114.462455 
L 95.506813 114.812007 
L 94.83865 115.90467 
L 94.147664 116.997334 
L 93.477772 118.033338 
L 93.439869 118.089997 
L 92.736227 119.18266 
L 92.023953 120.275323 
L 91.309941 121.367987 
L 91.234556 121.489957 
L 90.581403 122.46065 
L 89.859054 123.553313 
L 89.151967 124.645977 
L 88.99134 124.911444 
L 88.411849 125.73864 
L 87.680151 126.831303 
L 86.978607 127.923967 
L 86.748123 128.311857 
L 86.220037 129.01663 
L 85.454714 130.109293 
L 84.735948 131.201957 
L 84.504907 131.589132 
L 83.892716 132.29462 
L 83.02967 133.387283 
L 82.261691 134.46598 
L 82.24158 134.479947 
L 80.890613 135.57261 
L 80.018475 136.404466 
L 77.775259 136.243682 
z
" clip-path="url(#p2f52e9d957)" style="fill: #f3f8fe"/>
   </g>
   <g id="PathCollection_2">
    <path d="M 80.018475 205.545849 
L 80.305279 205.503062 
L 82.261691 205.191705 
L 84.251514 204.410399 
L 84.504907 204.300117 
L 85.939597 203.317736 
L 86.748123 202.67926 
L 87.183955 202.225072 
L 88.090009 201.132409 
L 88.846254 200.039746 
L 88.99134 199.79032 
L 89.408457 198.947082 
L 89.848197 197.854419 
L 90.194371 196.761756 
L 90.456352 195.669092 
L 90.642678 194.576429 
L 90.761318 193.483766 
L 90.819911 192.391102 
L 90.82597 191.298439 
L 90.787061 190.205776 
L 90.710942 189.113112 
L 90.605645 188.020449 
L 90.479501 186.927786 
L 90.341078 185.835122 
L 90.199037 184.742459 
L 90.061889 183.649796 
L 89.937681 182.557133 
L 89.833603 181.464469 
L 89.755588 180.371806 
L 89.707922 179.279143 
L 89.692941 178.186479 
L 89.710847 177.093816 
L 89.759681 176.001153 
L 89.835461 174.908489 
L 89.932468 173.815826 
L 90.043643 172.723163 
L 90.16104 171.630499 
L 90.276289 170.537836 
L 90.381022 169.445173 
L 90.467224 168.352509 
L 90.527507 167.259846 
L 90.555298 166.167183 
L 90.544956 165.074519 
L 90.491838 163.981856 
L 90.392325 162.889193 
L 90.243845 161.79653 
L 90.04489 160.703866 
L 89.795047 159.611203 
L 89.495058 158.51854 
L 89.146889 157.425876 
L 88.99134 156.989147 
L 88.723782 156.333213 
L 88.23558 155.24055 
L 87.708747 154.147886 
L 87.151785 153.055223 
L 86.748123 152.286111 
L 86.533925 151.96256 
L 85.810066 150.869896 
L 85.091299 149.777233 
L 84.504907 148.854708 
L 84.345977 148.68457 
L 83.398056 147.591906 
L 82.531348 146.499243 
L 82.261691 146.108998 
L 81.241604 145.40658 
L 80.018475 144.392018 
L 77.775259 144.680339 
L 77.113715 145.40658 
L 75.914772 146.499243 
L 75.532043 146.801784 
L 74.993507 147.591906 
L 74.174851 148.68457 
L 73.308036 149.777233 
L 73.288827 149.800291 
L 72.662031 150.869896 
L 72.019251 151.96256 
L 71.388958 153.055223 
L 71.045611 153.66992 
L 70.831518 154.147886 
L 70.366142 155.24055 
L 69.938065 156.333213 
L 69.553042 157.425876 
L 69.215245 158.51854 
L 68.927367 159.611203 
L 68.802395 160.185007 
L 68.702756 160.703866 
L 68.537328 161.79653 
L 68.416726 162.889193 
L 68.339123 163.981856 
L 68.301798 165.074519 
L 68.301158 166.167183 
L 68.332768 167.259846 
L 68.391382 168.352509 
L 68.471002 169.445173 
L 68.564979 170.537836 
L 68.666171 171.630499 
L 68.767173 172.723163 
L 68.802395 173.135934 
L 68.867357 173.815826 
L 68.955368 174.908489 
L 69.02027 176.001153 
L 69.056574 177.093816 
L 69.060557 178.186479 
L 69.030564 179.279143 
L 68.967172 180.371806 
L 68.873182 181.464469 
L 68.802395 182.108644 
L 68.758422 182.557133 
L 68.633596 183.649796 
L 68.498595 184.742459 
L 68.361333 185.835122 
L 68.230154 186.927786 
L 68.113509 188.020449 
L 68.01971 189.113112 
L 67.956773 190.205776 
L 67.932358 191.298439 
L 67.953786 192.391102 
L 68.028117 193.483766 
L 68.162291 194.576429 
L 68.363301 195.669092 
L 68.6384 196.761756 
L 68.802395 197.268415 
L 69.015848 197.854419 
L 69.51028 198.947082 
L 70.114506 200.039746 
L 70.840318 201.132409 
L 71.045611 201.399856 
L 71.829933 202.225072 
L 73.038988 203.317736 
L 73.288827 203.518424 
L 74.852697 204.410399 
L 75.532043 204.758782 
L 77.775259 205.405158 
L 79.313714 205.503062 
z
" clip-path="url(#p2f52e9d957)" style="fill: #e9f2fa"/>
    <path d="M 77.775259 136.243682 
L 80.018475 136.404466 
L 80.890613 135.57261 
L 82.24158 134.479947 
L 82.261691 134.46598 
L 83.02967 133.387283 
L 83.892716 132.29462 
L 84.504907 131.589132 
L 84.735948 131.201957 
L 85.454714 130.109293 
L 86.220037 129.01663 
L 86.748123 128.311857 
L 86.978607 127.923967 
L 87.680151 126.831303 
L 88.411849 125.73864 
L 88.99134 124.911444 
L 89.151967 124.645977 
L 89.859054 123.553313 
L 90.581403 122.46065 
L 91.234556 121.489957 
L 91.309941 121.367987 
L 92.023953 120.275323 
L 92.736227 119.18266 
L 93.439869 118.089997 
L 93.477772 118.033338 
L 94.147664 116.997334 
L 94.83865 115.90467 
L 95.506813 114.812007 
L 95.720988 114.462455 
L 96.181473 113.719344 
L 96.842871 112.62668 
L 97.472558 111.534017 
L 97.964204 110.643975 
L 98.082276 110.441354 
L 98.715855 109.34869 
L 99.314155 108.256027 
L 99.878215 107.163364 
L 100.20742 106.501541 
L 100.442965 106.0707 
L 101.026649 104.978037 
L 101.577555 103.885374 
L 102.098152 102.79271 
L 102.450636 102.023373 
L 102.619543 101.700047 
L 103.18219 100.607384 
L 103.71671 99.51472 
L 104.22531 98.422057 
L 104.693852 97.367386 
L 104.713694 97.329394 
L 105.286142 96.236731 
L 105.831493 95.144067 
L 106.350673 94.051404 
L 106.844247 92.958741 
L 106.937068 92.751399 
L 107.413919 91.866077 
L 107.975815 90.773414 
L 108.504786 89.680751 
L 109.000814 88.588087 
L 109.180284 88.178747 
L 109.548108 87.495424 
L 110.105523 86.402761 
L 110.620247 85.310097 
L 111.093146 84.217434 
L 111.4235 83.392447 
L 111.557773 83.124771 
L 112.075395 82.032107 
L 112.542595 80.939444 
L 112.961623 79.846781 
L 113.334775 78.754117 
L 113.664327 77.661454 
L 113.666716 77.652718 
L 114.048555 76.568791 
L 114.38101 75.476128 
L 114.663427 74.383464 
L 114.89802 73.290801 
L 115.086648 72.198138 
L 115.230771 71.105474 
L 115.331425 70.012811 
L 115.389191 68.920148 
L 115.404166 67.827484 
L 115.375922 66.734821 
L 115.303473 65.642158 
L 115.185221 64.549494 
L 115.018895 63.456831 
L 114.801478 62.364168 
L 114.52911 61.271504 
L 114.196977 60.178841 
L 113.799164 59.086178 
L 113.666716 58.769356 
L 113.414235 57.993514 
L 113.002134 56.900851 
L 112.521542 55.808188 
L 111.963151 54.715524 
L 111.4235 53.795258 
L 111.341818 53.622861 
L 110.773334 52.530198 
L 110.11528 51.437535 
L 109.353082 50.344871 
L 109.180284 50.116275 
L 108.630424 49.252208 
L 107.836703 48.159545 
L 106.937068 47.092801 
L 106.918044 47.066881 
L 106.066077 45.974218 
L 105.069694 44.881555 
L 104.693852 44.502926 
L 104.05125 43.788891 
L 102.93683 42.696228 
L 102.450636 42.260631 
L 101.760203 41.603565 
L 100.462939 40.510901 
L 100.20742 40.308733 
L 99.104871 39.418238 
L 97.964204 38.598356 
L 97.578523 38.325575 
L 95.908688 37.232911 
L 95.720988 37.116 
L 94.056097 36.140248 
L 93.477772 35.821291 
L 91.921462 35.047585 
L 91.234556 34.717651 
L 89.386796 33.954921 
L 88.99134 33.792857 
L 86.748123 33.024902 
L 86.141253 32.862258 
L 84.504907 32.404657 
L 82.261691 31.951363 
L 80.89823 31.769595 
L 80.018475 31.64076 
L 77.775259 31.464652 
L 75.532043 31.440333 
L 73.288827 31.567647 
L 71.703112 31.769595 
L 71.045611 31.84555 
L 68.802395 32.257216 
L 66.559179 32.862258 
L 64.315963 33.60406 
L 63.472045 33.954921 
L 62.072747 34.5442 
L 61.06295 35.047585 
L 59.82953 35.690217 
L 59.060918 36.140248 
L 57.586314 37.071497 
L 57.347998 37.232911 
L 55.824754 38.325575 
L 55.343098 38.705131 
L 54.456921 39.418238 
L 53.26142 40.510901 
L 53.099882 40.668728 
L 52.118312 41.603565 
L 51.13108 42.696228 
L 50.856666 43.027785 
L 50.180975 43.788891 
L 49.326064 44.881555 
L 48.61345 45.947309 
L 48.5933 45.974218 
L 47.819553 47.066881 
L 47.156325 48.159545 
L 46.586745 49.252208 
L 46.370234 49.713479 
L 46.020072 50.344871 
L 45.479685 51.437535 
L 45.014159 52.530198 
L 44.613351 53.622861 
L 44.268813 54.715524 
L 44.127018 55.225622 
L 43.924254 55.808188 
L 43.591335 56.900851 
L 43.309061 57.993514 
L 43.07208 59.086178 
L 42.875957 60.178841 
L 42.717032 61.271504 
L 42.592312 62.364168 
L 42.499379 63.456831 
L 42.436313 64.549494 
L 42.401632 65.642158 
L 42.394234 66.734821 
L 42.41336 67.827484 
L 42.45855 68.920148 
L 42.529609 70.012811 
L 42.62658 71.105474 
L 42.749705 72.198138 
L 42.899404 73.290801 
L 43.076234 74.383464 
L 43.280862 75.476128 
L 43.514026 76.568791 
L 43.776492 77.661454 
L 44.06902 78.754117 
L 44.127018 78.957177 
L 44.326979 79.846781 
L 44.594258 80.939444 
L 44.885507 82.032107 
L 45.200986 83.124771 
L 45.540834 84.217434 
L 45.905077 85.310097 
L 46.293651 86.402761 
L 46.370234 86.614237 
L 46.631041 87.495424 
L 46.969979 88.588087 
L 47.327666 89.680751 
L 47.704291 90.773414 
L 48.100288 91.866077 
L 48.51643 92.958741 
L 48.61345 93.21104 
L 48.88564 94.051404 
L 49.253846 95.144067 
L 49.642322 96.236731 
L 50.053372 97.329394 
L 50.489815 98.422057 
L 50.856666 99.293301 
L 50.937771 99.51472 
L 51.348344 100.607384 
L 51.789435 101.700047 
L 52.265049 102.79271 
L 52.779559 103.885374 
L 53.099882 104.528069 
L 53.302375 104.978037 
L 53.818903 106.0707 
L 54.380945 107.163364 
L 54.992824 108.256027 
L 55.343098 108.848121 
L 55.620974 109.34869 
L 56.257968 110.441354 
L 56.94855 111.534017 
L 57.586314 112.476484 
L 57.685324 112.62668 
L 58.417254 113.719344 
L 59.200328 114.812007 
L 59.82953 115.650749 
L 60.021957 115.90467 
L 60.852465 116.997334 
L 61.720658 118.089997 
L 62.072747 118.533805 
L 62.61103 119.18266 
L 63.516361 120.275323 
L 64.315963 121.235483 
L 64.435894 121.367987 
L 65.377019 122.46065 
L 66.304542 123.553313 
L 66.559179 123.870944 
L 67.260573 124.645977 
L 68.19715 125.73864 
L 68.802395 126.491557 
L 69.127798 126.831303 
L 70.082648 127.923967 
L 70.963907 129.01663 
L 71.045611 129.129639 
L 71.950211 130.109293 
L 72.854343 131.201957 
L 73.288827 131.796477 
L 73.81651 132.29462 
L 74.815773 133.387283 
L 75.532043 134.306176 
L 75.791793 134.479947 
L 77.128553 135.57261 
z
M 72.922886 115.90467 
L 71.045611 115.146985 
L 70.463296 114.812007 
L 68.802395 113.859127 
L 68.61085 113.719344 
L 67.119316 112.62668 
L 66.559179 112.205357 
L 65.802531 111.534017 
L 64.627333 110.441354 
L 64.315963 110.142891 
L 63.570079 109.34869 
L 62.605621 108.256027 
L 62.072747 107.617296 
L 61.71388 107.163364 
L 60.889119 106.0707 
L 60.12977 104.978037 
L 59.82953 104.524743 
L 59.409026 103.885374 
L 58.729199 102.79271 
L 58.100088 101.700047 
L 57.586314 100.745189 
L 57.509498 100.607384 
L 56.914192 99.51472 
L 56.357586 98.422057 
L 55.835168 97.329394 
L 55.343098 96.236866 
L 55.343032 96.236731 
L 54.815106 95.144067 
L 54.314706 94.051404 
L 53.83943 92.958741 
L 53.387478 91.866077 
L 53.099882 91.147944 
L 52.932748 90.773414 
L 52.452738 89.680751 
L 51.997057 88.588087 
L 51.565466 87.495424 
L 51.15792 86.402761 
L 50.856666 85.553968 
L 50.756966 85.310097 
L 50.32119 84.217434 
L 49.9148 83.124771 
L 49.537735 82.032107 
L 49.189799 80.939444 
L 48.870653 79.846781 
L 48.61345 78.885287 
L 48.571413 78.754117 
L 48.24252 77.661454 
L 47.94761 76.568791 
L 47.685821 75.476128 
L 47.456283 74.383464 
L 47.258169 73.290801 
L 47.090737 72.198138 
L 46.953368 71.105474 
L 46.84561 70.012811 
L 46.76721 68.920148 
L 46.718149 67.827484 
L 46.698677 66.734821 
L 46.709349 65.642158 
L 46.751065 64.549494 
L 46.825115 63.456831 
L 46.933227 62.364168 
L 47.077632 61.271504 
L 47.261132 60.178841 
L 47.487192 59.086178 
L 47.760041 57.993514 
L 48.084805 56.900851 
L 48.467662 55.808188 
L 48.61345 55.43993 
L 48.856634 54.715524 
L 49.276969 53.622861 
L 49.765949 52.530198 
L 50.333926 51.437535 
L 50.856666 50.558054 
L 50.970096 50.344871 
L 51.605893 49.252208 
L 52.345334 48.159545 
L 53.099882 47.191668 
L 53.191446 47.066881 
L 54.054209 45.974218 
L 55.063903 44.881555 
L 55.343098 44.601929 
L 56.148047 43.788891 
L 57.387969 42.696228 
L 57.586314 42.532105 
L 58.754737 41.603565 
L 59.82953 40.840838 
L 60.336671 40.510901 
L 62.072747 39.4694 
L 62.170705 39.418238 
L 64.315963 38.351563 
L 64.379697 38.325575 
L 66.559179 37.452243 
L 67.277577 37.232911 
L 68.802395 36.760776 
L 71.045611 36.272394 
L 72.010028 36.140248 
L 73.288827 35.952426 
L 75.532043 35.801571 
L 77.775259 35.823393 
L 80.018475 36.01758 
L 80.769998 36.140248 
L 82.261691 36.367759 
L 84.504907 36.89008 
L 85.59164 37.232911 
L 86.748123 37.591908 
L 88.592989 38.325575 
L 88.99134 38.485998 
L 90.923523 39.418238 
L 91.234556 39.574566 
L 92.877799 40.510901 
L 93.477772 40.877036 
L 94.579489 41.603565 
L 95.720988 42.431737 
L 96.073196 42.696228 
L 97.428468 43.788891 
L 97.964204 44.266493 
L 98.661324 44.881555 
L 99.77236 45.974218 
L 100.20742 46.447101 
L 100.808349 47.066881 
L 101.758696 48.159545 
L 102.450636 49.071718 
L 102.600783 49.252208 
L 103.445096 50.344871 
L 104.173408 51.437535 
L 104.693852 52.32997 
L 104.827526 52.530198 
L 105.496842 53.622861 
L 106.074684 54.715524 
L 106.572903 55.808188 
L 106.937068 56.729468 
L 107.018269 56.900851 
L 107.481517 57.993514 
L 107.875662 59.086178 
L 108.207941 60.178841 
L 108.484342 61.271504 
L 108.709786 62.364168 
L 108.888276 63.456831 
L 109.023015 64.549494 
L 109.116507 65.642158 
L 109.170638 66.734821 
L 109.180284 67.389168 
L 109.188614 67.827484 
L 109.180284 68.162874 
L 109.16565 68.920148 
L 109.107751 70.012811 
L 109.013018 71.105474 
L 108.88105 72.198138 
L 108.711107 73.290801 
L 108.502144 74.383464 
L 108.252846 75.476128 
L 107.961671 76.568791 
L 107.626897 77.661454 
L 107.246671 78.754117 
L 106.937068 79.554403 
L 106.843588 79.846781 
L 106.46593 80.939444 
L 106.048071 82.032107 
L 105.588762 83.124771 
L 105.086927 84.217434 
L 104.693852 85.016416 
L 104.570382 85.310097 
L 104.092501 86.402761 
L 103.579142 87.495424 
L 103.03027 88.588087 
L 102.450636 89.672463 
L 102.446739 89.680751 
L 101.93042 90.773414 
L 101.385211 91.866077 
L 100.81101 92.958741 
L 100.20742 94.051404 
L 99.663336 95.144067 
L 99.092564 96.236731 
L 98.493429 97.329394 
L 97.964204 98.255206 
L 97.874997 98.422057 
L 97.286538 99.51472 
L 96.665417 100.607384 
L 96.007974 101.700047 
L 95.720988 102.163898 
L 95.34275 102.79271 
L 94.658759 103.885374 
L 93.928559 104.978037 
L 93.477772 105.623958 
L 93.160868 106.0707 
L 92.357497 107.163364 
L 91.49502 108.256027 
L 91.234556 108.577252 
L 90.565084 109.34869 
L 89.563943 110.441354 
L 88.99134 111.041087 
L 88.456946 111.534017 
L 87.229137 112.62668 
L 86.748123 113.04362 
L 85.793842 113.719344 
L 84.504907 114.605037 
L 84.095987 114.812007 
L 82.261691 115.73869 
L 81.72777 115.90467 
L 80.018475 116.450553 
L 77.775259 116.72856 
L 75.532043 116.596067 
L 73.288827 116.057497 
z
" clip-path="url(#p2f52e9d957)" style="fill: #e9f2fa"/>
   </g>
   <g id="PathCollection_3">
    <path d="M 73.288827 116.057497 
L 75.532043 116.596067 
L 77.775259 116.72856 
L 80.018475 116.450553 
L 81.72777 115.90467 
L 82.261691 115.73869 
L 84.095987 114.812007 
L 84.504907 114.605037 
L 85.793842 113.719344 
L 86.748123 113.04362 
L 87.229137 112.62668 
L 88.456946 111.534017 
L 88.99134 111.041087 
L 89.563943 110.441354 
L 90.565084 109.34869 
L 91.234556 108.577252 
L 91.49502 108.256027 
L 92.357497 107.163364 
L 93.160868 106.0707 
L 93.477772 105.623958 
L 93.928559 104.978037 
L 94.658759 103.885374 
L 95.34275 102.79271 
L 95.720988 102.163898 
L 96.007974 101.700047 
L 96.665417 100.607384 
L 97.286538 99.51472 
L 97.874997 98.422057 
L 97.964204 98.255206 
L 98.493429 97.329394 
L 99.092564 96.236731 
L 99.663336 95.144067 
L 100.20742 94.051404 
L 100.81101 92.958741 
L 101.385211 91.866077 
L 101.93042 90.773414 
L 102.446739 89.680751 
L 102.450636 89.672463 
L 103.03027 88.588087 
L 103.579142 87.495424 
L 104.092501 86.402761 
L 104.570382 85.310097 
L 104.693852 85.016416 
L 105.086927 84.217434 
L 105.588762 83.124771 
L 106.048071 82.032107 
L 106.46593 80.939444 
L 106.843588 79.846781 
L 106.937068 79.554403 
L 107.246671 78.754117 
L 107.626897 77.661454 
L 107.961671 76.568791 
L 108.252846 75.476128 
L 108.502144 74.383464 
L 108.711107 73.290801 
L 108.88105 72.198138 
L 109.013018 71.105474 
L 109.107751 70.012811 
L 109.16565 68.920148 
L 109.180284 68.162874 
L 109.188614 67.827484 
L 109.180284 67.389168 
L 109.170638 66.734821 
L 109.116507 65.642158 
L 109.023015 64.549494 
L 108.888276 63.456831 
L 108.709786 62.364168 
L 108.484342 61.271504 
L 108.207941 60.178841 
L 107.875662 59.086178 
L 107.481517 57.993514 
L 107.018269 56.900851 
L 106.937068 56.729468 
L 106.572903 55.808188 
L 106.074684 54.715524 
L 105.496842 53.622861 
L 104.827526 52.530198 
L 104.693852 52.32997 
L 104.173408 51.437535 
L 103.445096 50.344871 
L 102.600783 49.252208 
L 102.450636 49.071718 
L 101.758696 48.159545 
L 100.808349 47.066881 
L 100.20742 46.447101 
L 99.77236 45.974218 
L 98.661324 44.881555 
L 97.964204 44.266493 
L 97.428468 43.788891 
L 96.073196 42.696228 
L 95.720988 42.431737 
L 94.579489 41.603565 
L 93.477772 40.877036 
L 92.877799 40.510901 
L 91.234556 39.574566 
L 90.923523 39.418238 
L 88.99134 38.485998 
L 88.592989 38.325575 
L 86.748123 37.591908 
L 85.59164 37.232911 
L 84.504907 36.89008 
L 82.261691 36.367759 
L 80.769998 36.140248 
L 80.018475 36.01758 
L 77.775259 35.823393 
L 75.532043 35.801571 
L 73.288827 35.952426 
L 72.010028 36.140248 
L 71.045611 36.272394 
L 68.802395 36.760776 
L 67.277577 37.232911 
L 66.559179 37.452243 
L 64.379697 38.325575 
L 64.315963 38.351563 
L 62.170705 39.418238 
L 62.072747 39.4694 
L 60.336671 40.510901 
L 59.82953 40.840838 
L 58.754737 41.603565 
L 57.586314 42.532105 
L 57.387969 42.696228 
L 56.148047 43.788891 
L 55.343098 44.601929 
L 55.063903 44.881555 
L 54.054209 45.974218 
L 53.191446 47.066881 
L 53.099882 47.191668 
L 52.345334 48.159545 
L 51.605893 49.252208 
L 50.970096 50.344871 
L 50.856666 50.558054 
L 50.333926 51.437535 
L 49.765949 52.530198 
L 49.276969 53.622861 
L 48.856634 54.715524 
L 48.61345 55.43993 
L 48.467662 55.808188 
L 48.084805 56.900851 
L 47.760041 57.993514 
L 47.487192 59.086178 
L 47.261132 60.178841 
L 47.077632 61.271504 
L 46.933227 62.364168 
L 46.825115 63.456831 
L 46.751065 64.549494 
L 46.709349 65.642158 
L 46.698677 66.734821 
L 46.718149 67.827484 
L 46.76721 68.920148 
L 46.84561 70.012811 
L 46.953368 71.105474 
L 47.090737 72.198138 
L 47.258169 73.290801 
L 47.456283 74.383464 
L 47.685821 75.476128 
L 47.94761 76.568791 
L 48.24252 77.661454 
L 48.571413 78.754117 
L 48.61345 78.885287 
L 48.870653 79.846781 
L 49.189799 80.939444 
L 49.537735 82.032107 
L 49.9148 83.124771 
L 50.32119 84.217434 
L 50.756966 85.310097 
L 50.856666 85.553968 
L 51.15792 86.402761 
L 51.565466 87.495424 
L 51.997057 88.588087 
L 52.452738 89.680751 
L 52.932748 90.773414 
L 53.099882 91.147944 
L 53.387478 91.866077 
L 53.83943 92.958741 
L 54.314706 94.051404 
L 54.815106 95.144067 
L 55.343032 96.236731 
L 55.343098 96.236866 
L 55.835168 97.329394 
L 56.357586 98.422057 
L 56.914192 99.51472 
L 57.509498 100.607384 
L 57.586314 100.745189 
L 58.100088 101.700047 
L 58.729199 102.79271 
L 59.409026 103.885374 
L 59.82953 104.524743 
L 60.12977 104.978037 
L 60.889119 106.0707 
L 61.71388 107.163364 
L 62.072747 107.617296 
L 62.605621 108.256027 
L 63.570079 109.34869 
L 64.315963 110.142891 
L 64.627333 110.441354 
L 65.802531 111.534017 
L 66.559179 112.205357 
L 67.119316 112.62668 
L 68.61085 113.719344 
L 68.802395 113.859127 
L 70.463296 114.812007 
L 71.045611 115.146985 
L 72.922886 115.90467 
z
M 75.532043 104.978037 
L 73.288827 104.476993 
L 71.90856 103.885374 
L 71.045611 103.510798 
L 69.913913 102.79271 
L 68.802395 102.060691 
L 68.374791 101.700047 
L 67.123994 100.607384 
L 66.559179 100.093054 
L 66.018697 99.51472 
L 65.038156 98.422057 
L 64.315963 97.574906 
L 64.126057 97.329394 
L 63.295974 96.236731 
L 62.511439 95.144067 
L 62.072747 94.5132 
L 61.765836 94.051404 
L 61.054862 92.958741 
L 60.379124 91.866077 
L 59.82953 90.93847 
L 59.731856 90.773414 
L 59.089274 89.680751 
L 58.479698 88.588087 
L 57.902774 87.495424 
L 57.586314 86.874183 
L 57.336674 86.402761 
L 56.776078 85.310097 
L 56.251184 84.217434 
L 55.761978 83.124771 
L 55.343098 82.119703 
L 55.303609 82.032107 
L 54.82865 80.939444 
L 54.393289 79.846781 
L 53.99685 78.754117 
L 53.638521 77.661454 
L 53.317392 76.568791 
L 53.099882 75.741294 
L 53.020838 75.476128 
L 52.728082 74.383464 
L 52.475806 73.290801 
L 52.263065 72.198138 
L 52.089083 71.105474 
L 51.953303 70.012811 
L 51.855428 68.920148 
L 51.79547 67.827484 
L 51.773793 66.734821 
L 51.791161 65.642158 
L 51.848787 64.549494 
L 51.948395 63.456831 
L 52.092282 62.364168 
L 52.283404 61.271504 
L 52.525465 60.178841 
L 52.823036 59.086178 
L 53.099882 58.235488 
L 53.169892 57.993514 
L 53.534981 56.900851 
L 53.965325 55.808188 
L 54.469352 54.715524 
L 55.057165 53.622861 
L 55.343098 53.148466 
L 55.695834 52.530198 
L 56.400367 51.437535 
L 57.218787 50.344871 
L 57.586314 49.901192 
L 58.123549 49.252208 
L 59.142561 48.159545 
L 59.82953 47.502935 
L 60.309804 47.066881 
L 61.640747 45.974218 
L 62.072747 45.647997 
L 63.204203 44.881555 
L 64.315963 44.192571 
L 65.086484 43.788891 
L 66.559179 43.059616 
L 67.492716 42.696228 
L 68.802395 42.198525 
L 70.999911 41.603565 
L 71.045611 41.591092 
L 73.288827 41.186104 
L 75.532043 41.000124 
L 77.775259 41.017594 
L 80.018475 41.237371 
L 81.920803 41.603565 
L 82.261691 41.667043 
L 84.504907 42.29283 
L 85.570486 42.696228 
L 86.748123 43.150653 
L 88.071699 43.788891 
L 88.99134 44.254394 
L 90.052244 44.881555 
L 91.234556 45.636855 
L 91.712578 45.974218 
L 93.14027 47.066881 
L 93.477772 47.347548 
L 94.410066 48.159545 
L 95.516982 49.252208 
L 95.720988 49.470817 
L 96.538448 50.344871 
L 97.435847 51.437535 
L 97.964204 52.164659 
L 98.242622 52.530198 
L 98.99778 53.622861 
L 99.64983 54.715524 
L 100.20742 55.798709 
L 100.212782 55.808188 
L 100.77487 56.900851 
L 101.255816 57.993514 
L 101.664603 59.086178 
L 102.008692 60.178841 
L 102.294256 61.271504 
L 102.450636 62.001567 
L 102.541256 62.364168 
L 102.759918 63.456831 
L 102.923448 64.549494 
L 103.034966 65.642158 
L 103.096834 66.734821 
L 103.110735 67.827484 
L 103.077751 68.920148 
L 102.998419 70.012811 
L 102.872791 71.105474 
L 102.70048 72.198138 
L 102.48071 73.290801 
L 102.450636 73.416046 
L 102.251287 74.383464 
L 101.984972 75.476128 
L 101.675514 76.568791 
L 101.321444 77.661454 
L 100.921225 78.754117 
L 100.473314 79.846781 
L 100.20742 80.443213 
L 100.008116 80.939444 
L 99.536149 82.032107 
L 99.019851 83.124771 
L 98.458523 84.217434 
L 97.964204 85.115755 
L 97.864036 85.310097 
L 97.283177 86.402761 
L 96.66199 87.495424 
L 96.00071 88.588087 
L 95.720988 89.03787 
L 95.332312 89.680751 
L 94.649371 90.773414 
L 93.930257 91.866077 
L 93.477772 92.533959 
L 93.186914 92.958741 
L 92.426278 94.051404 
L 91.628505 95.144067 
L 91.234556 95.67223 
L 90.789784 96.236731 
L 89.907068 97.329394 
L 88.99134 98.406338 
L 88.976447 98.422057 
L 87.93731 99.51472 
L 86.835674 100.607384 
L 86.748123 100.693138 
L 85.521074 101.700047 
L 84.504907 102.495588 
L 84.007103 102.79271 
L 82.261691 103.806865 
L 82.054703 103.885374 
L 80.018475 104.653478 
L 78.11989 104.978037 
L 77.775259 105.03797 
z
" clip-path="url(#p2f52e9d957)" style="fill: #d8e7f5"/>
   </g>
   <g id="PathCollection_4">
    <path d="M 77.775259 105.03797 
L 78.11989 104.978037 
L 80.018475 104.653478 
L 82.054703 103.885374 
L 82.261691 103.806865 
L 84.007103 102.79271 
L 84.504907 102.495588 
L 85.521074 101.700047 
L 86.748123 100.693138 
L 86.835674 100.607384 
L 87.93731 99.51472 
L 88.976447 98.422057 
L 88.99134 98.406338 
L 89.907068 97.329394 
L 90.789784 96.236731 
L 91.234556 95.67223 
L 91.628505 95.144067 
L 92.426278 94.051404 
L 93.186914 92.958741 
L 93.477772 92.533959 
L 93.930257 91.866077 
L 94.649371 90.773414 
L 95.332312 89.680751 
L 95.720988 89.03787 
L 96.00071 88.588087 
L 96.66199 87.495424 
L 97.283177 86.402761 
L 97.864036 85.310097 
L 97.964204 85.115755 
L 98.458523 84.217434 
L 99.019851 83.124771 
L 99.536149 82.032107 
L 100.008116 80.939444 
L 100.20742 80.443213 
L 100.473314 79.846781 
L 100.921225 78.754117 
L 101.321444 77.661454 
L 101.675514 76.568791 
L 101.984972 75.476128 
L 102.251287 74.383464 
L 102.450636 73.416046 
L 102.48071 73.290801 
L 102.70048 72.198138 
L 102.872791 71.105474 
L 102.998419 70.012811 
L 103.077751 68.920148 
L 103.110735 67.827484 
L 103.096834 66.734821 
L 103.034966 65.642158 
L 102.923448 64.549494 
L 102.759918 63.456831 
L 102.541256 62.364168 
L 102.450636 62.001567 
L 102.294256 61.271504 
L 102.008692 60.178841 
L 101.664603 59.086178 
L 101.255816 57.993514 
L 100.77487 56.900851 
L 100.212782 55.808188 
L 100.20742 55.798709 
L 99.64983 54.715524 
L 98.99778 53.622861 
L 98.242622 52.530198 
L 97.964204 52.164659 
L 97.435847 51.437535 
L 96.538448 50.344871 
L 95.720988 49.470817 
L 95.516982 49.252208 
L 94.410066 48.159545 
L 93.477772 47.347548 
L 93.14027 47.066881 
L 91.712578 45.974218 
L 91.234556 45.636855 
L 90.052244 44.881555 
L 88.99134 44.254394 
L 88.071699 43.788891 
L 86.748123 43.150653 
L 85.570486 42.696228 
L 84.504907 42.29283 
L 82.261691 41.667043 
L 81.920803 41.603565 
L 80.018475 41.237371 
L 77.775259 41.017594 
L 75.532043 41.000124 
L 73.288827 41.186104 
L 71.045611 41.591092 
L 70.999911 41.603565 
L 68.802395 42.198525 
L 67.492716 42.696228 
L 66.559179 43.059616 
L 65.086484 43.788891 
L 64.315963 44.192571 
L 63.204203 44.881555 
L 62.072747 45.647997 
L 61.640747 45.974218 
L 60.309804 47.066881 
L 59.82953 47.502935 
L 59.142561 48.159545 
L 58.123549 49.252208 
L 57.586314 49.901192 
L 57.218787 50.344871 
L 56.400367 51.437535 
L 55.695834 52.530198 
L 55.343098 53.148466 
L 55.057165 53.622861 
L 54.469352 54.715524 
L 53.965325 55.808188 
L 53.534981 56.900851 
L 53.169892 57.993514 
L 53.099882 58.235488 
L 52.823036 59.086178 
L 52.525465 60.178841 
L 52.283404 61.271504 
L 52.092282 62.364168 
L 51.948395 63.456831 
L 51.848787 64.549494 
L 51.791161 65.642158 
L 51.773793 66.734821 
L 51.79547 67.827484 
L 51.855428 68.920148 
L 51.953303 70.012811 
L 52.089083 71.105474 
L 52.263065 72.198138 
L 52.475806 73.290801 
L 52.728082 74.383464 
L 53.020838 75.476128 
L 53.099882 75.741294 
L 53.317392 76.568791 
L 53.638521 77.661454 
L 53.99685 78.754117 
L 54.393289 79.846781 
L 54.82865 80.939444 
L 55.303609 82.032107 
L 55.343098 82.119703 
L 55.761978 83.124771 
L 56.251184 84.217434 
L 56.776078 85.310097 
L 57.336674 86.402761 
L 57.586314 86.874183 
L 57.902774 87.495424 
L 58.479698 88.588087 
L 59.089274 89.680751 
L 59.731856 90.773414 
L 59.82953 90.93847 
L 60.379124 91.866077 
L 61.054862 92.958741 
L 61.765836 94.051404 
L 62.072747 94.5132 
L 62.511439 95.144067 
L 63.295974 96.236731 
L 64.126057 97.329394 
L 64.315963 97.574906 
L 65.038156 98.422057 
L 66.018697 99.51472 
L 66.559179 100.093054 
L 67.123994 100.607384 
L 68.374791 101.700047 
L 68.802395 102.060691 
L 69.913913 102.79271 
L 71.045611 103.510798 
L 71.90856 103.885374 
L 73.288827 104.476993 
L 75.532043 104.978037 
z
M 72.661616 96.236731 
L 71.045611 95.472818 
L 70.56759 95.144067 
L 69.006286 94.051404 
L 68.802395 93.907672 
L 67.74659 92.958741 
L 66.584178 91.866077 
L 66.559179 91.842584 
L 65.588196 90.773414 
L 64.645235 89.680751 
L 64.315963 89.291526 
L 63.77514 88.588087 
L 62.965273 87.495424 
L 62.201623 86.402761 
L 62.072747 86.214677 
L 61.479277 85.310097 
L 60.80233 84.217434 
L 60.171728 83.124771 
L 59.82953 82.497917 
L 59.574362 82.032107 
L 59.006994 80.939444 
L 58.487126 79.846781 
L 58.013902 78.754117 
L 57.586314 77.661454 
L 57.167175 76.568791 
L 56.79567 75.476128 
L 56.470551 74.383464 
L 56.190644 73.290801 
L 55.954915 72.198138 
L 55.762529 71.105474 
L 55.612896 70.012811 
L 55.505732 68.920148 
L 55.441099 67.827484 
L 55.419462 66.734821 
L 55.441739 65.642158 
L 55.50936 64.549494 
L 55.624334 63.456831 
L 55.789323 62.364168 
L 56.007737 61.271504 
L 56.283841 60.178841 
L 56.622888 59.086178 
L 57.031279 57.993514 
L 57.516756 56.900851 
L 57.586314 56.76208 
L 58.04791 55.808188 
L 58.663464 54.715524 
L 59.381515 53.622861 
L 59.82953 53.019062 
L 60.200397 52.530198 
L 61.13008 51.437535 
L 62.072747 50.475151 
L 62.210848 50.344871 
L 63.470005 49.252208 
L 64.315963 48.598475 
L 64.971811 48.159545 
L 66.559179 47.190057 
L 66.809465 47.066881 
L 68.802395 46.141319 
L 69.294437 45.974218 
L 71.045611 45.394138 
L 73.288827 44.926209 
L 73.739403 44.881555 
L 75.532043 44.698169 
L 77.775259 44.712177 
L 79.267299 44.881555 
L 80.018475 44.964015 
L 82.261691 45.449698 
L 83.842964 45.974218 
L 84.504907 46.198202 
L 86.418254 47.066881 
L 86.748123 47.224384 
L 88.346655 48.159545 
L 88.99134 48.568409 
L 89.933413 49.252208 
L 91.234556 50.307418 
L 91.277226 50.344871 
L 92.4421 51.437535 
L 93.449056 52.530198 
L 93.477772 52.56398 
L 94.359549 53.622861 
L 95.147148 54.715524 
L 95.720988 55.630435 
L 95.835634 55.808188 
L 96.470787 56.900851 
L 97.014201 57.993514 
L 97.475959 59.086178 
L 97.864438 60.178841 
L 97.964204 60.510291 
L 98.214343 61.271504 
L 98.508333 62.364168 
L 98.739168 63.456831 
L 98.911055 64.549494 
L 99.027286 65.642158 
L 99.090353 66.734821 
L 99.102037 67.827484 
L 99.063485 68.920148 
L 98.975281 70.012811 
L 98.837503 71.105474 
L 98.649778 72.198138 
L 98.411342 73.290801 
L 98.121092 74.383464 
L 97.964204 74.890513 
L 97.797976 75.476128 
L 97.443106 76.568791 
L 97.037845 77.661454 
L 96.580616 78.754117 
L 96.069869 79.846781 
L 95.720988 80.531907 
L 95.520723 80.939444 
L 94.946328 82.032107 
L 94.319153 83.124771 
L 93.638597 84.217434 
L 93.477772 84.46629 
L 92.926816 85.310097 
L 92.169939 86.402761 
L 91.362003 87.495424 
L 91.234556 87.664923 
L 90.499849 88.588087 
L 89.587025 89.680751 
L 88.99134 90.370275 
L 88.602581 90.773414 
L 87.530188 91.866077 
L 86.748123 92.637293 
L 86.359276 92.958741 
L 85.023076 94.051404 
L 84.504907 94.468769 
L 83.407925 95.144067 
L 82.261691 95.842851 
L 81.275841 96.236731 
L 80.018475 96.74442 
L 77.775259 97.160355 
L 75.532043 97.092988 
L 73.288827 96.532413 
z
" clip-path="url(#p2f52e9d957)" style="fill: #bfd8ed"/>
   </g>
   <g id="PathCollection_5">
    <path d="M 73.288827 96.532413 
L 75.532043 97.092988 
L 77.775259 97.160355 
L 80.018475 96.74442 
L 81.275841 96.236731 
L 82.261691 95.842851 
L 83.407925 95.144067 
L 84.504907 94.468769 
L 85.023076 94.051404 
L 86.359276 92.958741 
L 86.748123 92.637293 
L 87.530188 91.866077 
L 88.602581 90.773414 
L 88.99134 90.370275 
L 89.587025 89.680751 
L 90.499849 88.588087 
L 91.234556 87.664923 
L 91.362003 87.495424 
L 92.169939 86.402761 
L 92.926816 85.310097 
L 93.477772 84.46629 
L 93.638597 84.217434 
L 94.319153 83.124771 
L 94.946328 82.032107 
L 95.520723 80.939444 
L 95.720988 80.531907 
L 96.069869 79.846781 
L 96.580616 78.754117 
L 97.037845 77.661454 
L 97.443106 76.568791 
L 97.797976 75.476128 
L 97.964204 74.890513 
L 98.121092 74.383464 
L 98.411342 73.290801 
L 98.649778 72.198138 
L 98.837503 71.105474 
L 98.975281 70.012811 
L 99.063485 68.920148 
L 99.102037 67.827484 
L 99.090353 66.734821 
L 99.027286 65.642158 
L 98.911055 64.549494 
L 98.739168 63.456831 
L 98.508333 62.364168 
L 98.214343 61.271504 
L 97.964204 60.510291 
L 97.864438 60.178841 
L 97.475959 59.086178 
L 97.014201 57.993514 
L 96.470787 56.900851 
L 95.835634 55.808188 
L 95.720988 55.630435 
L 95.147148 54.715524 
L 94.359549 53.622861 
L 93.477772 52.56398 
L 93.449056 52.530198 
L 92.4421 51.437535 
L 91.277226 50.344871 
L 91.234556 50.307418 
L 89.933413 49.252208 
L 88.99134 48.568409 
L 88.346655 48.159545 
L 86.748123 47.224384 
L 86.418254 47.066881 
L 84.504907 46.198202 
L 83.842964 45.974218 
L 82.261691 45.449698 
L 80.018475 44.964015 
L 79.267299 44.881555 
L 77.775259 44.712177 
L 75.532043 44.698169 
L 73.739403 44.881555 
L 73.288827 44.926209 
L 71.045611 45.394138 
L 69.294437 45.974218 
L 68.802395 46.141319 
L 66.809465 47.066881 
L 66.559179 47.190057 
L 64.971811 48.159545 
L 64.315963 48.598475 
L 63.470005 49.252208 
L 62.210848 50.344871 
L 62.072747 50.475151 
L 61.13008 51.437535 
L 60.200397 52.530198 
L 59.82953 53.019062 
L 59.381515 53.622861 
L 58.663464 54.715524 
L 58.04791 55.808188 
L 57.586314 56.76208 
L 57.516756 56.900851 
L 57.031279 57.993514 
L 56.622888 59.086178 
L 56.283841 60.178841 
L 56.007737 61.271504 
L 55.789323 62.364168 
L 55.624334 63.456831 
L 55.50936 64.549494 
L 55.441739 65.642158 
L 55.419462 66.734821 
L 55.441099 67.827484 
L 55.505732 68.920148 
L 55.612896 70.012811 
L 55.762529 71.105474 
L 55.954915 72.198138 
L 56.190644 73.290801 
L 56.470551 74.383464 
L 56.79567 75.476128 
L 57.167175 76.568791 
L 57.586314 77.661454 
L 58.013902 78.754117 
L 58.487126 79.846781 
L 59.006994 80.939444 
L 59.574362 82.032107 
L 59.82953 82.497917 
L 60.171728 83.124771 
L 60.80233 84.217434 
L 61.479277 85.310097 
L 62.072747 86.214677 
L 62.201623 86.402761 
L 62.965273 87.495424 
L 63.77514 88.588087 
L 64.315963 89.291526 
L 64.645235 89.680751 
L 65.588196 90.773414 
L 66.559179 91.842584 
L 66.584178 91.866077 
L 67.74659 92.958741 
L 68.802395 93.907672 
L 69.006286 94.051404 
L 70.56759 95.144067 
L 71.045611 95.472818 
L 72.661616 96.236731 
z
M 72.522733 89.680751 
L 71.045611 88.978127 
L 70.479228 88.588087 
L 68.928273 87.495424 
L 68.802395 87.405664 
L 67.695869 86.402761 
L 66.559179 85.310097 
L 65.60162 84.217434 
L 64.710141 83.124771 
L 64.315963 82.616363 
L 63.902198 82.032107 
L 63.172882 80.939444 
L 62.504833 79.846781 
L 62.072747 79.079691 
L 61.895553 78.754117 
L 61.342363 77.661454 
L 60.847127 76.568791 
L 60.408334 75.476128 
L 60.024508 74.383464 
L 59.82953 73.745294 
L 59.687337 73.290801 
L 59.395371 72.198138 
L 59.15764 71.105474 
L 58.973428 70.012811 
L 58.842403 68.920148 
L 58.764674 67.827484 
L 58.740859 66.734821 
L 58.772146 65.642158 
L 58.86037 64.549494 
L 59.008097 63.456831 
L 59.218717 62.364168 
L 59.496565 61.271504 
L 59.82953 60.232016 
L 59.846267 60.178841 
L 60.256814 59.086178 
L 60.751186 57.993514 
L 61.338855 56.900851 
L 62.031221 55.808188 
L 62.072747 55.749206 
L 62.842126 54.715524 
L 63.788554 53.622861 
L 64.315963 53.081641 
L 64.921808 52.530198 
L 66.273903 51.437535 
L 66.559179 51.22637 
L 68.010068 50.344871 
L 68.802395 49.903606 
L 70.371214 49.252208 
L 71.045611 48.98655 
L 73.288827 48.408108 
L 75.325091 48.159545 
L 75.532043 48.134153 
L 77.775259 48.143078 
L 77.902581 48.159545 
L 80.018475 48.430774 
L 82.261691 49.012507 
L 82.880596 49.252208 
L 84.504907 49.910532 
L 85.314755 50.344871 
L 86.748123 51.175128 
L 87.123319 51.437535 
L 88.556904 52.530198 
L 88.99134 52.896581 
L 89.758986 53.622861 
L 90.780047 54.715524 
L 91.234556 55.264033 
L 91.661815 55.808188 
L 92.42068 56.900851 
L 93.070091 57.993514 
L 93.477772 58.792188 
L 93.628531 59.086178 
L 94.113685 60.178841 
L 94.515542 61.271504 
L 94.841204 62.364168 
L 95.096438 63.456831 
L 95.285859 64.549494 
L 95.413073 65.642158 
L 95.4808 66.734821 
L 95.490979 67.827484 
L 95.44485 68.920148 
L 95.343034 70.012811 
L 95.185599 71.105474 
L 94.972127 72.198138 
L 94.701778 73.290801 
L 94.37335 74.383464 
L 93.985357 75.476128 
L 93.536097 76.568791 
L 93.477772 76.697195 
L 93.041518 77.661454 
L 92.486693 78.754117 
L 91.867612 79.846781 
L 91.234556 80.86003 
L 91.182429 80.939444 
L 90.426241 82.032107 
L 89.601542 83.124771 
L 88.99134 83.882277 
L 88.690519 84.217434 
L 87.669004 85.310097 
L 86.748123 86.236814 
L 86.551169 86.402761 
L 85.227177 87.495424 
L 84.504907 88.071456 
L 83.654141 88.588087 
L 82.261691 89.421037 
L 81.594514 89.680751 
L 80.018475 90.301142 
L 77.775259 90.69659 
L 75.532043 90.614866 
L 73.288827 90.044767 
z
" clip-path="url(#p2f52e9d957)" style="fill: #99c7e0"/>
   </g>
   <g id="PathCollection_6">
    <path d="M 73.288827 90.044767 
L 75.532043 90.614866 
L 77.775259 90.69659 
L 80.018475 90.301142 
L 81.594514 89.680751 
L 82.261691 89.421037 
L 83.654141 88.588087 
L 84.504907 88.071456 
L 85.227177 87.495424 
L 86.551169 86.402761 
L 86.748123 86.236814 
L 87.669004 85.310097 
L 88.690519 84.217434 
L 88.99134 83.882277 
L 89.601542 83.124771 
L 90.426241 82.032107 
L 91.182429 80.939444 
L 91.234556 80.86003 
L 91.867612 79.846781 
L 92.486693 78.754117 
L 93.041518 77.661454 
L 93.477772 76.697195 
L 93.536097 76.568791 
L 93.985357 75.476128 
L 94.37335 74.383464 
L 94.701778 73.290801 
L 94.972127 72.198138 
L 95.185599 71.105474 
L 95.343034 70.012811 
L 95.44485 68.920148 
L 95.490979 67.827484 
L 95.4808 66.734821 
L 95.413073 65.642158 
L 95.285859 64.549494 
L 95.096438 63.456831 
L 94.841204 62.364168 
L 94.515542 61.271504 
L 94.113685 60.178841 
L 93.628531 59.086178 
L 93.477772 58.792188 
L 93.070091 57.993514 
L 92.42068 56.900851 
L 91.661815 55.808188 
L 91.234556 55.264033 
L 90.780047 54.715524 
L 89.758986 53.622861 
L 88.99134 52.896581 
L 88.556904 52.530198 
L 87.123319 51.437535 
L 86.748123 51.175128 
L 85.314755 50.344871 
L 84.504907 49.910532 
L 82.880596 49.252208 
L 82.261691 49.012507 
L 80.018475 48.430774 
L 77.902581 48.159545 
L 77.775259 48.143078 
L 75.532043 48.134153 
L 75.325091 48.159545 
L 73.288827 48.408108 
L 71.045611 48.98655 
L 70.371214 49.252208 
L 68.802395 49.903606 
L 68.010068 50.344871 
L 66.559179 51.22637 
L 66.273903 51.437535 
L 64.921808 52.530198 
L 64.315963 53.081641 
L 63.788554 53.622861 
L 62.842126 54.715524 
L 62.072747 55.749206 
L 62.031221 55.808188 
L 61.338855 56.900851 
L 60.751186 57.993514 
L 60.256814 59.086178 
L 59.846267 60.178841 
L 59.82953 60.232016 
L 59.496565 61.271504 
L 59.218717 62.364168 
L 59.008097 63.456831 
L 58.86037 64.549494 
L 58.772146 65.642158 
L 58.740859 66.734821 
L 58.764674 67.827484 
L 58.842403 68.920148 
L 58.973428 70.012811 
L 59.15764 71.105474 
L 59.395371 72.198138 
L 59.687337 73.290801 
L 59.82953 73.745294 
L 60.024508 74.383464 
L 60.408334 75.476128 
L 60.847127 76.568791 
L 61.342363 77.661454 
L 61.895553 78.754117 
L 62.072747 79.079691 
L 62.504833 79.846781 
L 63.172882 80.939444 
L 63.902198 82.032107 
L 64.315963 82.616363 
L 64.710141 83.124771 
L 65.60162 84.217434 
L 66.559179 85.310097 
L 67.695869 86.402761 
L 68.802395 87.405664 
L 68.928273 87.495424 
L 70.479228 88.588087 
L 71.045611 88.978127 
L 72.522733 89.680751 
z
M 75.14064 85.310097 
L 73.288827 84.817718 
L 72.079201 84.217434 
L 71.045611 83.692046 
L 70.270174 83.124771 
L 68.85357 82.032107 
L 68.802395 81.991108 
L 67.76288 80.939444 
L 66.772084 79.846781 
L 66.559179 79.596817 
L 65.939285 78.754117 
L 65.206551 77.661454 
L 64.550671 76.568791 
L 64.315963 76.136025 
L 63.984522 75.476128 
L 63.498484 74.383464 
L 63.080782 73.290801 
L 62.729909 72.198138 
L 62.444681 71.105474 
L 62.224312 70.012811 
L 62.072747 68.950243 
L 62.068474 68.920148 
L 61.977038 67.827484 
L 61.951598 66.734821 
L 61.993663 65.642158 
L 62.072747 64.867771 
L 62.105428 64.549494 
L 62.28978 63.456831 
L 62.551316 62.364168 
L 62.895508 61.271504 
L 63.329166 60.178841 
L 63.860654 59.086178 
L 64.315963 58.299365 
L 64.509751 57.993514 
L 65.309641 56.900851 
L 66.25256 55.808188 
L 66.559179 55.492461 
L 67.456394 54.715524 
L 68.802395 53.697361 
L 68.931165 53.622861 
L 71.010472 52.530198 
L 71.045611 52.513162 
L 73.288827 51.783682 
L 75.51535 51.437535 
L 75.532043 51.435004 
L 77.775259 51.436841 
L 77.779828 51.437535 
L 80.018475 51.783903 
L 82.261691 52.494865 
L 82.337241 52.530198 
L 84.504907 53.622861 
L 86.038583 54.715524 
L 86.748123 55.285832 
L 87.296807 55.808188 
L 88.313405 56.900851 
L 88.99134 57.743315 
L 89.174359 57.993514 
L 89.877289 59.086178 
L 90.46827 60.178841 
L 90.957696 61.271504 
L 91.234556 62.029167 
L 91.353993 62.364168 
L 91.663852 63.456831 
L 91.892987 64.549494 
L 92.045777 65.642158 
L 92.125517 66.734821 
L 92.134552 67.827484 
L 92.074375 68.920148 
L 91.945728 70.012811 
L 91.748686 71.105474 
L 91.482731 72.198138 
L 91.234556 73.010096 
L 91.146473 73.290801 
L 90.737354 74.383464 
L 90.254519 75.476128 
L 89.695908 76.568791 
L 89.059333 77.661454 
L 88.99134 77.76884 
L 88.303339 78.754117 
L 87.45572 79.846781 
L 86.748123 80.680683 
L 86.487621 80.939444 
L 85.320342 82.032107 
L 84.504907 82.744527 
L 83.934837 83.124771 
L 82.261691 84.189319 
L 82.193742 84.217434 
L 80.018475 85.103508 
L 78.869434 85.310097 
L 77.775259 85.509815 
L 75.532043 85.414759 
z
" clip-path="url(#p2f52e9d957)" style="fill: #65aad4"/>
   </g>
   <g id="PathCollection_7">
    <path d="M 75.532043 85.414759 
L 77.775259 85.509815 
L 78.869434 85.310097 
L 80.018475 85.103508 
L 82.193742 84.217434 
L 82.261691 84.189319 
L 83.934837 83.124771 
L 84.504907 82.744527 
L 85.320342 82.032107 
L 86.487621 80.939444 
L 86.748123 80.680683 
L 87.45572 79.846781 
L 88.303339 78.754117 
L 88.99134 77.76884 
L 89.059333 77.661454 
L 89.695908 76.568791 
L 90.254519 75.476128 
L 90.737354 74.383464 
L 91.146473 73.290801 
L 91.234556 73.010096 
L 91.482731 72.198138 
L 91.748686 71.105474 
L 91.945728 70.012811 
L 92.074375 68.920148 
L 92.134552 67.827484 
L 92.125517 66.734821 
L 92.045777 65.642158 
L 91.892987 64.549494 
L 91.663852 63.456831 
L 91.353993 62.364168 
L 91.234556 62.029167 
L 90.957696 61.271504 
L 90.46827 60.178841 
L 89.877289 59.086178 
L 89.174359 57.993514 
L 88.99134 57.743315 
L 88.313405 56.900851 
L 87.296807 55.808188 
L 86.748123 55.285832 
L 86.038583 54.715524 
L 84.504907 53.622861 
L 82.337241 52.530198 
L 82.261691 52.494865 
L 80.018475 51.783903 
L 77.779828 51.437535 
L 77.775259 51.436841 
L 75.532043 51.435004 
L 75.51535 51.437535 
L 73.288827 51.783682 
L 71.045611 52.513162 
L 71.010472 52.530198 
L 68.931165 53.622861 
L 68.802395 53.697361 
L 67.456394 54.715524 
L 66.559179 55.492461 
L 66.25256 55.808188 
L 65.309641 56.900851 
L 64.509751 57.993514 
L 64.315963 58.299365 
L 63.860654 59.086178 
L 63.329166 60.178841 
L 62.895508 61.271504 
L 62.551316 62.364168 
L 62.28978 63.456831 
L 62.105428 64.549494 
L 62.072747 64.867771 
L 61.993663 65.642158 
L 61.951598 66.734821 
L 61.977038 67.827484 
L 62.068474 68.920148 
L 62.072747 68.950243 
L 62.224312 70.012811 
L 62.444681 71.105474 
L 62.729909 72.198138 
L 63.080782 73.290801 
L 63.498484 74.383464 
L 63.984522 75.476128 
L 64.315963 76.136025 
L 64.550671 76.568791 
L 65.206551 77.661454 
L 65.939285 78.754117 
L 66.559179 79.596817 
L 66.772084 79.846781 
L 67.76288 80.939444 
L 68.802395 81.991108 
L 68.85357 82.032107 
L 70.270174 83.124771 
L 71.045611 83.692046 
L 72.079201 84.217434 
L 73.288827 84.817718 
L 75.14064 85.310097 
z
M 75.511979 80.939444 
L 73.288827 80.263562 
L 72.549283 79.846781 
L 71.045611 78.946798 
L 70.82029 78.754117 
L 69.626802 77.661454 
L 68.802395 76.825312 
L 68.60029 76.568791 
L 67.816951 75.476128 
L 67.132395 74.383464 
L 66.559179 73.319289 
L 66.545736 73.290801 
L 66.10229 72.198138 
L 65.742586 71.105474 
L 65.465678 70.012811 
L 65.271239 68.920148 
L 65.159654 67.827484 
L 65.132121 66.734821 
L 65.190752 65.642158 
L 65.338692 64.549494 
L 65.580257 63.456831 
L 65.921085 62.364168 
L 66.368328 61.271504 
L 66.559179 60.89346 
L 66.975673 60.178841 
L 67.748167 59.086178 
L 68.678072 57.993514 
L 68.802395 57.865511 
L 70.004529 56.900851 
L 71.045611 56.176544 
L 71.832205 55.808188 
L 73.288827 55.191844 
L 75.532043 54.724681 
L 77.775259 54.715524 
L 80.018475 55.155587 
L 81.643368 55.808188 
L 82.261691 56.079787 
L 83.519638 56.900851 
L 84.504907 57.631156 
L 84.886162 57.993514 
L 85.892744 59.086178 
L 86.739629 60.178841 
L 86.748123 60.191709 
L 87.364111 61.271504 
L 87.868498 62.364168 
L 88.262469 63.456831 
L 88.552987 64.549494 
L 88.745453 65.642158 
L 88.843903 66.734821 
L 88.851162 67.827484 
L 88.768979 68.920148 
L 88.598148 70.012811 
L 88.338621 71.105474 
L 87.98961 72.198138 
L 87.549692 73.290801 
L 87.016925 74.383464 
L 86.748123 74.859251 
L 86.341001 75.476128 
L 85.517812 76.568791 
L 84.579958 77.661454 
L 84.504907 77.742048 
L 83.281661 78.754117 
L 82.261691 79.52286 
L 81.605877 79.846781 
L 80.018475 80.587942 
L 78.322746 80.939444 
L 77.775259 81.050606 
L 75.532043 80.945385 
z
" clip-path="url(#p2f52e9d957)" style="fill: #3b8bc2"/>
   </g>
   <g id="PathCollection_8">
    <path d="M 75.532043 80.945385 
L 77.775259 81.050606 
L 78.322746 80.939444 
L 80.018475 80.587942 
L 81.605877 79.846781 
L 82.261691 79.52286 
L 83.281661 78.754117 
L 84.504907 77.742048 
L 84.579958 77.661454 
L 85.517812 76.568791 
L 86.341001 75.476128 
L 86.748123 74.859251 
L 87.016925 74.383464 
L 87.549692 73.290801 
L 87.98961 72.198138 
L 88.338621 71.105474 
L 88.598148 70.012811 
L 88.768979 68.920148 
L 88.851162 67.827484 
L 88.843903 66.734821 
L 88.745453 65.642158 
L 88.552987 64.549494 
L 88.262469 63.456831 
L 87.868498 62.364168 
L 87.364111 61.271504 
L 86.748123 60.191709 
L 86.739629 60.178841 
L 85.892744 59.086178 
L 84.886162 57.993514 
L 84.504907 57.631156 
L 83.519638 56.900851 
L 82.261691 56.079787 
L 81.643368 55.808188 
L 80.018475 55.155587 
L 77.775259 54.715524 
L 75.532043 54.724681 
L 73.288827 55.191844 
L 71.832205 55.808188 
L 71.045611 56.176544 
L 70.004529 56.900851 
L 68.802395 57.865511 
L 68.678072 57.993514 
L 67.748167 59.086178 
L 66.975673 60.178841 
L 66.559179 60.89346 
L 66.368328 61.271504 
L 65.921085 62.364168 
L 65.580257 63.456831 
L 65.338692 64.549494 
L 65.190752 65.642158 
L 65.132121 66.734821 
L 65.159654 67.827484 
L 65.271239 68.920148 
L 65.465678 70.012811 
L 65.742586 71.105474 
L 66.10229 72.198138 
L 66.545736 73.290801 
L 66.559179 73.319289 
L 67.132395 74.383464 
L 67.816951 75.476128 
L 68.60029 76.568791 
L 68.802395 76.825312 
L 69.626802 77.661454 
L 70.82029 78.754117 
L 71.045611 78.946798 
L 72.549283 79.846781 
L 73.288827 80.263562 
L 75.511979 80.939444 
z
M 73.663218 75.476128 
L 73.288827 75.309402 
L 72.158713 74.383464 
L 71.045611 73.32811 
L 71.017723 73.290801 
L 70.316638 72.198138 
L 69.748764 71.105474 
L 69.312924 70.012811 
L 69.008983 68.920148 
L 68.838003 67.827484 
L 68.802395 66.734821 
L 68.906096 65.642158 
L 69.154763 64.549494 
L 69.555994 63.456831 
L 70.119602 62.364168 
L 70.857927 61.271504 
L 71.045611 61.045016 
L 72.083158 60.178841 
L 73.288827 59.346189 
L 74.025461 59.086178 
L 75.532043 58.622141 
L 77.775259 58.589212 
L 79.593062 59.086178 
L 80.018475 59.217431 
L 81.544229 60.178841 
L 82.261691 60.714109 
L 82.771766 61.271504 
L 83.591547 62.364168 
L 84.231385 63.456831 
L 84.504907 64.088781 
L 84.664421 64.549494 
L 84.91461 65.642158 
L 85.039084 66.734821 
L 85.041443 67.827484 
L 84.923866 68.920148 
L 84.687267 70.012811 
L 84.504907 70.576942 
L 84.289495 71.105474 
L 83.697479 72.198138 
L 82.952375 73.290801 
L 82.261691 74.13309 
L 81.954543 74.383464 
L 80.406074 75.476128 
L 80.018475 75.718978 
L 77.775259 76.360152 
L 75.532043 76.229567 
z
" clip-path="url(#p2f52e9d957)" style="fill: #1967ad"/>
   </g>
   <g id="PathCollection_9">
    <path d="M 75.532043 76.229567 
L 77.775259 76.360152 
L 80.018475 75.718978 
L 80.406074 75.476128 
L 81.954543 74.383464 
L 82.261691 74.13309 
L 82.952375 73.290801 
L 83.697479 72.198138 
L 84.289495 71.105474 
L 84.504907 70.576942 
L 84.687267 70.012811 
L 84.923866 68.920148 
L 85.041443 67.827484 
L 85.039084 66.734821 
L 84.91461 65.642158 
L 84.664421 64.549494 
L 84.504907 64.088781 
L 84.231385 63.456831 
L 83.591547 62.364168 
L 82.771766 61.271504 
L 82.261691 60.714109 
L 81.544229 60.178841 
L 80.018475 59.217431 
L 79.593062 59.086178 
L 77.775259 58.589212 
L 75.532043 58.622141 
L 74.025461 59.086178 
L 73.288827 59.346189 
L 72.083158 60.178841 
L 71.045611 61.045016 
L 70.857927 61.271504 
L 70.119602 62.364168 
L 69.555994 63.456831 
L 69.154763 64.549494 
L 68.906096 65.642158 
L 68.802395 66.734821 
L 68.838003 67.827484 
L 69.008983 68.920148 
L 69.312924 70.012811 
L 69.748764 71.105474 
L 70.316638 72.198138 
L 71.017723 73.290801 
L 71.045611 73.32811 
L 72.158713 74.383464 
L 73.288827 75.309402 
L 73.663218 75.476128 
z
" clip-path="url(#p2f52e9d957)" style="fill: #084387"/>
   </g>
   <g id="patch_3">
    <path d="M 32.910938 239.375625 
L 32.910938 21.935625 
" style="fill: none; stroke: #cccccc; stroke-width: 0.8; stroke-linejoin: miter; stroke-linecap: square"/>
   </g>
   <g id="patch_4">
    <path d="M 479.310937 239.375625 
L 479.310937 21.935625 
" style="fill: none; stroke: #cccccc; stroke-width: 0.8; stroke-linejoin: miter; stroke-linecap: square"/>
   </g>
   <g id="patch_5">
    <path d="M 32.910938 239.375625 
L 479.310937 239.375625 
" style="fill: none; stroke: #cccccc; stroke-width: 0.8; stroke-linejoin: miter; stroke-linecap: square"/>
   </g>
   <g id="patch_6">
    <path d="M 32.910938 21.935625 
L 479.310937 21.935625 
" style="fill: none; stroke: #cccccc; stroke-width: 0.8; stroke-linejoin: miter; stroke-linecap: square"/>
   </g>
   <g id="text_15">
    <!-- 2D Density Plot of Votes and Stars -->
    <g style="fill: #262626" transform="translate(163.73625 15.935625)scale(0.12 -0.12)">
     <defs>
      <path id="ArialUnicodeMS-44" d="M 513 4581 
L 2094 4581 
Q 2509 4581 2809 4539 
Q 3109 4497 3382 4333 
Q 3656 4169 3861 3881 
Q 4066 3594 4183 3220 
Q 4300 2847 4300 2316 
Q 4300 1303 3819 651 
Q 3338 0 2163 0 
L 513 0 
L 513 4581 
z
M 1119 544 
L 2100 544 
Q 2400 544 2636 581 
Q 2872 619 3114 784 
Q 3356 950 3515 1328 
Q 3675 1706 3675 2328 
Q 3675 2672 3614 2970 
Q 3553 3269 3389 3514 
Q 3225 3759 3012 3873 
Q 2800 3988 2598 4013 
Q 2397 4038 2081 4038 
L 1119 4038 
L 1119 544 
z
" transform="scale(0.015625)"/>
      <path id="ArialUnicodeMS-20" transform="scale(0.015625)"/>
      <path id="ArialUnicodeMS-6e" d="M 3138 0 
L 2572 0 
L 2572 2016 
Q 2572 2525 2389 2715 
Q 2206 2906 1881 2906 
Q 1631 2906 1407 2784 
Q 1184 2663 1090 2441 
Q 997 2219 997 1813 
L 997 0 
L 434 0 
L 434 3316 
L 941 3316 
L 941 2847 
L 953 2847 
Q 1131 3119 1392 3255 
Q 1653 3391 1997 3391 
Q 2259 3391 2515 3297 
Q 2772 3203 2917 3015 
Q 3063 2828 3100 2615 
Q 3138 2403 3138 2041 
L 3138 0 
z
" transform="scale(0.015625)"/>
      <path id="ArialUnicodeMS-69" d="M 991 0 
L 428 0 
L 428 3316 
L 991 3316 
L 991 0 
z
M 991 3944 
L 428 3944 
L 428 4581 
L 991 4581 
L 991 3944 
z
" transform="scale(0.015625)"/>
      <path id="ArialUnicodeMS-79" d="M 3150 3316 
L 1881 -56 
Q 1878 -63 1875 -78 
Q 1694 -641 1451 -992 
Q 1209 -1344 763 -1344 
Q 613 -1344 397 -1281 
L 341 -750 
Q 503 -800 659 -800 
Q 972 -800 1092 -628 
Q 1213 -456 1363 -6 
L 103 3316 
L 709 3316 
L 1491 1144 
Q 1559 944 1638 628 
L 1650 628 
Q 1728 991 1850 1319 
L 2578 3316 
L 3150 3316 
z
" transform="scale(0.015625)"/>
      <path id="ArialUnicodeMS-50" d="M 494 4581 
L 2222 4581 
Q 2631 4581 2926 4540 
Q 3222 4500 3475 4329 
Q 3728 4159 3858 3867 
Q 3988 3575 3988 3256 
Q 3988 2622 3580 2239 
Q 3172 1856 2272 1856 
L 1100 1856 
L 1100 0 
L 494 0 
L 494 4581 
z
M 1100 2400 
L 2278 2400 
Q 3359 2400 3359 3238 
Q 3359 3513 3218 3723 
Q 3078 3934 2873 3986 
Q 2669 4038 2266 4038 
L 1100 4038 
L 1100 2400 
z
" transform="scale(0.015625)"/>
      <path id="ArialUnicodeMS-6c" d="M 991 0 
L 428 0 
L 428 4581 
L 991 4581 
L 991 0 
z
" transform="scale(0.015625)"/>
      <path id="ArialUnicodeMS-66" d="M 1991 4603 
L 1906 4109 
Q 1738 4141 1575 4141 
Q 1372 4141 1242 4055 
Q 1113 3969 1113 3628 
L 1113 3316 
L 1753 3316 
L 1753 2881 
L 1113 2881 
L 1113 0 
L 550 0 
L 550 2881 
L 50 2881 
L 50 3316 
L 550 3316 
L 550 3675 
Q 550 3925 597 4128 
Q 644 4331 845 4495 
Q 1047 4659 1466 4659 
Q 1716 4659 1991 4603 
z
" transform="scale(0.015625)"/>
      <path id="ArialUnicodeMS-64" d="M 3109 0 
L 2584 0 
L 2584 422 
L 2572 422 
Q 2269 -78 1656 -78 
Q 1047 -78 639 405 
Q 231 888 231 1656 
Q 231 2459 615 2925 
Q 1000 3391 1631 3391 
Q 2225 3391 2534 2938 
L 2547 2938 
L 2547 4581 
L 3109 4581 
L 3109 0 
z
M 1716 384 
Q 2084 384 2340 687 
Q 2597 991 2597 1606 
Q 2597 2213 2362 2572 
Q 2128 2931 1691 2931 
Q 1253 2931 1029 2579 
Q 806 2228 806 1656 
Q 806 1244 926 958 
Q 1047 672 1262 528 
Q 1478 384 1716 384 
z
" transform="scale(0.015625)"/>
     </defs>
     <use xlink:href="#ArialUnicodeMS-32"/>
     <use xlink:href="#ArialUnicodeMS-44" x="55.615234"/>
     <use xlink:href="#ArialUnicodeMS-20" x="127.832031"/>
     <use xlink:href="#ArialUnicodeMS-44" x="155.615234"/>
     <use xlink:href="#ArialUnicodeMS-65" x="227.832031"/>
     <use xlink:href="#ArialUnicodeMS-6e" x="283.447266"/>
     <use xlink:href="#ArialUnicodeMS-73" x="339.0625"/>
     <use xlink:href="#ArialUnicodeMS-69" x="389.0625"/>
     <use xlink:href="#ArialUnicodeMS-74" x="411.279297"/>
     <use xlink:href="#ArialUnicodeMS-79" x="439.0625"/>
     <use xlink:href="#ArialUnicodeMS-20" x="489.0625"/>
     <use xlink:href="#ArialUnicodeMS-50" x="516.845703"/>
     <use xlink:href="#ArialUnicodeMS-6c" x="583.544922"/>
     <use xlink:href="#ArialUnicodeMS-6f" x="605.761719"/>
     <use xlink:href="#ArialUnicodeMS-74" x="661.376953"/>
     <use xlink:href="#ArialUnicodeMS-20" x="689.160156"/>
     <use xlink:href="#ArialUnicodeMS-6f" x="716.943359"/>
     <use xlink:href="#ArialUnicodeMS-66" x="772.558594"/>
     <use xlink:href="#ArialUnicodeMS-20" x="800.341797"/>
     <use xlink:href="#ArialUnicodeMS-56" x="828.125"/>
     <use xlink:href="#ArialUnicodeMS-6f" x="894.824219"/>
     <use xlink:href="#ArialUnicodeMS-74" x="950.439453"/>
     <use xlink:href="#ArialUnicodeMS-65" x="978.222656"/>
     <use xlink:href="#ArialUnicodeMS-73" x="1033.837891"/>
     <use xlink:href="#ArialUnicodeMS-20" x="1083.837891"/>
     <use xlink:href="#ArialUnicodeMS-61" x="1111.621094"/>
     <use xlink:href="#ArialUnicodeMS-6e" x="1167.236328"/>
     <use xlink:href="#ArialUnicodeMS-64" x="1222.851562"/>
     <use xlink:href="#ArialUnicodeMS-20" x="1278.466797"/>
     <use xlink:href="#ArialUnicodeMS-53" x="1306.25"/>
     <use xlink:href="#ArialUnicodeMS-74" x="1372.949219"/>
     <use xlink:href="#ArialUnicodeMS-61" x="1400.732422"/>
     <use xlink:href="#ArialUnicodeMS-72" x="1456.347656"/>
     <use xlink:href="#ArialUnicodeMS-73" x="1489.648438"/>
    </g>
   </g>
  </g>
 </g>
 <defs>
  <clipPath id="p2f52e9d957">
   <rect x="32.910938" y="21.935625" width="446.4" height="217.44"/>
  </clipPath>
 </defs>
</svg>
